SplineFontDB: 3.2
FontName: FiraSans-Thin
FullName: Fira Sans Thin
FamilyName: Fira Sans Thin
Weight: Light
Copyright: Digitized data copyright 2012-2016, The Mozilla Foundation and Telefonica S.A.
Version: 4.203
ItalicAngle: 0
UnderlinePosition: -100
UnderlineWidth: 50
Ascent: 800
Descent: 200
InvalidEm: 0
sfntRevision: 0x000433f7
LayerCount: 2
Layer: 0 1 "Back" 1
Layer: 1 1 "Fore" 0
XUID: [1021 787 1779542666 4706962]
StyleMap: 0x0040
FSType: 0
OS2Version: 4
OS2_WeightWidthSlopeOnly: 0
OS2_UseTypoMetrics: 1
CreationTime: 1476947922
ModificationTime: 1480667555
PfmFamily: 17
TTFWeight: 250
TTFWidth: 5
LineGap: 0
VLineGap: 0
Panose: 2 11 3 3 5 0 0 2 0 4
OS2TypoAscent: 935
OS2TypoAOffset: 0
OS2TypoDescent: -265
OS2TypoDOffset: 0
OS2TypoLinegap: 0
OS2WinAscent: 935
OS2WinAOffset: 0
OS2WinDescent: 265
OS2WinDOffset: 0
HheadAscent: 935
HheadAOffset: 0
HheadDescent: -265
HheadDOffset: 0
OS2SubXSize: 650
OS2SubYSize: 600
OS2SubXOff: 0
OS2SubYOff: 75
OS2SupXSize: 650
OS2SupYSize: 600
OS2SupXOff: 0
OS2SupYOff: 350
OS2StrikeYSize: 50
OS2StrikeYPos: 311
OS2CapHeight: 681
OS2XHeight: 519
OS2Vendor: 'CTDB'
OS2CodePages: 2000019f.00000000
OS2UnicodeRanges: 600002ff.00000001.00000000.00000000
Lookup: 1 0 0 "'aalt' Access All Alternates lookup 0" { "'aalt' Access All Alternates lookup 0 subtable"  } ['aalt' ('DFLT' <'dflt' > 'cyrl' <'dflt' > 'grek' <'dflt' > 'latn' <'AFK ' 'AZE ' 'CAT ' 'CRT ' 'KAZ ' 'MOL ' 'PLK ' 'ROM ' 'TAT ' 'TRK ' 'dflt' > ) ]
Lookup: 3 0 0 "'aalt' Access All Alternates lookup 1" { "'aalt' Access All Alternates lookup 1 subtable"  } ['aalt' ('DFLT' <'dflt' > 'cyrl' <'dflt' > 'grek' <'dflt' > 'latn' <'AFK ' 'AZE ' 'CAT ' 'CRT ' 'KAZ ' 'MOL ' 'PLK ' 'ROM ' 'TAT ' 'TRK ' 'dflt' > ) ]
Lookup: 1 0 0 "'locl' Localized Forms in Latin lookup 2" { "'locl' Localized Forms in Latin lookup 2 subtable"  } ['locl' ('latn' <'TAT ' > ) ]

StartChar: .notdef
Encoding: 65536 -1 0
Width: 666
GlyphClass: 1
Flags: W
LayerCount: 2
Fore
SplineSet
543 1050 m 1,0,-1
 543 -350 l 1,1,-1
 123 -350 l 1,2,-1
 123 1050 l 1,3,-1
 543 1050 l 1,0,-1
504 1012 m 1,4,-1
 163 1012 l 1,5,-1
 163 -312 l 1,6,-1
 504 -312 l 1,7,-1
 504 1012 l 1,4,-1
409.5 419 m 128,-1,9
 435 387 435 387 435 336 c 0,10,11
 435 283 435 283 412.5 254 c 128,-1,12
 390 225 390 225 340 218 c 1,13,-1
 340 173 l 2,14,15
 340 162 340 162 332.5 155.5 c 128,-1,16
 325 149 325 149 315 149 c 256,17,18
 305 149 305 149 297.5 155.5 c 128,-1,19
 290 162 290 162 290 173 c 2,20,-1
 290 257 l 1,21,22
 343 260 343 260 362 276.5 c 128,-1,23
 381 293 381 293 381 334 c 0,24,25
 381 367 381 367 368 385 c 128,-1,26
 355 403 355 403 320 403 c 0,27,28
 291 403 291 403 268 392 c 0,29,30
 260 389 260 389 255 389 c 0,31,32
 244 389 244 389 237.5 395.5 c 128,-1,33
 231 402 231 402 231 412 c 0,34,35
 231 431 231 431 260.5 441 c 128,-1,36
 290 451 290 451 324 451 c 0,37,8
 384 451 384 451 409.5 419 c 128,-1,9
340 110 m 128,-1,39
 350 100 350 100 350 85 c 0,40,41
 350 69 350 69 340 58.5 c 128,-1,42
 330 48 330 48 315 48 c 256,43,44
 300 48 300 48 290 58.5 c 128,-1,45
 280 69 280 69 280 85 c 0,46,47
 280 100 280 100 290 110 c 128,-1,48
 300 120 300 120 315 120 c 256,49,38
 330 120 330 120 340 110 c 128,-1,39
EndSplineSet
EndChar

StartChar: A
Encoding: 65 65 3
Width: 557
GlyphClass: 2
Flags: W
AnchorPoint: "Anchor-18" 0 0 basechar 0
AnchorPoint: "Anchor-17" 0 0 basechar 0
AnchorPoint: "Anchor-16" 279 681 basechar 0
AnchorPoint: "Anchor-15" 540 0 basechar 0
AnchorPoint: "Anchor-14" 279 0 basechar 0
LayerCount: 2
Fore
SplineSet
505 0 m 1,0,-1
 435 203 l 1,1,-1
 121 203 l 1,2,-1
 51 0 l 1,3,-1
 28 0 l 1,4,-1
 265 681 l 1,5,-1
 292 681 l 1,6,-1
 530 0 l 1,7,-1
 505 0 l 1,0,-1
128 224 m 1,8,-1
 428 224 l 1,9,-1
 278 663 l 1,10,-1
 128 224 l 1,8,-1
EndSplineSet
Substitution2: "Single Substitution lookup 45 subtable" ordfeminine
Substitution2: "'c2sc' Capitals to Small Capitals lookup 26 subtable" a.sc
AlternateSubs2: "'aalt' Access All Alternates lookup 1 subtable" ordfeminine a.sc
Position2: "'cpsp' Capital Spacing lookup 0 subtable" dx=5 dy=0 dh=10 dv=0
EndChar

StartChar: uni2C6D
Encoding: 11373 11373 27
Width: 662
GlyphClass: 2
Flags: W
AnchorPoint: "Anchor-18" 0 0 basechar 0
AnchorPoint: "Anchor-17" 0 0 basechar 0
AnchorPoint: "Anchor-16" 331 681 basechar 0
AnchorPoint: "Anchor-15" 0 0 basechar 0
AnchorPoint: "Anchor-14" 331 0 basechar 0
LayerCount: 2
Fore
SplineSet
546 44.5 m 128,-1,1
 557 27 557 27 585 14 c 1,2,-1
 579 -5 l 1,3,4
 545 8 545 8 530 27.5 c 128,-1,5
 515 47 515 47 513 84 c 1,6,7
 446 -10 446 -10 332 -10 c 0,8,9
 259 -10 259 -10 201.5 29 c 128,-1,10
 144 68 144 68 111 144.5 c 128,-1,11
 78 221 78 221 78 329 c 0,12,13
 78 443 78 443 111.5 524.5 c 128,-1,14
 145 606 145 606 204.5 648.5 c 128,-1,15
 264 691 264 691 339 691 c 0,16,17
 448 691 448 691 514 611 c 1,18,-1
 516 681 l 1,19,-1
 535 681 l 1,20,-1
 535 102 l 2,21,0
 535 62 535 62 546 44.5 c 128,-1,1
513 113 m 1,23,-1
 513 584 l 1,24,25
 482 626 482 626 437.5 648 c 128,-1,26
 393 670 393 670 339 670 c 0,27,28
 270 670 270 670 216 631 c 128,-1,29
 162 592 162 592 131.5 515 c 128,-1,30
 101 438 101 438 101 329 c 0,31,32
 101 227 101 227 131 156 c 128,-1,33
 161 85 161 85 213 48.5 c 128,-1,34
 265 12 265 12 332 12 c 0,35,22
 446 12 446 12 513 113 c 1,23,-1
EndSplineSet
Substitution2: "'c2sc' Capitals to Small Capitals lookup 26 subtable" uni0251.sc
Substitution2: "'aalt' Access All Alternates lookup 0 subtable" uni0251.sc
Position2: "'cpsp' Capital Spacing lookup 0 subtable" dx=5 dy=0 dh=10 dv=0
EndChar

StartChar: Aogonek
Encoding: 260 260 29
Width: 557
GlyphClass: 2
Flags: W
AnchorPoint: "Anchor-18" 0 0 basechar 0
AnchorPoint: "Anchor-17" 0 0 basechar 0
AnchorPoint: "Anchor-16" 279 681 basechar 0
AnchorPoint: "Anchor-15" 540 0 basechar 0
AnchorPoint: "Anchor-14" 279 0 basechar 0
LayerCount: 2
Fore
SplineSet
423 -165.5 m 128,-1,1
 441 -181 441 -181 475 -181 c 0,2,3
 501 -181 501 -181 530 -174 c 1,4,-1
 528 -196 l 1,5,6
 500 -203 500 -203 474 -203 c 0,7,8
 428 -203 428 -203 404.5 -181 c 128,-1,9
 381 -159 381 -159 381 -123 c 0,10,11
 381 -82 381 -82 412.5 -51.5 c 128,-1,12
 444 -21 444 -21 503 5 c 1,13,-1
 435 203 l 1,14,-1
 121 203 l 1,15,-1
 51 0 l 1,16,-1
 28 0 l 1,17,-1
 265 681 l 1,18,-1
 292 681 l 1,19,-1
 530 0 l 1,20,21
 468 -27 468 -27 436.5 -54 c 128,-1,22
 405 -81 405 -81 405 -122 c 0,23,0
 405 -150 405 -150 423 -165.5 c 128,-1,1
128 224 m 1,24,-1
 428 224 l 1,25,-1
 278 663 l 1,26,-1
 128 224 l 1,24,-1
EndSplineSet
Substitution2: "'c2sc' Capitals to Small Capitals lookup 26 subtable" aogonek.sc
Substitution2: "'aalt' Access All Alternates lookup 0 subtable" aogonek.sc
Position2: "'cpsp' Capital Spacing lookup 0 subtable" dx=5 dy=0 dh=10 dv=0
EndChar

StartChar: uni023A
Encoding: 570 570 32
Width: 557
GlyphClass: 2
Flags: W
AnchorPoint: "Anchor-18" 0 0 basechar 0
AnchorPoint: "Anchor-17" 0 0 basechar 0
AnchorPoint: "Anchor-16" 279 681 basechar 0
AnchorPoint: "Anchor-15" 0 0 basechar 0
AnchorPoint: "Anchor-14" 279 0 basechar 0
LayerCount: 2
Fore
SplineSet
505 0 m 1,0,-1
 435 203 l 1,1,-1
 260 203 l 1,2,-1
 190 -66 l 1,3,-1
 173 -62 l 1,4,-1
 243 203 l 1,5,-1
 121 203 l 1,6,-1
 51 0 l 1,7,-1
 28 0 l 1,8,-1
 265 681 l 1,9,-1
 292 681 l 1,10,-1
 336 556 l 1,11,-1
 383 737 l 1,12,-1
 399 732 l 1,13,-1
 346 528 l 1,14,-1
 530 0 l 1,15,-1
 505 0 l 1,0,-1
128 224 m 1,16,-1
 248 224 l 1,17,-1
 326 522 l 1,18,-1
 278 663 l 1,19,-1
 128 224 l 1,16,-1
266 224 m 1,20,-1
 428 224 l 1,21,-1
 336 493 l 1,22,-1
 266 224 l 1,20,-1
EndSplineSet
Substitution2: "'c2sc' Capitals to Small Capitals lookup 26 subtable" uni2C65.sc
Substitution2: "'aalt' Access All Alternates lookup 0 subtable" uni2C65.sc
Position2: "'cpsp' Capital Spacing lookup 0 subtable" dx=5 dy=0 dh=10 dv=0
EndChar

StartChar: AE
Encoding: 198 198 34
Width: 755
GlyphClass: 2
Flags: W
AnchorPoint: "Anchor-18" 0 0 basechar 0
AnchorPoint: "Anchor-17" 0 0 basechar 0
AnchorPoint: "Anchor-16" 446 681 basechar 0
AnchorPoint: "Anchor-15" 0 0 basechar 0
AnchorPoint: "Anchor-14" 378 0 basechar 0
LayerCount: 2
Fore
SplineSet
481 21 m 1,0,-1
 712 21 l 1,1,-1
 712 0 l 1,2,-1
 464 0 l 1,3,-1
 412 196 l 1,4,-1
 110 196 l 1,5,-1
 35 0 l 1,6,-1
 12 0 l 1,7,-1
 275 681 l 1,8,-1
 659 681 l 1,9,-1
 656 660 l 1,10,-1
 313 660 l 1,11,-1
 389 370 l 1,12,-1
 651 370 l 1,13,-1
 651 349 l 1,14,-1
 395 349 l 1,15,-1
 481 21 l 1,0,-1
119 218 m 1,16,-1
 406 218 l 1,17,-1
 289 663 l 1,18,-1
 119 218 l 1,16,-1
EndSplineSet
Substitution2: "'c2sc' Capitals to Small Capitals lookup 26 subtable" ae.sc
Substitution2: "'aalt' Access All Alternates lookup 0 subtable" ae.sc
Position2: "'cpsp' Capital Spacing lookup 0 subtable" dx=5 dy=0 dh=10 dv=0
EndChar

StartChar: B
Encoding: 66 66 37
Width: 587
GlyphClass: 2
Flags: W
AnchorPoint: "Anchor-18" 0 0 basechar 0
AnchorPoint: "Anchor-17" 0 0 basechar 0
AnchorPoint: "Anchor-16" 288 681 basechar 0
AnchorPoint: "Anchor-15" 0 0 basechar 0
AnchorPoint: "Anchor-14" 310 0 basechar 0
LayerCount: 2
Fore
SplineSet
479 312 m 128,-1,1
 525 267 525 267 525 184 c 0,2,3
 525 94 525 94 465.5 47 c 128,-1,4
 406 0 406 0 299 0 c 2,5,-1
 123 0 l 1,6,-1
 123 681 l 1,7,-1
 264 681 l 2,8,9
 373 681 373 681 431.5 638.5 c 128,-1,10
 490 596 490 596 490 513 c 0,11,12
 490 448 490 448 455.5 409.5 c 128,-1,13
 421 371 421 371 362 361 c 1,14,0
 433 357 433 357 479 312 c 128,-1,1
146 660 m 1,15,-1
 146 370 l 1,16,-1
 316 370 l 2,17,18
 384 370 384 370 425.5 409 c 128,-1,19
 467 448 467 448 467 512 c 0,20,21
 467 586 467 586 416 623 c 128,-1,22
 365 660 365 660 267 660 c 2,23,-1
 146 660 l 1,15,-1
448.5 61.5 m 128,-1,25
 502 102 502 102 502 184 c 0,26,27
 502 264 502 264 452.5 307 c 128,-1,28
 403 350 403 350 321 350 c 2,29,-1
 146 350 l 1,30,-1
 146 21 l 1,31,-1
 300 21 l 2,32,24
 395 21 395 21 448.5 61.5 c 128,-1,25
EndSplineSet
Substitution2: "'c2sc' Capitals to Small Capitals lookup 26 subtable" b.sc
Substitution2: "'aalt' Access All Alternates lookup 0 subtable" b.sc
Position2: "'cpsp' Capital Spacing lookup 0 subtable" dx=5 dy=0 dh=10 dv=0
EndChar

StartChar: uniA7B4
Encoding: 42932 42932 40
Width: 587
GlyphClass: 2
Flags: W
AnchorPoint: "Anchor-18" 0 0 basechar 0
AnchorPoint: "Anchor-17" 0 0 basechar 0
AnchorPoint: "Anchor-16" 293 681 basechar 0
AnchorPoint: "Anchor-15" 0 0 basechar 0
AnchorPoint: "Anchor-14" 293 -192 basechar 0
LayerCount: 2
Fore
SplineSet
479.5 315.5 m 128,-1,1
 525 274 525 274 525 191 c 0,2,3
 525 99 525 99 466.5 49.5 c 128,-1,4
 408 0 408 0 310 0 c 0,5,6
 220 0 220 0 146 30 c 1,7,-1
 146 -192 l 1,8,-1
 123 -192 l 1,9,-1
 123 681 l 1,10,-1
 264 681 l 2,11,12
 373 681 373 681 431.5 638.5 c 128,-1,13
 490 596 490 596 490 513 c 0,14,15
 490 448 490 448 455.5 409.5 c 128,-1,16
 421 371 421 371 362 361 c 1,17,0
 434 357 434 357 479.5 315.5 c 128,-1,1
449.5 64.5 m 128,-1,19
 502 108 502 108 502 191 c 0,20,21
 502 270 502 270 453 310 c 128,-1,22
 404 350 404 350 321 350 c 2,23,-1
 232 350 l 1,24,-1
 235 370 l 1,25,-1
 316 370 l 2,26,27
 384 370 384 370 425.5 409 c 128,-1,28
 467 448 467 448 467 512 c 0,29,30
 467 586 467 586 416 623 c 128,-1,31
 365 660 365 660 267 660 c 2,32,-1
 146 660 l 1,33,-1
 146 51 l 1,34,35
 220 21 220 21 310 21 c 0,36,18
 397 21 397 21 449.5 64.5 c 128,-1,19
EndSplineSet
Substitution2: "'c2sc' Capitals to Small Capitals lookup 26 subtable" uniA7B5.sc
Substitution2: "'aalt' Access All Alternates lookup 0 subtable" uniA7B5.sc
Position2: "'cpsp' Capital Spacing lookup 0 subtable" dx=5 dy=0 dh=10 dv=0
EndChar

StartChar: uni0181
Encoding: 385 385 41
Width: 629
GlyphClass: 2
Flags: W
AnchorPoint: "Anchor-18" 0 0 basechar 0
AnchorPoint: "Anchor-17" 0 0 basechar 0
AnchorPoint: "Anchor-16" 330 681 basechar 0
AnchorPoint: "Anchor-15" 0 0 basechar 0
AnchorPoint: "Anchor-14" 352 0 basechar 0
LayerCount: 2
Fore
SplineSet
521 312 m 128,-1,1
 567 267 567 267 567 184 c 0,2,3
 567 94 567 94 507.5 47 c 128,-1,4
 448 0 448 0 341 0 c 2,5,-1
 165 0 l 1,6,-1
 165 661 l 1,7,-1
 132 661 l 2,8,9
 88 661 88 661 66.5 640 c 128,-1,10
 45 619 45 619 45 584 c 0,11,12
 45 562 45 562 51.5 545 c 128,-1,13
 58 528 58 528 70 508 c 1,14,-1
 53 498 l 1,15,16
 38 521 38 521 30.5 539 c 128,-1,17
 23 557 23 557 23 584 c 0,18,19
 23 629 23 629 52 655 c 128,-1,20
 81 681 81 681 135 681 c 2,21,-1
 306 681 l 2,22,23
 415 681 415 681 473.5 638.5 c 128,-1,24
 532 596 532 596 532 513 c 0,25,26
 532 448 532 448 497.5 409.5 c 128,-1,27
 463 371 463 371 404 361 c 1,28,0
 475 357 475 357 521 312 c 128,-1,1
188 660 m 1,29,-1
 188 370 l 1,30,-1
 358 370 l 2,31,32
 426 370 426 370 467.5 409 c 128,-1,33
 509 448 509 448 509 512 c 0,34,35
 509 586 509 586 458 623 c 128,-1,36
 407 660 407 660 309 660 c 2,37,-1
 188 660 l 1,29,-1
490.5 61.5 m 128,-1,39
 544 102 544 102 544 184 c 0,40,41
 544 264 544 264 494.5 307 c 128,-1,42
 445 350 445 350 363 350 c 2,43,-1
 188 350 l 1,44,-1
 188 21 l 1,45,-1
 342 21 l 2,46,38
 437 21 437 21 490.5 61.5 c 128,-1,39
EndSplineSet
Substitution2: "'ss02' Style Set 2 lookup 34 subtable" uni0181.ss02
Substitution2: "'salt' Stylistic Alternatives lookup 32 subtable" uni0181.ss02
Substitution2: "'c2sc' Capitals to Small Capitals lookup 26 subtable" uni0253.sc
AlternateSubs2: "'aalt' Access All Alternates lookup 1 subtable" uni0253.sc uni0181.ss02
Position2: "'cpsp' Capital Spacing lookup 0 subtable" dx=5 dy=0 dh=10 dv=0
EndChar

StartChar: uni0243
Encoding: 579 579 43
Width: 582
GlyphClass: 2
Flags: W
AnchorPoint: "Anchor-18" 0 0 basechar 0
AnchorPoint: "Anchor-17" 0 0 basechar 0
AnchorPoint: "Anchor-16" 283 681 basechar 0
AnchorPoint: "Anchor-15" 0 0 basechar 0
AnchorPoint: "Anchor-14" 305 0 basechar 0
LayerCount: 2
Fore
SplineSet
474 312 m 128,-1,1
 520 267 520 267 520 184 c 0,2,3
 520 94 520 94 460.5 47 c 128,-1,4
 401 0 401 0 294 0 c 2,5,-1
 118 0 l 1,6,-1
 118 183 l 1,7,-1
 26 183 l 1,8,-1
 26 204 l 1,9,-1
 118 204 l 1,10,-1
 118 681 l 1,11,-1
 259 681 l 2,12,13
 368 681 368 681 426.5 638.5 c 128,-1,14
 485 596 485 596 485 513 c 0,15,16
 485 448 485 448 450.5 409.5 c 128,-1,17
 416 371 416 371 357 361 c 1,18,0
 428 357 428 357 474 312 c 128,-1,1
141 660 m 1,19,-1
 141 370 l 1,20,-1
 311 370 l 2,21,22
 379 370 379 370 420.5 409 c 128,-1,23
 462 448 462 448 462 512 c 0,24,25
 462 586 462 586 411 623 c 128,-1,26
 360 660 360 660 262 660 c 2,27,-1
 141 660 l 1,19,-1
443.5 61.5 m 128,-1,29
 497 102 497 102 497 184 c 0,30,31
 497 264 497 264 447.5 307 c 128,-1,32
 398 350 398 350 316 350 c 2,33,-1
 141 350 l 1,34,-1
 141 204 l 1,35,-1
 333 204 l 1,36,-1
 333 183 l 1,37,-1
 141 183 l 1,38,-1
 141 21 l 1,39,-1
 295 21 l 2,40,28
 390 21 390 21 443.5 61.5 c 128,-1,29
EndSplineSet
Substitution2: "'c2sc' Capitals to Small Capitals lookup 26 subtable" uni0180.sc
Substitution2: "'aalt' Access All Alternates lookup 0 subtable" uni0180.sc
Position2: "'cpsp' Capital Spacing lookup 0 subtable" dx=5 dy=0 dh=10 dv=0
EndChar

StartChar: C
Encoding: 67 67 45
Width: 538
GlyphClass: 2
Flags: W
AnchorPoint: "Anchor-18" 327 343 basechar 0
AnchorPoint: "Anchor-17" 0 0 basechar 0
AnchorPoint: "Anchor-16" 342 681 basechar 0
AnchorPoint: "Anchor-15" 0 0 basechar 0
AnchorPoint: "Anchor-14" 341 0 basechar 0
LayerCount: 2
Fore
SplineSet
433.5 676.5 m 128,-1,1
 470 662 470 662 505 633 c 1,2,-1
 492 617 l 1,3,4
 457 645 457 645 424.5 657.5 c 128,-1,5
 392 670 392 670 346 670 c 0,6,7
 275 670 275 670 219.5 634.5 c 128,-1,8
 164 599 164 599 132.5 525 c 128,-1,9
 101 451 101 451 101 340 c 0,10,11
 101 235 101 235 132 161 c 128,-1,12
 163 87 163 87 217.5 49.5 c 128,-1,13
 272 12 272 12 342 12 c 0,14,15
 395 12 395 12 430 27 c 128,-1,16
 465 42 465 42 499 71 c 1,17,-1
 513 54 l 1,18,19
 478 24 478 24 437.5 7 c 128,-1,20
 397 -10 397 -10 342 -10 c 0,21,22
 265 -10 265 -10 205 30.5 c 128,-1,23
 145 71 145 71 111.5 150 c 128,-1,24
 78 229 78 229 78 340 c 0,25,26
 78 455 78 455 112.5 534 c 128,-1,27
 147 613 147 613 207.5 652 c 128,-1,28
 268 691 268 691 344 691 c 0,29,0
 397 691 397 691 433.5 676.5 c 128,-1,1
EndSplineSet
Substitution2: "'c2sc' Capitals to Small Capitals lookup 26 subtable" c.sc
Substitution2: "'aalt' Access All Alternates lookup 0 subtable" c.sc
Position2: "'cpsp' Capital Spacing lookup 0 subtable" dx=5 dy=0 dh=10 dv=0
EndChar

StartChar: Ccedilla
Encoding: 199 199 49
Width: 538
GlyphClass: 2
Flags: W
AnchorPoint: "Anchor-18" 327 343 basechar 0
AnchorPoint: "Anchor-17" 0 0 basechar 0
AnchorPoint: "Anchor-16" 342 681 basechar 0
AnchorPoint: "Anchor-15" 0 0 basechar 0
AnchorPoint: "Anchor-14" 359 -212 basechar 0
LayerCount: 2
Fore
SplineSet
433 -140 m 0,1,2
 433 -174 433 -174 408.5 -193 c 128,-1,3
 384 -212 384 -212 349 -212 c 0,4,5
 312 -212 312 -212 281 -194 c 1,6,-1
 291 -177 l 1,7,8
 314 -192 314 -192 349 -192 c 0,9,10
 375 -192 375 -192 392.5 -179 c 128,-1,11
 410 -166 410 -166 410 -140 c 0,12,13
 410 -115 410 -115 388.5 -103 c 128,-1,14
 367 -91 367 -91 321 -90 c 1,15,-1
 326 -10 l 1,16,17
 253 -5 253 -5 197 36.5 c 128,-1,18
 141 78 141 78 109.5 155.5 c 128,-1,19
 78 233 78 233 78 340 c 0,20,21
 78 455 78 455 112.5 534 c 128,-1,22
 147 613 147 613 207.5 652 c 128,-1,23
 268 691 268 691 344 691 c 0,24,25
 397 691 397 691 433.5 676.5 c 128,-1,26
 470 662 470 662 505 633 c 1,27,-1
 492 617 l 1,28,29
 457 645 457 645 424.5 657.5 c 128,-1,30
 392 670 392 670 346 670 c 0,31,32
 275 670 275 670 219.5 634.5 c 128,-1,33
 164 599 164 599 132.5 525 c 128,-1,34
 101 451 101 451 101 340 c 0,35,36
 101 235 101 235 132 161 c 128,-1,37
 163 87 163 87 217.5 49.5 c 128,-1,38
 272 12 272 12 342 12 c 0,39,40
 395 12 395 12 430 27 c 128,-1,41
 465 42 465 42 499 71 c 1,42,-1
 513 54 l 1,43,44
 478 24 478 24 437.5 7 c 128,-1,45
 397 -10 397 -10 343 -10 c 1,46,-1
 342 -74 l 1,47,0
 433 -79 433 -79 433 -140 c 0,1,2
EndSplineSet
Substitution2: "'c2sc' Capitals to Small Capitals lookup 26 subtable" ccedilla.sc
Substitution2: "'aalt' Access All Alternates lookup 0 subtable" ccedilla.sc
Position2: "'cpsp' Capital Spacing lookup 0 subtable" dx=5 dy=0 dh=10 dv=0
EndChar

StartChar: uniA7B3
Encoding: 42931 42931 52
Width: 478
GlyphClass: 2
Flags: W
AnchorPoint: "Anchor-18" 0 0 basechar 0
AnchorPoint: "Anchor-17" 0 0 basechar 0
AnchorPoint: "Anchor-16" 238 681 basechar 0
AnchorPoint: "Anchor-15" 0 0 basechar 0
AnchorPoint: "Anchor-14" 238 -192 basechar 0
LayerCount: 2
Fore
SplineSet
250 322 m 1,0,-1
 462 -99 l 1,1,-1
 436 -99 l 1,2,-1
 237 308 l 1,3,-1
 41 -99 l 1,4,-1
 16 -99 l 1,5,-1
 223 321 l 1,6,-1
 41 681 l 1,7,-1
 67 681 l 1,8,-1
 237 335 l 1,9,-1
 405 681 l 1,10,-1
 430 681 l 1,11,-1
 250 322 l 1,0,-1
EndSplineSet
Substitution2: "'c2sc' Capitals to Small Capitals lookup 26 subtable" uniAB53.sc
Substitution2: "'aalt' Access All Alternates lookup 0 subtable" uniAB53.sc
Position2: "'cpsp' Capital Spacing lookup 0 subtable" dx=5 dy=0 dh=10 dv=0
EndChar

StartChar: uni0187
Encoding: 391 391 53
Width: 538
GlyphClass: 2
Flags: W
AnchorPoint: "Anchor-18" 0 0 basechar 0
AnchorPoint: "Anchor-17" 0 0 basechar 0
AnchorPoint: "Anchor-16" 269 681 basechar 0
AnchorPoint: "Anchor-15" 0 0 basechar 0
AnchorPoint: "Anchor-14" 269 0 basechar 0
LayerCount: 2
Fore
SplineSet
669 784 m 1,1,-1
 658 769 l 1,2,3
 641 781 641 781 623 787.5 c 128,-1,4
 605 794 605 794 580 794 c 0,5,6
 546 794 546 794 525.5 772 c 128,-1,7
 505 750 505 750 505 702 c 2,8,-1
 505 633 l 1,9,-1
 493 618 l 1,10,11
 457 645 457 645 424.5 657.5 c 128,-1,12
 392 670 392 670 346 670 c 0,13,14
 275 670 275 670 220 634.5 c 128,-1,15
 165 599 165 599 133 525 c 128,-1,16
 101 451 101 451 101 340 c 0,17,18
 101 235 101 235 132.5 161 c 128,-1,19
 164 87 164 87 218.5 49.5 c 128,-1,20
 273 12 273 12 342 12 c 0,21,22
 395 12 395 12 430 27 c 128,-1,23
 465 42 465 42 499 71 c 1,24,-1
 513 54 l 1,25,26
 478 24 478 24 437.5 7 c 128,-1,27
 397 -10 397 -10 342 -10 c 0,28,29
 265 -10 265 -10 205 30.5 c 128,-1,30
 145 71 145 71 111.5 150 c 128,-1,31
 78 229 78 229 78 340 c 0,32,33
 78 455 78 455 112.5 534 c 128,-1,34
 147 613 147 613 207.5 652 c 128,-1,35
 268 691 268 691 344 691 c 0,36,37
 425 691 425 691 483 648 c 1,38,-1
 483 703 l 2,39,40
 483 757 483 757 509 785.5 c 128,-1,41
 535 814 535 814 580 814 c 0,42,0
 629 814 629 814 669 784 c 1,1,-1
EndSplineSet
Substitution2: "'c2sc' Capitals to Small Capitals lookup 26 subtable" uni0188.sc
Substitution2: "'aalt' Access All Alternates lookup 0 subtable" uni0188.sc
Position2: "'cpsp' Capital Spacing lookup 0 subtable" dx=5 dy=0 dh=10 dv=0
EndChar

StartChar: uni023B
Encoding: 571 571 54
Width: 538
GlyphClass: 2
Flags: W
AnchorPoint: "Anchor-18" 327 343 basechar 0
AnchorPoint: "Anchor-17" 0 0 basechar 0
AnchorPoint: "Anchor-16" 269 681 basechar 0
AnchorPoint: "Anchor-15" 0 0 basechar 0
AnchorPoint: "Anchor-14" 269 0 basechar 0
LayerCount: 2
Fore
SplineSet
437.5 7 m 128,-1,1
 397 -10 397 -10 342 -10 c 256,2,3
 287 -10 287 -10 240 11 c 1,4,-1
 220 -66 l 1,5,-1
 203 -62 l 1,6,-1
 224 19 l 1,7,8
 155 57 155 57 116.5 139 c 128,-1,9
 78 221 78 221 78 340 c 0,10,11
 78 455 78 455 112.5 534 c 128,-1,12
 147 613 147 613 207.5 652 c 128,-1,13
 268 691 268 691 344 691 c 0,14,15
 372 691 372 691 400 686 c 1,16,-1
 413 737 l 1,17,-1
 429 732 l 1,18,-1
 416 682 l 1,19,20
 463 669 463 669 505 633 c 1,21,-1
 492 617 l 1,22,23
 449 651 449 651 411 662 c 1,24,-1
 246 33 l 1,25,26
 290 12 290 12 342 12 c 0,27,28
 395 12 395 12 430 27 c 128,-1,29
 465 42 465 42 499 71 c 1,30,-1
 513 54 l 1,31,0
 478 24 478 24 437.5 7 c 128,-1,1
135 153 m 128,-1,33
 169 77 169 77 230 41 c 1,34,-1
 394 666 l 1,35,36
 375 670 375 670 346 670 c 0,37,38
 275 670 275 670 219.5 634.5 c 128,-1,39
 164 599 164 599 132.5 525 c 128,-1,40
 101 451 101 451 101 340 c 256,41,32
 101 229 101 229 135 153 c 128,-1,33
EndSplineSet
Substitution2: "'c2sc' Capitals to Small Capitals lookup 26 subtable" uni023C.sc
Substitution2: "'aalt' Access All Alternates lookup 0 subtable" uni023C.sc
Position2: "'cpsp' Capital Spacing lookup 0 subtable" dx=5 dy=0 dh=10 dv=0
EndChar

StartChar: D
Encoding: 68 68 55
Width: 619
GlyphClass: 2
Flags: W
AnchorPoint: "Anchor-18" 315 341 basechar 0
AnchorPoint: "Anchor-17" 0 0 basechar 0
AnchorPoint: "Anchor-16" 295 681 basechar 0
AnchorPoint: "Anchor-15" 0 0 basechar 0
AnchorPoint: "Anchor-14" 303 0 basechar 0
LayerCount: 2
Fore
SplineSet
459 609.5 m 128,-1,1
 542 538 542 538 542 348 c 0,2,3
 542 154 542 154 457 77 c 128,-1,4
 372 0 372 0 249 0 c 2,5,-1
 123 0 l 1,6,-1
 123 681 l 1,7,-1
 245 681 l 2,8,0
 376 681 376 681 459 609.5 c 128,-1,1
146 660 m 1,9,-1
 146 21 l 1,10,-1
 250 21 l 2,11,12
 366 21 366 21 442 93.5 c 128,-1,13
 518 166 518 166 518 348 c 256,14,15
 518 530 518 530 442 595 c 128,-1,16
 366 660 366 660 243 660 c 2,17,-1
 146 660 l 1,9,-1
EndSplineSet
Substitution2: "'c2sc' Capitals to Small Capitals lookup 26 subtable" d.sc
Substitution2: "'aalt' Access All Alternates lookup 0 subtable" d.sc
Position2: "'cpsp' Capital Spacing lookup 0 subtable" dx=5 dy=0 dh=10 dv=0
EndChar

StartChar: Eth
Encoding: 208 208 59
Width: 617
GlyphClass: 2
Flags: W
AnchorPoint: "Anchor-18" 313 341 basechar 0
AnchorPoint: "Anchor-17" 0 0 basechar 0
AnchorPoint: "Anchor-16" 293 681 basechar 0
AnchorPoint: "Anchor-15" 0 0 basechar 0
AnchorPoint: "Anchor-14" 301 0 basechar 0
LayerCount: 2
Fore
SplineSet
457 609.5 m 128,-1,1
 540 538 540 538 540 348 c 0,2,3
 540 154 540 154 455 77 c 128,-1,4
 370 0 370 0 247 0 c 2,5,-1
 121 0 l 1,6,-1
 121 341 l 1,7,-1
 26 341 l 1,8,-1
 26 363 l 1,9,-1
 121 363 l 1,10,-1
 121 681 l 1,11,-1
 243 681 l 2,12,0
 374 681 374 681 457 609.5 c 128,-1,1
440 93.5 m 128,-1,14
 516 166 516 166 516 348 c 256,15,16
 516 530 516 530 440 595 c 128,-1,17
 364 660 364 660 241 660 c 2,18,-1
 144 660 l 1,19,-1
 144 363 l 1,20,-1
 335 363 l 1,21,-1
 335 341 l 1,22,-1
 144 341 l 1,23,-1
 144 21 l 1,24,-1
 248 21 l 2,25,13
 364 21 364 21 440 93.5 c 128,-1,14
EndSplineSet
Substitution2: "'c2sc' Capitals to Small Capitals lookup 26 subtable" eth.sc
Substitution2: "'aalt' Access All Alternates lookup 0 subtable" eth.sc
Position2: "'cpsp' Capital Spacing lookup 0 subtable" dx=5 dy=0 dh=10 dv=0
EndChar

StartChar: uni018A
Encoding: 394 394 65
Width: 662
GlyphClass: 2
Flags: W
AnchorPoint: "Anchor-18" 357 341 basechar 0
AnchorPoint: "Anchor-17" 0 0 basechar 0
AnchorPoint: "Anchor-16" 337 681 basechar 0
AnchorPoint: "Anchor-15" 0 0 basechar 0
AnchorPoint: "Anchor-14" 345 0 basechar 0
LayerCount: 2
Fore
SplineSet
501 609.5 m 128,-1,1
 584 538 584 538 584 348 c 0,2,3
 584 154 584 154 499 77 c 128,-1,4
 414 0 414 0 291 0 c 2,5,-1
 165 0 l 1,6,-1
 165 661 l 1,7,-1
 132 661 l 2,8,9
 88 661 88 661 66.5 640 c 128,-1,10
 45 619 45 619 45 584 c 0,11,12
 45 562 45 562 51.5 545 c 128,-1,13
 58 528 58 528 70 508 c 1,14,-1
 53 498 l 1,15,16
 38 521 38 521 30.5 539 c 128,-1,17
 23 557 23 557 23 584 c 0,18,19
 23 629 23 629 52 655 c 128,-1,20
 81 681 81 681 135 681 c 2,21,-1
 287 681 l 2,22,0
 418 681 418 681 501 609.5 c 128,-1,1
484 93.5 m 128,-1,24
 560 166 560 166 560 348 c 256,25,26
 560 530 560 530 484 595 c 128,-1,27
 408 660 408 660 285 660 c 2,28,-1
 188 660 l 1,29,-1
 188 21 l 1,30,-1
 292 21 l 2,31,23
 408 21 408 21 484 93.5 c 128,-1,24
EndSplineSet
Substitution2: "'c2sc' Capitals to Small Capitals lookup 26 subtable" uni0257.sc
Substitution2: "'aalt' Access All Alternates lookup 0 subtable" uni0257.sc
Position2: "'cpsp' Capital Spacing lookup 0 subtable" dx=5 dy=0 dh=10 dv=0
EndChar

StartChar: uni018B
Encoding: 395 395 67
Width: 562
GlyphClass: 2
Flags: W
AnchorPoint: "Anchor-18" 0 0 basechar 0
AnchorPoint: "Anchor-17" 0 0 basechar 0
AnchorPoint: "Anchor-16" 281 681 basechar 0
AnchorPoint: "Anchor-15" 0 0 basechar 0
AnchorPoint: "Anchor-14" 281 0 basechar 0
LayerCount: 2
Fore
SplineSet
439 0 m 1,0,-1
 275 0 l 2,1,2
 177 0 177 0 118.5 50.5 c 128,-1,3
 60 101 60 101 60 199 c 0,4,5
 60 298 60 298 120.5 351.5 c 128,-1,6
 181 405 181 405 290 405 c 2,7,-1
 416 405 l 1,8,-1
 416 660 l 1,9,-1
 125 660 l 1,10,-1
 125 681 l 1,11,-1
 439 681 l 1,12,-1
 439 0 l 1,0,-1
416 21 m 1,13,-1
 416 384 l 1,14,-1
 289 384 l 2,15,16
 191 384 191 384 137.5 337 c 128,-1,17
 84 290 84 290 84 199 c 0,18,19
 84 109 84 109 135 65 c 128,-1,20
 186 21 186 21 277 21 c 2,21,-1
 416 21 l 1,13,-1
EndSplineSet
Substitution2: "'c2sc' Capitals to Small Capitals lookup 26 subtable" uni018C.sc
Substitution2: "'aalt' Access All Alternates lookup 0 subtable" uni018C.sc
Position2: "'cpsp' Capital Spacing lookup 0 subtable" dx=5 dy=0 dh=10 dv=0
EndChar

StartChar: E
Encoding: 69 69 70
Width: 494
GlyphClass: 2
Flags: W
AnchorPoint: "Anchor-18" 0 0 basechar 0
AnchorPoint: "Anchor-17" 0 0 basechar 0
AnchorPoint: "Anchor-16" 287 681 basechar 0
AnchorPoint: "Anchor-15" 434 0 basechar 0
AnchorPoint: "Anchor-14" 283 0 basechar 0
LayerCount: 2
Fore
SplineSet
444 681 m 1,0,-1
 441 660 l 1,1,-1
 146 660 l 1,2,-1
 146 370 l 1,3,-1
 400 370 l 1,4,-1
 400 349 l 1,5,-1
 146 349 l 1,6,-1
 146 21 l 1,7,-1
 451 21 l 1,8,-1
 451 0 l 1,9,-1
 123 0 l 1,10,-1
 123 681 l 1,11,-1
 444 681 l 1,0,-1
EndSplineSet
Substitution2: "'c2sc' Capitals to Small Capitals lookup 26 subtable" e.sc
Substitution2: "'aalt' Access All Alternates lookup 0 subtable" e.sc
Position2: "'cpsp' Capital Spacing lookup 0 subtable" dx=5 dy=0 dh=10 dv=0
EndChar

StartChar: uni0228
Encoding: 552 552 74
Width: 494
GlyphClass: 2
Flags: W
AnchorPoint: "Anchor-18" 0 0 basechar 0
AnchorPoint: "Anchor-17" 0 0 basechar 0
AnchorPoint: "Anchor-16" 287 681 basechar 0
AnchorPoint: "Anchor-15" 434 0 basechar 0
AnchorPoint: "Anchor-14" 283 0 basechar 0
LayerCount: 2
Fore
SplineSet
285 0 m 1,0,-1
 284 -74 l 1,1,2
 375 -79 375 -79 375 -140 c 0,3,4
 375 -174 375 -174 350.5 -193 c 128,-1,5
 326 -212 326 -212 291 -212 c 0,6,7
 254 -212 254 -212 223 -194 c 1,8,-1
 233 -177 l 1,9,10
 256 -192 256 -192 291 -192 c 0,11,12
 317 -192 317 -192 334.5 -179 c 128,-1,13
 352 -166 352 -166 352 -140 c 0,14,15
 352 -115 352 -115 330.5 -103 c 128,-1,16
 309 -91 309 -91 263 -90 c 1,17,-1
 268 0 l 1,18,-1
 123 0 l 1,19,-1
 123 681 l 1,20,-1
 444 681 l 1,21,-1
 441 660 l 1,22,-1
 146 660 l 1,23,-1
 146 370 l 1,24,-1
 400 370 l 1,25,-1
 400 349 l 1,26,-1
 146 349 l 1,27,-1
 146 21 l 1,28,-1
 451 21 l 1,29,-1
 451 0 l 1,30,-1
 285 0 l 1,0,-1
EndSplineSet
Substitution2: "'c2sc' Capitals to Small Capitals lookup 26 subtable" uni0229.sc
Substitution2: "'aalt' Access All Alternates lookup 0 subtable" uni0229.sc
Position2: "'cpsp' Capital Spacing lookup 0 subtable" dx=5 dy=0 dh=10 dv=0
EndChar

StartChar: Eogonek
Encoding: 280 280 89
Width: 494
GlyphClass: 2
Flags: W
AnchorPoint: "Anchor-18" 0 0 basechar 0
AnchorPoint: "Anchor-17" 0 0 basechar 0
AnchorPoint: "Anchor-16" 287 681 basechar 0
AnchorPoint: "Anchor-15" 434 0 basechar 0
AnchorPoint: "Anchor-14" 283 0 basechar 0
LayerCount: 2
Fore
SplineSet
451 21 m 1,0,-1
 451 0 l 1,1,-1
 424 0 l 1,2,3
 362 -27 362 -27 330.5 -54 c 128,-1,4
 299 -81 299 -81 299 -122 c 0,5,6
 299 -150 299 -150 317 -165.5 c 128,-1,7
 335 -181 335 -181 369 -181 c 0,8,9
 395 -181 395 -181 424 -174 c 1,10,-1
 422 -196 l 1,11,12
 394 -203 394 -203 368 -203 c 0,13,14
 322 -203 322 -203 298.5 -181 c 128,-1,15
 275 -159 275 -159 275 -123 c 0,16,17
 275 -84 275 -84 303.5 -54.5 c 128,-1,18
 332 -25 332 -25 386 0 c 1,19,-1
 123 0 l 1,20,-1
 123 681 l 1,21,-1
 444 681 l 1,22,-1
 441 660 l 1,23,-1
 146 660 l 1,24,-1
 146 370 l 1,25,-1
 400 370 l 1,26,-1
 400 349 l 1,27,-1
 146 349 l 1,28,-1
 146 21 l 1,29,-1
 451 21 l 1,0,-1
EndSplineSet
Substitution2: "'c2sc' Capitals to Small Capitals lookup 26 subtable" eogonek.sc
Substitution2: "'aalt' Access All Alternates lookup 0 subtable" eogonek.sc
Position2: "'cpsp' Capital Spacing lookup 0 subtable" dx=5 dy=0 dh=10 dv=0
EndChar

StartChar: uni0190
Encoding: 400 400 90
Width: 516
GlyphClass: 2
Flags: W
AnchorPoint: "Anchor-18" 0 0 basechar 0
AnchorPoint: "Anchor-17" 0 0 basechar 0
AnchorPoint: "Anchor-16" 258 681 basechar 0
AnchorPoint: "Anchor-15" 0 0 basechar 0
AnchorPoint: "Anchor-14" 258 0 basechar 0
LayerCount: 2
Fore
SplineSet
372 670.5 m 128,-1,1
 418 650 418 650 461 608 c 1,2,-1
 446 593 l 1,3,4
 407 631 407 631 364.5 650.5 c 128,-1,5
 322 670 322 670 269 670 c 0,6,7
 194 670 194 670 150 631 c 128,-1,8
 106 592 106 592 106 528 c 0,9,10
 106 457 106 457 153 418.5 c 128,-1,11
 200 380 200 380 277 380 c 2,12,-1
 332 380 l 1,13,-1
 329 359 l 1,14,-1
 273 360 l 2,15,16
 184 361 184 361 134.5 317 c 128,-1,17
 85 273 85 273 85 194 c 0,18,19
 85 109 85 109 138 60.5 c 128,-1,20
 191 12 191 12 277 12 c 0,21,22
 335 12 335 12 381 33.5 c 128,-1,23
 427 55 427 55 467 96 c 1,24,-1
 483 83 l 1,25,26
 438 36 438 36 387.5 13 c 128,-1,27
 337 -10 337 -10 277 -10 c 0,28,29
 214 -10 214 -10 165 14.5 c 128,-1,30
 116 39 116 39 88.5 85.5 c 128,-1,31
 61 132 61 132 61 195 c 0,32,33
 61 274 61 274 105.5 319.5 c 128,-1,34
 150 365 150 365 220 371 c 1,35,36
 159 381 159 381 121 420 c 128,-1,37
 83 459 83 459 83 527 c 0,38,39
 83 601 83 601 132.5 646 c 128,-1,40
 182 691 182 691 268 691 c 0,41,0
 326 691 326 691 372 670.5 c 128,-1,1
EndSplineSet
Substitution2: "'c2sc' Capitals to Small Capitals lookup 26 subtable" uni025B.sc
Substitution2: "'aalt' Access All Alternates lookup 0 subtable" uni025B.sc
Position2: "'cpsp' Capital Spacing lookup 0 subtable" dx=5 dy=0 dh=10 dv=0
EndChar

StartChar: uni018E
Encoding: 398 398 91
Width: 494
GlyphClass: 2
Flags: W
AnchorPoint: "Anchor-18" 0 0 basechar 0
AnchorPoint: "Anchor-17" 0 0 basechar 0
AnchorPoint: "Anchor-16" 198 681 basechar 0
AnchorPoint: "Anchor-15" 0 0 basechar 0
AnchorPoint: "Anchor-14" 196 0 basechar 0
LayerCount: 2
Fore
SplineSet
50 681 m 1,0,-1
 371 681 l 1,1,-1
 371 0 l 1,2,-1
 43 0 l 1,3,-1
 43 21 l 1,4,-1
 348 21 l 1,5,-1
 348 349 l 1,6,-1
 94 349 l 1,7,-1
 94 370 l 1,8,-1
 348 370 l 1,9,-1
 348 660 l 1,10,-1
 50 660 l 1,11,-1
 50 681 l 1,0,-1
EndSplineSet
Substitution2: "'c2sc' Capitals to Small Capitals lookup 26 subtable" uni0258.sc
Substitution2: "'aalt' Access All Alternates lookup 0 subtable" uni0258.sc
Position2: "'cpsp' Capital Spacing lookup 0 subtable" dx=5 dy=0 dh=10 dv=0
EndChar

StartChar: uni0246
Encoding: 582 582 93
Width: 494
GlyphClass: 2
Flags: W
AnchorPoint: "Anchor-18" 0 0 basechar 0
AnchorPoint: "Anchor-17" 0 0 basechar 0
AnchorPoint: "Anchor-16" 261 681 basechar 0
AnchorPoint: "Anchor-15" 434 0 basechar 0
AnchorPoint: "Anchor-14" 261 0 basechar 0
LayerCount: 2
Fore
SplineSet
451 21 m 1,0,-1
 451 0 l 1,1,-1
 207 0 l 1,2,-1
 190 -66 l 1,3,-1
 173 -62 l 1,4,-1
 189 0 l 1,5,-1
 123 0 l 1,6,-1
 123 681 l 1,7,-1
 368 681 l 1,8,-1
 383 737 l 1,9,-1
 399 732 l 1,10,-1
 386 681 l 1,11,-1
 444 681 l 1,12,-1
 441 660 l 1,13,-1
 380 660 l 1,14,-1
 304 370 l 1,15,-1
 400 370 l 1,16,-1
 400 349 l 1,17,-1
 299 349 l 1,18,-1
 213 21 l 1,19,-1
 451 21 l 1,0,-1
146 660 m 1,20,-1
 146 370 l 1,21,-1
 287 370 l 1,22,-1
 363 660 l 1,23,-1
 146 660 l 1,20,-1
146 21 m 1,24,-1
 195 21 l 1,25,-1
 281 349 l 1,26,-1
 146 349 l 1,27,-1
 146 21 l 1,24,-1
EndSplineSet
Substitution2: "'c2sc' Capitals to Small Capitals lookup 26 subtable" uni0247.sc
Substitution2: "'aalt' Access All Alternates lookup 0 subtable" uni0247.sc
Position2: "'cpsp' Capital Spacing lookup 0 subtable" dx=5 dy=0 dh=10 dv=0
EndChar

StartChar: uni01B7
Encoding: 439 439 95
Width: 472
GlyphClass: 2
Flags: W
AnchorPoint: "Anchor-18" 0 0 basechar 0
AnchorPoint: "Anchor-17" 0 0 basechar 0
AnchorPoint: "Anchor-16" 217 681 basechar 0
AnchorPoint: "Anchor-15" 0 0 basechar 0
AnchorPoint: "Anchor-14" 236 0 basechar 0
LayerCount: 2
Fore
SplineSet
367 324 m 128,-1,1
 422 275 422 275 422 182 c 0,2,3
 422 97 422 97 367.5 43.5 c 128,-1,4
 313 -10 313 -10 216 -10 c 0,5,6
 152 -10 152 -10 106.5 10.5 c 128,-1,7
 61 31 61 31 23 72 c 1,8,-1
 38 85 l 1,9,10
 74 47 74 47 116 29.5 c 128,-1,11
 158 12 158 12 216 12 c 0,12,13
 304 12 304 12 351 58.5 c 128,-1,14
 398 105 398 105 398 181 c 0,15,16
 398 268 398 268 348.5 310 c 128,-1,17
 299 352 299 352 207 352 c 2,18,-1
 129 352 l 1,19,-1
 129 373 l 1,20,-1
 367 661 l 1,21,-1
 37 661 l 1,22,-1
 37 681 l 1,23,-1
 396 681 l 1,24,-1
 396 662 l 1,25,-1
 155 373 l 1,26,-1
 207 373 l 2,27,0
 312 373 312 373 367 324 c 128,-1,1
EndSplineSet
Substitution2: "'c2sc' Capitals to Small Capitals lookup 26 subtable" uni0292.sc
Substitution2: "'aalt' Access All Alternates lookup 0 subtable" uni0292.sc
Position2: "'cpsp' Capital Spacing lookup 0 subtable" dx=5 dy=0 dh=10 dv=0
EndChar

StartChar: uni01B8
Encoding: 440 440 97
Width: 472
GlyphClass: 2
Flags: W
AnchorPoint: "Anchor-18" 0 0 basechar 0
AnchorPoint: "Anchor-17" 0 0 basechar 0
AnchorPoint: "Anchor-16" 236 681 basechar 0
AnchorPoint: "Anchor-15" 0 0 basechar 0
AnchorPoint: "Anchor-14" 236 0 basechar 0
LayerCount: 2
Fore
SplineSet
449 72 m 1,0,1
 409 30 409 30 362.5 10 c 128,-1,2
 316 -10 316 -10 246 -10 c 0,3,4
 157 -10 157 -10 103.5 41 c 128,-1,5
 50 92 50 92 50 177 c 0,6,7
 50 269 50 269 106 321 c 128,-1,8
 162 373 162 373 266 373 c 2,9,-1
 317 373 l 1,10,-1
 76 662 l 1,11,-1
 76 681 l 1,12,-1
 435 681 l 1,13,-1
 435 661 l 1,14,-1
 106 661 l 1,15,-1
 343 374 l 1,16,-1
 343 352 l 1,17,-1
 265 352 l 2,18,19
 173 352 173 352 123 307.5 c 128,-1,20
 73 263 73 263 73 176 c 0,21,22
 73 100 73 100 119.5 56 c 128,-1,23
 166 12 166 12 247 12 c 0,24,25
 311 12 311 12 353.5 29 c 128,-1,26
 396 46 396 46 434 85 c 1,27,-1
 449 72 l 1,0,1
EndSplineSet
Substitution2: "'c2sc' Capitals to Small Capitals lookup 26 subtable" uni01B9.sc
Substitution2: "'aalt' Access All Alternates lookup 0 subtable" uni01B9.sc
Position2: "'cpsp' Capital Spacing lookup 0 subtable" dx=5 dy=0 dh=10 dv=0
EndChar

StartChar: F
Encoding: 70 70 98
Width: 471
GlyphClass: 2
Flags: W
AnchorPoint: "Anchor-18" 0 0 basechar 0
AnchorPoint: "Anchor-17" 0 0 basechar 0
AnchorPoint: "Anchor-16" 291 681 basechar 0
AnchorPoint: "Anchor-15" 0 0 basechar 0
AnchorPoint: "Anchor-14" 135 0 basechar 0
LayerCount: 2
Fore
SplineSet
123 0 m 1,0,-1
 123 681 l 1,1,-1
 439 681 l 1,2,-1
 436 660 l 1,3,-1
 146 660 l 1,4,-1
 146 356 l 1,5,-1
 396 356 l 1,6,-1
 396 335 l 1,7,-1
 146 335 l 1,8,-1
 146 0 l 1,9,-1
 123 0 l 1,0,-1
EndSplineSet
Substitution2: "'c2sc' Capitals to Small Capitals lookup 26 subtable" f.sc
Substitution2: "'aalt' Access All Alternates lookup 0 subtable" f.sc
Position2: "'cpsp' Capital Spacing lookup 0 subtable" dx=5 dy=0 dh=10 dv=0
EndChar

StartChar: uni0191
Encoding: 401 401 100
Width: 471
GlyphClass: 2
Flags: W
AnchorPoint: "Anchor-18" 0 0 basechar 0
AnchorPoint: "Anchor-17" 0 0 basechar 0
AnchorPoint: "Anchor-16" 291 681 basechar 0
AnchorPoint: "Anchor-15" 0 0 basechar 0
AnchorPoint: "Anchor-14" 135 0 basechar 0
LayerCount: 2
Fore
SplineSet
146 660 m 1,0,-1
 146 356 l 1,1,-1
 396 356 l 1,2,-1
 396 335 l 1,3,-1
 146 335 l 1,4,-1
 146 -86 l 2,5,6
 146 -140 146 -140 119 -168.5 c 128,-1,7
 92 -197 92 -197 48 -197 c 0,8,9
 0 -197 0 -197 -40 -167 c 1,10,-1
 -29 -151 l 1,11,12
 -13 -163 -13 -163 5 -169.5 c 128,-1,13
 23 -176 23 -176 48 -176 c 0,14,15
 82 -176 82 -176 102.5 -154 c 128,-1,16
 123 -132 123 -132 123 -85 c 2,17,-1
 123 681 l 1,18,-1
 439 681 l 1,19,-1
 436 660 l 1,20,-1
 146 660 l 1,0,-1
EndSplineSet
Substitution2: "'c2sc' Capitals to Small Capitals lookup 26 subtable" uni0191.sc
Substitution2: "'aalt' Access All Alternates lookup 0 subtable" uni0191.sc
Position2: "'cpsp' Capital Spacing lookup 0 subtable" dx=5 dy=0 dh=10 dv=0
EndChar

StartChar: G
Encoding: 71 71 101
Width: 605
GlyphClass: 2
Flags: W
AnchorPoint: "Anchor-18" 0 0 basechar 0
AnchorPoint: "Anchor-17" 0 0 basechar 0
AnchorPoint: "Anchor-16" 346 681 basechar 0
AnchorPoint: "Anchor-15" 0 0 basechar 0
AnchorPoint: "Anchor-14" 337 0 basechar 0
LayerCount: 2
Fore
SplineSet
438 677 m 128,-1,1
 477 663 477 663 516 632 c 1,2,-1
 503 616 l 1,3,4
 467 644 467 644 430 657 c 128,-1,5
 393 670 393 670 348 670 c 0,6,7
 284 670 284 670 228 635.5 c 128,-1,8
 172 601 172 601 136.5 528 c 128,-1,9
 101 455 101 455 101 345 c 0,10,11
 101 182 101 182 168.5 97 c 128,-1,12
 236 12 236 12 353 12 c 0,13,14
 439 12 439 12 510 53 c 1,15,-1
 510 333 l 1,16,-1
 365 333 l 1,17,-1
 362 354 l 1,18,-1
 533 354 l 1,19,-1
 533 41 l 1,20,21
 446 -10 446 -10 353 -10 c 0,22,23
 270 -10 270 -10 208 30 c 128,-1,24
 146 70 146 70 112 150 c 128,-1,25
 78 230 78 230 78 345 c 0,26,27
 78 458 78 458 116.5 536 c 128,-1,28
 155 614 155 614 216.5 652.5 c 128,-1,29
 278 691 278 691 348 691 c 0,30,0
 399 691 399 691 438 677 c 128,-1,1
EndSplineSet
Substitution2: "'c2sc' Capitals to Small Capitals lookup 26 subtable" g.sc
Substitution2: "'aalt' Access All Alternates lookup 0 subtable" g.sc
Position2: "'cpsp' Capital Spacing lookup 0 subtable" dx=5 dy=0 dh=10 dv=0
EndChar

StartChar: uni0194
Encoding: 404 404 103
Width: 534
GlyphClass: 2
Flags: W
AnchorPoint: "Anchor-18" 0 0 basechar 0
AnchorPoint: "Anchor-17" 0 0 basechar 0
AnchorPoint: "Anchor-16" 267 681 basechar 0
AnchorPoint: "Anchor-15" 0 0 basechar 0
AnchorPoint: "Anchor-14" 267 -192 basechar 0
LayerCount: 2
Fore
SplineSet
281 54 m 1,0,1
 288 38 288 38 289 34 c 0,2,3
 317 -31 317 -31 327.5 -62 c 128,-1,4
 338 -93 338 -93 338 -123 c 0,5,6
 338 -155 338 -155 319.5 -176 c 128,-1,7
 301 -197 301 -197 268 -197 c 256,8,9
 235 -197 235 -197 216 -176.5 c 128,-1,10
 197 -156 197 -156 197 -123 c 0,11,12
 197 -95 197 -95 207.5 -64 c 128,-1,13
 218 -33 218 -33 243 27 c 0,14,15
 246 36 246 36 254 54 c 1,16,-1
 28 681 l 1,17,-1
 52 681 l 1,18,-1
 268 71 l 1,19,-1
 482 681 l 1,20,-1
 506 681 l 1,21,-1
 281 54 l 1,0,1
307.5 -68.5 m 128,-1,23
 299 -41 299 -41 276 17 c 0,24,25
 273 22 273 22 271.5 27.5 c 128,-1,26
 270 33 270 33 268 37 c 1,27,-1
 259 14 l 2,28,29
 238 -39 238 -39 229 -67 c 128,-1,30
 220 -95 220 -95 220 -122 c 0,31,32
 220 -148 220 -148 232 -162.5 c 128,-1,33
 244 -177 244 -177 268 -177 c 0,34,35
 291 -177 291 -177 303.5 -162 c 128,-1,36
 316 -147 316 -147 316 -122 c 0,37,22
 316 -96 316 -96 307.5 -68.5 c 128,-1,23
EndSplineSet
Substitution2: "'c2sc' Capitals to Small Capitals lookup 26 subtable" uni0194.sc
Substitution2: "'aalt' Access All Alternates lookup 0 subtable" uni0194.sc
Position2: "'cpsp' Capital Spacing lookup 0 subtable" dx=5 dy=0 dh=10 dv=0
EndChar

StartChar: uni0193
Encoding: 403 403 109
Width: 550
GlyphClass: 2
Flags: W
AnchorPoint: "Anchor-18" 0 0 basechar 0
AnchorPoint: "Anchor-17" 0 0 basechar 0
AnchorPoint: "Anchor-16" 275 681 basechar 0
AnchorPoint: "Anchor-15" 0 0 basechar 0
AnchorPoint: "Anchor-14" 275 0 basechar 0
LayerCount: 2
Fore
SplineSet
680 784 m 1,1,-1
 669 769 l 1,2,3
 653 781 653 781 635 787.5 c 128,-1,4
 617 794 617 794 592 794 c 0,5,6
 557 794 557 794 536.5 772 c 128,-1,7
 516 750 516 750 516 702 c 2,8,-1
 516 632 l 1,9,-1
 505 619 l 1,10,11
 468 646 468 646 430.5 658 c 128,-1,12
 393 670 393 670 347 670 c 0,13,14
 284 670 284 670 228 635.5 c 128,-1,15
 172 601 172 601 136.5 527.5 c 128,-1,16
 101 454 101 454 101 345 c 0,17,18
 101 182 101 182 168.5 97 c 128,-1,19
 236 12 236 12 353 12 c 0,20,21
 401 12 401 12 438 22.5 c 128,-1,22
 475 33 475 33 510 53 c 1,23,-1
 510 333 l 1,24,-1
 365 333 l 1,25,-1
 362 354 l 1,26,-1
 533 354 l 1,27,-1
 533 41 l 1,28,29
 446 -10 446 -10 353 -10 c 0,30,31
 270 -10 270 -10 208 30 c 128,-1,32
 146 70 146 70 112 150 c 128,-1,33
 78 230 78 230 78 345 c 0,34,35
 78 458 78 458 116.5 536 c 128,-1,36
 155 614 155 614 216.5 652.5 c 128,-1,37
 278 691 278 691 347 691 c 0,38,39
 391 691 391 691 426 680.5 c 128,-1,40
 461 670 461 670 494 648 c 1,41,-1
 494 703 l 2,42,43
 494 757 494 757 520.5 785.5 c 128,-1,44
 547 814 547 814 592 814 c 0,45,0
 642 814 642 814 680 784 c 1,1,-1
EndSplineSet
Substitution2: "'c2sc' Capitals to Small Capitals lookup 26 subtable" uni0260.sc
Substitution2: "'aalt' Access All Alternates lookup 0 subtable" uni0260.sc
Position2: "'cpsp' Capital Spacing lookup 0 subtable" dx=5 dy=0 dh=10 dv=0
EndChar

StartChar: uni0241
Encoding: 577 577 110
Width: 453
GlyphClass: 2
Flags: W
AnchorPoint: "Anchor-18" 0 0 basechar 0
AnchorPoint: "Anchor-17" 0 0 basechar 0
AnchorPoint: "Anchor-16" 227 681 basechar 0
AnchorPoint: "Anchor-15" 0 0 basechar 0
AnchorPoint: "Anchor-14" 178 0 basechar 0
LayerCount: 2
Fore
SplineSet
166 289 m 1,0,-1
 237 307 l 2,1,2
 312 326 312 326 351 367.5 c 128,-1,3
 390 409 390 409 390 493 c 0,4,5
 390 572 390 572 344 621 c 128,-1,6
 298 670 298 670 217 670 c 0,7,8
 165 670 165 670 122 650 c 128,-1,9
 79 630 79 630 38 593 c 1,10,-1
 23 608 l 1,11,12
 67 649 67 649 113.5 670 c 128,-1,13
 160 691 160 691 217 691 c 0,14,15
 308 691 308 691 360.5 635.5 c 128,-1,16
 413 580 413 580 413 493 c 0,17,18
 413 397 413 397 367 351 c 128,-1,19
 321 305 321 305 238 285 c 2,20,-1
 189 273 l 1,21,-1
 189 0 l 1,22,-1
 166 0 l 1,23,-1
 166 289 l 1,0,-1
EndSplineSet
Substitution2: "'c2sc' Capitals to Small Capitals lookup 26 subtable" uni0294.sc
Substitution2: "'aalt' Access All Alternates lookup 0 subtable" uni0294.sc
Position2: "'cpsp' Capital Spacing lookup 0 subtable" dx=5 dy=0 dh=10 dv=0
EndChar

StartChar: uni01E4
Encoding: 484 484 111
Width: 620
GlyphClass: 2
Flags: W
AnchorPoint: "Anchor-18" 0 0 basechar 0
AnchorPoint: "Anchor-17" 0 0 basechar 0
AnchorPoint: "Anchor-16" 310 681 basechar 0
AnchorPoint: "Anchor-15" 0 0 basechar 0
AnchorPoint: "Anchor-14" 310 0 basechar 0
LayerCount: 2
Fore
SplineSet
608 212 m 1,0,-1
 533 212 l 1,1,-1
 533 41 l 1,2,3
 446 -10 446 -10 353 -10 c 0,4,5
 270 -10 270 -10 208 30 c 128,-1,6
 146 70 146 70 112 150 c 128,-1,7
 78 230 78 230 78 345 c 0,8,9
 78 458 78 458 116.5 536 c 128,-1,10
 155 614 155 614 216.5 652.5 c 128,-1,11
 278 691 278 691 347 691 c 0,12,13
 398 691 398 691 437.5 677 c 128,-1,14
 477 663 477 663 516 632 c 1,15,-1
 503 617 l 1,16,17
 466 644 466 644 429.5 657 c 128,-1,18
 393 670 393 670 347 670 c 0,19,20
 284 670 284 670 228 635.5 c 128,-1,21
 172 601 172 601 136.5 527.5 c 128,-1,22
 101 454 101 454 101 345 c 0,23,24
 101 182 101 182 168.5 97 c 128,-1,25
 236 12 236 12 353 12 c 0,26,27
 439 12 439 12 510 53 c 1,28,-1
 510 212 l 1,29,-1
 365 212 l 1,30,-1
 365 233 l 1,31,-1
 510 233 l 1,32,-1
 510 333 l 1,33,-1
 365 333 l 1,34,-1
 362 354 l 1,35,-1
 533 354 l 1,36,-1
 533 233 l 1,37,-1
 608 233 l 1,38,-1
 608 212 l 1,0,-1
EndSplineSet
Substitution2: "'c2sc' Capitals to Small Capitals lookup 26 subtable" uni01E5.sc
Substitution2: "'aalt' Access All Alternates lookup 0 subtable" uni01E5.sc
Position2: "'cpsp' Capital Spacing lookup 0 subtable" dx=5 dy=0 dh=10 dv=0
EndChar

StartChar: uni021C
Encoding: 540 540 112
Width: 493
GlyphClass: 2
Flags: W
AnchorPoint: "Anchor-18" 0 0 basechar 0
AnchorPoint: "Anchor-17" 0 0 basechar 0
AnchorPoint: "Anchor-16" 247 681 basechar 0
AnchorPoint: "Anchor-15" 0 0 basechar 0
AnchorPoint: "Anchor-14" 247 -192 basechar 0
LayerCount: 2
Fore
SplineSet
362.5 644.5 m 128,-1,1
 411 598 411 598 411 520 c 0,2,3
 411 450 411 450 373 410.5 c 128,-1,4
 335 371 335 371 273 361 c 1,5,6
 344 354 344 354 388 314 c 128,-1,7
 432 274 432 274 432 204 c 256,8,9
 432 134 432 134 397.5 82.5 c 128,-1,10
 363 31 363 31 283 -9 c 128,-1,11
 203 -49 203 -49 67 -80 c 1,12,-1
 65 -58 l 1,13,14
 193 -29 193 -29 268.5 8 c 128,-1,15
 344 45 344 45 376.5 92.5 c 128,-1,16
 409 140 409 140 409 204 c 0,17,18
 409 273 409 273 359.5 312 c 128,-1,19
 310 351 310 351 221 350 c 2,20,-1
 162 349 l 1,21,-1
 165 370 l 1,22,-1
 216 370 l 2,23,24
 293 370 293 370 340 409 c 128,-1,25
 387 448 387 448 387 521 c 0,26,27
 387 590 387 590 345 630 c 128,-1,28
 303 670 303 670 229 670 c 0,29,30
 176 670 176 670 132.5 650.5 c 128,-1,31
 89 631 89 631 46 593 c 1,32,-1
 33 608 l 1,33,34
 78 650 78 650 124.5 670.5 c 128,-1,35
 171 691 171 691 229 691 c 0,36,0
 314 691 314 691 362.5 644.5 c 128,-1,1
EndSplineSet
Substitution2: "'c2sc' Capitals to Small Capitals lookup 26 subtable" uni021D.sc
Substitution2: "'aalt' Access All Alternates lookup 0 subtable" uni021D.sc
Position2: "'cpsp' Capital Spacing lookup 0 subtable" dx=5 dy=0 dh=10 dv=0
EndChar

StartChar: H
Encoding: 72 72 113
Width: 660
GlyphClass: 2
Flags: W
AnchorPoint: "Anchor-18" 328 341 basechar 0
AnchorPoint: "Anchor-17" 0 0 basechar 0
AnchorPoint: "Anchor-16" 328 681 basechar 0
AnchorPoint: "Anchor-15" 0 0 basechar 0
AnchorPoint: "Anchor-14" 330 0 basechar 0
LayerCount: 2
Fore
SplineSet
514 0 m 1,0,-1
 514 349 l 1,1,-1
 146 349 l 1,2,-1
 146 0 l 1,3,-1
 123 0 l 1,4,-1
 123 681 l 1,5,-1
 146 681 l 1,6,-1
 146 371 l 1,7,-1
 514 371 l 1,8,-1
 514 681 l 1,9,-1
 537 681 l 1,10,-1
 537 0 l 1,11,-1
 514 0 l 1,0,-1
EndSplineSet
Substitution2: "'c2sc' Capitals to Small Capitals lookup 26 subtable" h.sc
Substitution2: "'aalt' Access All Alternates lookup 0 subtable" h.sc
Position2: "'cpsp' Capital Spacing lookup 0 subtable" dx=5 dy=0 dh=10 dv=0
EndChar

StartChar: Hbar
Encoding: 294 294 114
Width: 664
GlyphClass: 2
Flags: W
AnchorPoint: "Anchor-18" 330 341 basechar 0
AnchorPoint: "Anchor-17" 0 0 basechar 0
AnchorPoint: "Anchor-16" 330 681 basechar 0
AnchorPoint: "Anchor-15" 0 0 basechar 0
AnchorPoint: "Anchor-14" 332 0 basechar 0
LayerCount: 2
Fore
SplineSet
599 538 m 1,0,-1
 599 520 l 1,1,-1
 539 520 l 1,2,-1
 539 0 l 1,3,-1
 516 0 l 1,4,-1
 516 349 l 1,5,-1
 148 349 l 1,6,-1
 148 0 l 1,7,-1
 125 0 l 1,8,-1
 125 520 l 1,9,-1
 65 520 l 1,10,-1
 65 538 l 1,11,-1
 125 538 l 1,12,-1
 125 681 l 1,13,-1
 148 681 l 1,14,-1
 148 538 l 1,15,-1
 516 538 l 1,16,-1
 516 681 l 1,17,-1
 539 681 l 1,18,-1
 539 538 l 1,19,-1
 599 538 l 1,0,-1
516 371 m 1,20,-1
 516 520 l 1,21,-1
 148 520 l 1,22,-1
 148 371 l 1,23,-1
 516 371 l 1,20,-1
EndSplineSet
Substitution2: "'c2sc' Capitals to Small Capitals lookup 26 subtable" hbar.sc
Substitution2: "'aalt' Access All Alternates lookup 0 subtable" hbar.sc
Position2: "'cpsp' Capital Spacing lookup 0 subtable" dx=5 dy=0 dh=10 dv=0
EndChar

StartChar: uniA7AA
Encoding: 42922 42922 118
Width: 703
GlyphClass: 2
Flags: W
AnchorPoint: "Anchor-18" 371 341 basechar 0
AnchorPoint: "Anchor-17" 0 0 basechar 0
AnchorPoint: "Anchor-16" 371 681 basechar 0
AnchorPoint: "Anchor-15" 0 0 basechar 0
AnchorPoint: "Anchor-14" 373 0 basechar 0
LayerCount: 2
Fore
SplineSet
580 681 m 1,0,-1
 580 0 l 1,1,-1
 557 0 l 1,2,-1
 557 349 l 1,3,-1
 189 349 l 1,4,-1
 189 0 l 1,5,-1
 166 0 l 1,6,-1
 166 661 l 1,7,-1
 132 661 l 2,8,9
 88 661 88 661 66.5 640 c 128,-1,10
 45 619 45 619 45 584 c 0,11,12
 45 562 45 562 51.5 545 c 128,-1,13
 58 528 58 528 70 508 c 1,14,-1
 53 498 l 1,15,16
 38 521 38 521 30.5 539 c 128,-1,17
 23 557 23 557 23 584 c 0,18,19
 23 629 23 629 52 655 c 128,-1,20
 81 681 81 681 135 681 c 2,21,-1
 189 681 l 1,22,-1
 189 371 l 1,23,-1
 557 371 l 1,24,-1
 557 681 l 1,25,-1
 580 681 l 1,0,-1
EndSplineSet
Substitution2: "'c2sc' Capitals to Small Capitals lookup 26 subtable" uniA7AA.sc
Substitution2: "'aalt' Access All Alternates lookup 0 subtable" uniA7AA.sc
Position2: "'cpsp' Capital Spacing lookup 0 subtable" dx=5 dy=0 dh=10 dv=0
EndChar

StartChar: uniA78D.ss02
Encoding: 65539 -1 120
Width: 570
GlyphClass: 2
Flags: W
AnchorPoint: "Anchor-18" 0 0 basechar 0
AnchorPoint: "Anchor-17" 0 0 basechar 0
AnchorPoint: "Anchor-16" 285 681 basechar 0
AnchorPoint: "Anchor-15" 0 0 basechar 0
AnchorPoint: "Anchor-14" 285 0 basechar 0
LayerCount: 2
Fore
SplineSet
424 0 m 1,0,-1
 424 272 l 1,1,-1
 63 272 l 1,2,-1
 63 681 l 1,3,-1
 86 681 l 1,4,-1
 86 293 l 1,5,-1
 424 293 l 1,6,-1
 424 681 l 1,7,-1
 447 681 l 1,8,-1
 447 0 l 1,9,-1
 424 0 l 1,0,-1
EndSplineSet
Position2: "'cpsp' Capital Spacing lookup 0 subtable" dx=5 dy=0 dh=10 dv=0
EndChar

StartChar: uni01F6
Encoding: 502 502 121
Width: 959
GlyphClass: 2
Flags: W
AnchorPoint: "Anchor-18" 0 0 basechar 0
AnchorPoint: "Anchor-17" 0 0 basechar 0
AnchorPoint: "Anchor-16" 479 681 basechar 0
AnchorPoint: "Anchor-15" 0 0 basechar 0
AnchorPoint: "Anchor-14" 479 0 basechar 0
LayerCount: 2
Fore
SplineSet
859 388 m 128,-1,1
 866 328 866 328 866 266 c 0,2,3
 866 128 866 128 812 59 c 128,-1,4
 758 -10 758 -10 672 -10 c 0,5,6
 602 -10 602 -10 558 32.5 c 128,-1,7
 514 75 514 75 514 155 c 2,8,-1
 514 349 l 1,9,-1
 146 349 l 1,10,-1
 146 0 l 1,11,-1
 123 0 l 1,12,-1
 123 681 l 1,13,-1
 146 681 l 1,14,-1
 146 371 l 1,15,-1
 514 371 l 1,16,-1
 514 681 l 1,17,-1
 537 681 l 1,18,-1
 537 156 l 2,19,20
 537 84 537 84 574.5 47.5 c 128,-1,21
 612 11 612 11 672 11 c 0,22,23
 746 11 746 11 794.5 72 c 128,-1,24
 843 133 843 133 843 266 c 0,25,26
 843 371 843 371 817 519 c 1,27,-1
 839 519 l 1,28,0
 852 448 852 448 859 388 c 128,-1,1
EndSplineSet
Substitution2: "'c2sc' Capitals to Small Capitals lookup 26 subtable" uni01F6.sc
Substitution2: "'aalt' Access All Alternates lookup 0 subtable" uni01F6.sc
Position2: "'cpsp' Capital Spacing lookup 0 subtable" dx=5 dy=0 dh=10 dv=0
EndChar

StartChar: I
Encoding: 73 73 122
Width: 268
GlyphClass: 2
Flags: W
AnchorPoint: "Anchor-18" 0 0 basechar 0
AnchorPoint: "Anchor-17" 0 0 basechar 0
AnchorPoint: "Anchor-16" 134 681 basechar 0
AnchorPoint: "Anchor-15" 156 0 basechar 0
AnchorPoint: "Anchor-14" 135 0 basechar 0
LayerCount: 2
Fore
SplineSet
146 681 m 1,0,-1
 146 0 l 1,1,-1
 123 0 l 1,2,-1
 123 681 l 1,3,-1
 146 681 l 1,0,-1
EndSplineSet
Substitution2: "'c2sc' Capitals to Small Capitals lookup 26 subtable" i.sc
Substitution2: "'aalt' Access All Alternates lookup 0 subtable" i.sc
Position2: "'cpsp' Capital Spacing lookup 0 subtable" dx=5 dy=0 dh=10 dv=0
EndChar

StartChar: Iogonek
Encoding: 302 302 137
Width: 268
GlyphClass: 2
Flags: W
AnchorPoint: "Anchor-18" 0 0 basechar 0
AnchorPoint: "Anchor-17" 0 0 basechar 0
AnchorPoint: "Anchor-16" 134 681 basechar 0
AnchorPoint: "Anchor-15" 156 0 basechar 0
AnchorPoint: "Anchor-14" 135 0 basechar 0
LayerCount: 2
Fore
SplineSet
52.5 -54 m 128,-1,1
 21 -81 21 -81 21 -122 c 0,2,3
 21 -150 21 -150 39 -165.5 c 128,-1,4
 57 -181 57 -181 91 -181 c 0,5,6
 117 -181 117 -181 146 -174 c 1,7,-1
 144 -196 l 1,8,9
 116 -203 116 -203 90 -203 c 0,10,11
 44 -203 44 -203 20.5 -181 c 128,-1,12
 -3 -159 -3 -159 -3 -123 c 0,13,14
 -3 -81 -3 -81 29 -50.5 c 128,-1,15
 61 -20 61 -20 123 7 c 1,16,-1
 123 681 l 1,17,-1
 146 681 l 1,18,-1
 146 0 l 1,19,0
 84 -27 84 -27 52.5 -54 c 128,-1,1
EndSplineSet
Substitution2: "'c2sc' Capitals to Small Capitals lookup 26 subtable" iogonek.sc
Substitution2: "'aalt' Access All Alternates lookup 0 subtable" iogonek.sc
Position2: "'cpsp' Capital Spacing lookup 0 subtable" dx=5 dy=0 dh=10 dv=0
EndChar

StartChar: uni0196
Encoding: 406 406 138
Width: 324
GlyphClass: 2
Flags: W
AnchorPoint: "Anchor-18" 0 0 basechar 0
AnchorPoint: "Anchor-17" 0 0 basechar 0
AnchorPoint: "Anchor-16" 125 681 basechar 0
AnchorPoint: "Anchor-15" 0 0 basechar 0
AnchorPoint: "Anchor-14" 193 0 basechar 0
LayerCount: 2
Fore
SplineSet
299 20 m 1,0,1
 259 -10 259 -10 211 -10 c 0,2,3
 167 -10 167 -10 140 18.5 c 128,-1,4
 113 47 113 47 113 101 c 2,5,-1
 113 681 l 1,6,-1
 136 681 l 1,7,-1
 136 102 l 2,8,9
 136 55 136 55 156.5 33 c 128,-1,10
 177 11 177 11 211 11 c 0,11,12
 236 11 236 11 254 17.5 c 128,-1,13
 272 24 272 24 288 36 c 1,14,-1
 299 20 l 1,0,1
EndSplineSet
Substitution2: "'c2sc' Capitals to Small Capitals lookup 26 subtable" uni0196.sc
Substitution2: "'aalt' Access All Alternates lookup 0 subtable" uni0196.sc
Position2: "'cpsp' Capital Spacing lookup 0 subtable" dx=5 dy=0 dh=10 dv=0
EndChar

StartChar: uni0197
Encoding: 407 407 139
Width: 314
GlyphClass: 2
Flags: W
AnchorPoint: "Anchor-18" 0 0 basechar 0
AnchorPoint: "Anchor-17" 0 0 basechar 0
AnchorPoint: "Anchor-16" 157 681 basechar 0
AnchorPoint: "Anchor-15" 179 0 basechar 0
AnchorPoint: "Anchor-14" 158 0 basechar 0
LayerCount: 2
Fore
SplineSet
278 371 m 1,0,-1
 278 350 l 1,1,-1
 169 350 l 1,2,-1
 169 0 l 1,3,-1
 146 0 l 1,4,-1
 146 350 l 1,5,-1
 35 350 l 1,6,-1
 35 371 l 1,7,-1
 146 371 l 1,8,-1
 146 681 l 1,9,-1
 169 681 l 1,10,-1
 169 371 l 1,11,-1
 278 371 l 1,0,-1
EndSplineSet
Substitution2: "'c2sc' Capitals to Small Capitals lookup 26 subtable" uni0268.sc
Substitution2: "'aalt' Access All Alternates lookup 0 subtable" uni0268.sc
Position2: "'cpsp' Capital Spacing lookup 0 subtable" dx=5 dy=0 dh=10 dv=0
EndChar

StartChar: J
Encoding: 74 74 141
Width: 277
GlyphClass: 2
Flags: W
AnchorPoint: "Anchor-18" 0 0 basechar 0
AnchorPoint: "Anchor-17" 0 0 basechar 0
AnchorPoint: "Anchor-16" 148 681 basechar 0
AnchorPoint: "Anchor-15" 0 0 basechar 0
AnchorPoint: "Anchor-14" 139 -192 basechar 0
LayerCount: 2
Fore
SplineSet
161 87 m 2,0,1
 161 35 161 35 150.5 3 c 128,-1,2
 140 -29 140 -29 112.5 -52.5 c 128,-1,3
 85 -76 85 -76 30 -100 c 1,4,-1
 23 -83 l 1,5,6
 70 -61 70 -61 94.5 -39.5 c 128,-1,7
 119 -18 119 -18 128.5 11.5 c 128,-1,8
 138 41 138 41 138 89 c 2,9,-1
 138 681 l 1,10,-1
 161 681 l 1,11,-1
 161 87 l 2,0,1
EndSplineSet
Substitution2: "'c2sc' Capitals to Small Capitals lookup 26 subtable" j.sc
Substitution2: "'aalt' Access All Alternates lookup 0 subtable" j.sc
Position2: "'cpsp' Capital Spacing lookup 0 subtable" dx=5 dy=0 dh=10 dv=0
EndChar

StartChar: uniA7B2
Encoding: 42930 42930 143
Width: 291
GlyphClass: 2
Flags: W
AnchorPoint: "Anchor-18" 0 0 basechar 0
AnchorPoint: "Anchor-17" 0 0 basechar 0
AnchorPoint: "Anchor-16" 157 681 basechar 0
AnchorPoint: "Anchor-15" 0 0 basechar 0
AnchorPoint: "Anchor-14" 146 -192 basechar 0
LayerCount: 2
Fore
SplineSet
254 -78 m 1,0,1
 212 -59 212 -59 168 -46 c 1,2,3
 163 -197 163 -197 36 -197 c 0,4,5
 -15 -197 -15 -197 -43.5 -173 c 128,-1,6
 -72 -149 -72 -149 -72 -109 c 0,7,8
 -72 -64 -72 -64 -37 -38.5 c 128,-1,9
 -2 -13 -2 -13 59 -13 c 0,10,11
 105 -13 105 -13 146 -22 c 1,12,-1
 146 681 l 1,13,-1
 168 681 l 1,14,-1
 168 -26 l 1,15,16
 223 -42 223 -42 262 -61 c 1,17,-1
 254 -78 l 1,0,1
118.5 -144.5 m 128,-1,19
 145 -112 145 -112 146 -42 c 1,20,21
 104 -33 104 -33 59 -33 c 0,22,23
 5 -33 5 -33 -22 -53 c 128,-1,24
 -49 -73 -49 -73 -49 -109 c 0,25,26
 -49 -142 -49 -142 -27.5 -159.5 c 128,-1,27
 -6 -177 -6 -177 36 -177 c 0,28,18
 92 -177 92 -177 118.5 -144.5 c 128,-1,19
EndSplineSet
Substitution2: "'c2sc' Capitals to Small Capitals lookup 26 subtable" uniA7B2.sc
Substitution2: "'aalt' Access All Alternates lookup 0 subtable" uniA7B2.sc
Position2: "'cpsp' Capital Spacing lookup 0 subtable" dx=5 dy=0 dh=10 dv=0
EndChar

StartChar: uni0248
Encoding: 584 584 144
Width: 291
GlyphClass: 2
Flags: W
AnchorPoint: "Anchor-18" 0 0 basechar 0
AnchorPoint: "Anchor-17" 0 0 basechar 0
AnchorPoint: "Anchor-16" 148 681 basechar 0
AnchorPoint: "Anchor-15" 0 0 basechar 0
AnchorPoint: "Anchor-14" 139 -192 basechar 0
LayerCount: 2
Fore
SplineSet
268 332 m 1,0,-1
 161 332 l 1,1,-1
 161 87 l 2,2,3
 161 35 161 35 150.5 3 c 128,-1,4
 140 -29 140 -29 112.5 -52.5 c 128,-1,5
 85 -76 85 -76 30 -100 c 1,6,-1
 23 -83 l 1,7,8
 70 -61 70 -61 94.5 -39.5 c 128,-1,9
 119 -18 119 -18 128.5 11.5 c 128,-1,10
 138 41 138 41 138 89 c 2,11,-1
 138 332 l 1,12,-1
 25 332 l 1,13,-1
 25 353 l 1,14,-1
 138 353 l 1,15,-1
 138 681 l 1,16,-1
 161 681 l 1,17,-1
 161 353 l 1,18,-1
 268 353 l 1,19,-1
 268 332 l 1,0,-1
EndSplineSet
Substitution2: "'c2sc' Capitals to Small Capitals lookup 26 subtable" uni0249.sc
Substitution2: "'aalt' Access All Alternates lookup 0 subtable" uni0249.sc
Position2: "'cpsp' Capital Spacing lookup 0 subtable" dx=5 dy=0 dh=10 dv=0
EndChar

StartChar: K
Encoding: 75 75 145
Width: 510
GlyphClass: 2
Flags: W
AnchorPoint: "Anchor-18" 0 0 basechar 0
AnchorPoint: "Anchor-17" 0 0 basechar 0
AnchorPoint: "Anchor-16" 288 681 basechar 0
AnchorPoint: "Anchor-15" 0 0 basechar 0
AnchorPoint: "Anchor-14" 295 0 basechar 0
LayerCount: 2
Fore
SplineSet
146 681 m 1,0,-1
 146 0 l 1,1,-1
 123 0 l 1,2,-1
 123 681 l 1,3,-1
 146 681 l 1,0,-1
490 681 m 1,4,-1
 178 367 l 1,5,-1
 506 0 l 1,6,-1
 478 0 l 1,7,-1
 149 367 l 1,8,-1
 463 681 l 1,9,-1
 490 681 l 1,4,-1
EndSplineSet
Substitution2: "'c2sc' Capitals to Small Capitals lookup 26 subtable" k.sc
Substitution2: "'aalt' Access All Alternates lookup 0 subtable" k.sc
Position2: "'cpsp' Capital Spacing lookup 0 subtable" dx=5 dy=0 dh=10 dv=0
EndChar

StartChar: uni0198
Encoding: 408 408 148
Width: 544
GlyphClass: 2
Flags: W
AnchorPoint: "Anchor-18" 0 0 basechar 0
AnchorPoint: "Anchor-17" 0 0 basechar 0
AnchorPoint: "Anchor-16" 272 681 basechar 0
AnchorPoint: "Anchor-15" 0 0 basechar 0
AnchorPoint: "Anchor-14" 272 0 basechar 0
LayerCount: 2
Fore
SplineSet
149 367 m 1,0,-1
 349 624 l 2,1,2
 379 663 379 663 403 677 c 128,-1,3
 427 691 427 691 460 691 c 0,4,5
 504 691 504 691 540 655 c 1,6,-1
 527 642 l 1,7,8
 511 656 511 656 495.5 663.5 c 128,-1,9
 480 671 480 671 460 671 c 0,10,11
 433 671 433 671 413 659.5 c 128,-1,12
 393 648 393 648 364 610 c 2,13,-1
 178 367 l 1,14,-1
 506 0 l 1,15,-1
 478 0 l 1,16,-1
 149 367 l 1,0,-1
146 681 m 1,17,-1
 146 0 l 1,18,-1
 123 0 l 1,19,-1
 123 681 l 1,20,-1
 146 681 l 1,17,-1
EndSplineSet
Substitution2: "'c2sc' Capitals to Small Capitals lookup 26 subtable" uni0199.sc
Substitution2: "'aalt' Access All Alternates lookup 0 subtable" uni0199.sc
Position2: "'cpsp' Capital Spacing lookup 0 subtable" dx=5 dy=0 dh=10 dv=0
EndChar

StartChar: L
Encoding: 76 76 149
Width: 456
GlyphClass: 2
Flags: W
AnchorPoint: "Anchor-18" 351 354 basechar 0
AnchorPoint: "Anchor-17" 181 681 basechar 0
AnchorPoint: "Anchor-16" 135 681 basechar 0
AnchorPoint: "Anchor-15" 0 0 basechar 0
AnchorPoint: "Anchor-14" 279 0 basechar 0
LayerCount: 2
Fore
SplineSet
146 681 m 1,0,-1
 146 22 l 1,1,-1
 434 22 l 1,2,-1
 430 0 l 1,3,-1
 123 0 l 1,4,-1
 123 681 l 1,5,-1
 146 681 l 1,0,-1
EndSplineSet
Substitution2: "'c2sc' Capitals to Small Capitals lookup 26 subtable" l.sc
Substitution2: "'aalt' Access All Alternates lookup 0 subtable" l.sc
Position2: "'cpsp' Capital Spacing lookup 0 subtable" dx=5 dy=0 dh=10 dv=0
EndChar

StartChar: uni023D
Encoding: 573 573 152
Width: 477
GlyphClass: 2
Flags: W
AnchorPoint: "Anchor-18" 372 354 basechar 0
AnchorPoint: "Anchor-17" 202 681 basechar 0
AnchorPoint: "Anchor-16" 156 681 basechar 0
AnchorPoint: "Anchor-15" 0 0 basechar 0
AnchorPoint: "Anchor-14" 300 0 basechar 0
LayerCount: 2
Fore
SplineSet
167 22 m 1,0,-1
 455 22 l 1,1,-1
 451 0 l 1,2,-1
 144 0 l 1,3,-1
 144 352 l 1,4,-1
 35 352 l 1,5,-1
 35 373 l 1,6,-1
 144 373 l 1,7,-1
 144 681 l 1,8,-1
 167 681 l 1,9,-1
 167 373 l 1,10,-1
 278 373 l 1,11,-1
 278 352 l 1,12,-1
 167 352 l 1,13,-1
 167 22 l 1,0,-1
EndSplineSet
Substitution2: "'c2sc' Capitals to Small Capitals lookup 26 subtable" uni019A.sc
Substitution2: "'aalt' Access All Alternates lookup 0 subtable" uni019A.sc
Position2: "'cpsp' Capital Spacing lookup 0 subtable" dx=5 dy=0 dh=10 dv=0
EndChar

StartChar: uniA7AD
Encoding: 42925 42925 153
Width: 480
GlyphClass: 2
Flags: W
AnchorPoint: "Anchor-18" 376 354 basechar 0
AnchorPoint: "Anchor-17" 206 681 basechar 0
AnchorPoint: "Anchor-16" 160 681 basechar 0
AnchorPoint: "Anchor-15" 0 0 basechar 0
AnchorPoint: "Anchor-14" 304 0 basechar 0
LayerCount: 2
Fore
SplineSet
459 22 m 1,0,-1
 455 0 l 1,1,-1
 148 0 l 1,2,-1
 148 279 l 1,3,-1
 147 279 l 2,4,5
 90 279 90 279 59.5 300 c 128,-1,6
 29 321 29 321 29 363 c 0,7,8
 29 400 29 400 54.5 421.5 c 128,-1,9
 80 443 80 443 120 443 c 0,10,11
 132 443 132 443 148 441 c 1,12,-1
 148 681 l 1,13,-1
 171 681 l 1,14,-1
 171 299 l 1,15,16
 225 300 225 300 287 309 c 1,17,-1
 289 291 l 1,18,19
 229 281 229 281 171 280 c 1,20,-1
 171 22 l 1,21,-1
 459 22 l 1,0,-1
148 299 m 1,22,-1
 148 422 l 1,23,24
 132 424 132 424 120 424 c 0,25,26
 89 424 89 424 70.5 408.5 c 128,-1,27
 52 393 52 393 52 364 c 0,28,29
 52 299 52 299 147 299 c 2,30,-1
 148 299 l 1,22,-1
EndSplineSet
Substitution2: "'c2sc' Capitals to Small Capitals lookup 26 subtable" uniA7AD.sc
Substitution2: "'aalt' Access All Alternates lookup 0 subtable" uniA7AD.sc
Position2: "'cpsp' Capital Spacing lookup 0 subtable" dx=5 dy=0 dh=10 dv=0
EndChar

StartChar: Lslash
Encoding: 321 321 160
Width: 461
GlyphClass: 2
Flags: W
AnchorPoint: "Anchor-18" 356 354 basechar 0
AnchorPoint: "Anchor-17" 186 681 basechar 0
AnchorPoint: "Anchor-16" 140 681 basechar 0
AnchorPoint: "Anchor-15" 0 0 basechar 0
AnchorPoint: "Anchor-14" 284 0 basechar 0
LayerCount: 2
Fore
SplineSet
151 22 m 1,0,-1
 439 22 l 1,1,-1
 435 0 l 1,2,-1
 128 0 l 1,3,-1
 128 308 l 1,4,-1
 54 262 l 1,5,-1
 45 279 l 1,6,-1
 128 330 l 1,7,-1
 128 681 l 1,8,-1
 151 681 l 1,9,-1
 151 344 l 1,10,-1
 351 470 l 1,11,-1
 361 453 l 1,12,-1
 151 322 l 1,13,-1
 151 22 l 1,0,-1
EndSplineSet
Substitution2: "'c2sc' Capitals to Small Capitals lookup 26 subtable" lslash.sc
Substitution2: "'aalt' Access All Alternates lookup 0 subtable" lslash.sc
Position2: "'cpsp' Capital Spacing lookup 0 subtable" dx=5 dy=0 dh=10 dv=0
EndChar

StartChar: M
Encoding: 77 77 161
Width: 762
GlyphClass: 2
Flags: W
AnchorPoint: "Anchor-18" 0 0 basechar 0
AnchorPoint: "Anchor-17" 0 0 basechar 0
AnchorPoint: "Anchor-16" 380 681 basechar 0
AnchorPoint: "Anchor-15" 0 0 basechar 0
AnchorPoint: "Anchor-14" 381 0 basechar 0
LayerCount: 2
Fore
SplineSet
684 0 m 1,0,-1
 662 0 l 1,1,-1
 623 345 l 1,2,-1
 589 660 l 1,3,-1
 392 84 l 1,4,-1
 370 84 l 1,5,-1
 170 660 l 1,6,7
 170 656 170 656 156 528 c 2,8,-1
 137 354 l 1,9,-1
 100 0 l 1,10,-1
 78 0 l 1,11,-1
 151 681 l 1,12,-1
 185 681 l 1,13,-1
 381 112 l 1,14,-1
 575 681 l 1,15,-1
 609 681 l 1,16,-1
 684 0 l 1,0,-1
EndSplineSet
Substitution2: "'c2sc' Capitals to Small Capitals lookup 26 subtable" m.sc
Substitution2: "'aalt' Access All Alternates lookup 0 subtable" m.sc
Position2: "'cpsp' Capital Spacing lookup 0 subtable" dx=5 dy=0 dh=10 dv=0
EndChar

StartChar: uni019C
Encoding: 412 412 164
Width: 923
GlyphClass: 2
Flags: W
AnchorPoint: "Anchor-18" 0 0 basechar 0
AnchorPoint: "Anchor-17" 0 0 basechar 0
AnchorPoint: "Anchor-16" 462 681 basechar 0
AnchorPoint: "Anchor-15" 0 0 basechar 0
AnchorPoint: "Anchor-14" 462 0 basechar 0
LayerCount: 2
Fore
SplineSet
800 681 m 1,0,-1
 800 0 l 1,1,-1
 780 0 l 1,2,-1
 778 111 l 1,3,4
 746 55 746 55 700 22.5 c 128,-1,5
 654 -10 654 -10 596 -10 c 256,6,7
 538 -10 538 -10 500.5 22.5 c 128,-1,8
 463 55 463 55 451 116 c 1,9,10
 377 -10 377 -10 264 -10 c 0,11,12
 192 -10 192 -10 152.5 38.5 c 128,-1,13
 113 87 113 87 113 177 c 2,14,-1
 113 681 l 1,15,-1
 136 681 l 1,16,-1
 136 173 l 2,17,18
 136 94 136 94 170 52.5 c 128,-1,19
 204 11 204 11 265 11 c 0,20,21
 323 11 323 11 367 46 c 128,-1,22
 411 81 411 81 447 143 c 1,23,24
 445 165 445 165 445 177 c 2,25,-1
 445 681 l 1,26,-1
 468 681 l 1,27,-1
 468 173 l 2,28,29
 468 94 468 94 502 52.5 c 128,-1,30
 536 11 536 11 597 11 c 0,31,32
 706 11 706 11 777 144 c 1,33,-1
 777 681 l 1,34,-1
 800 681 l 1,0,-1
EndSplineSet
Substitution2: "'c2sc' Capitals to Small Capitals lookup 26 subtable" uni026F.sc
Substitution2: "'aalt' Access All Alternates lookup 0 subtable" uni026F.sc
Position2: "'cpsp' Capital Spacing lookup 0 subtable" dx=5 dy=0 dh=10 dv=0
EndChar

StartChar: N
Encoding: 78 78 165
Width: 661
GlyphClass: 2
Flags: W
AnchorPoint: "Anchor-18" 0 0 basechar 0
AnchorPoint: "Anchor-17" 0 0 basechar 0
AnchorPoint: "Anchor-16" 337 681 basechar 0
AnchorPoint: "Anchor-15" 0 0 basechar 0
AnchorPoint: "Anchor-14" 329 0 basechar 0
LayerCount: 2
Fore
SplineSet
538 0 m 1,0,-1
 510 0 l 1,1,-1
 142 656 l 1,2,3
 145 604 145 604 145 477 c 2,4,-1
 145 0 l 1,5,-1
 123 0 l 1,6,-1
 123 681 l 1,7,-1
 152 681 l 1,8,-1
 519 26 l 1,9,10
 516 146 516 146 516 205 c 2,11,-1
 516 681 l 1,12,-1
 538 681 l 1,13,-1
 538 0 l 1,0,-1
EndSplineSet
Substitution2: "'c2sc' Capitals to Small Capitals lookup 26 subtable" n.sc
Substitution2: "'aalt' Access All Alternates lookup 0 subtable" n.sc
Position2: "'cpsp' Capital Spacing lookup 0 subtable" dx=5 dy=0 dh=10 dv=0
EndChar

StartChar: Eng
Encoding: 330 330 175
Width: 661
GlyphClass: 2
Flags: W
AnchorPoint: "Anchor-18" 0 0 basechar 0
AnchorPoint: "Anchor-17" 0 0 basechar 0
AnchorPoint: "Anchor-16" 337 681 basechar 0
AnchorPoint: "Anchor-15" 0 0 basechar 0
AnchorPoint: "Anchor-14" 329 0 basechar 0
LayerCount: 2
Fore
SplineSet
538 681 m 1,0,-1
 538 -86 l 2,1,2
 538 -140 538 -140 511 -168.5 c 128,-1,3
 484 -197 484 -197 440 -197 c 0,4,5
 392 -197 392 -197 352 -167 c 1,6,-1
 363 -151 l 1,7,8
 379 -163 379 -163 397 -169.5 c 128,-1,9
 415 -176 415 -176 440 -176 c 0,10,11
 474 -176 474 -176 494.5 -154 c 128,-1,12
 515 -132 515 -132 515 -85 c 2,13,-1
 515 0 l 1,14,-1
 510 0 l 1,15,-1
 142 656 l 1,16,17
 145 604 145 604 145 477 c 2,18,-1
 145 0 l 1,19,-1
 123 0 l 1,20,-1
 123 681 l 1,21,-1
 152 681 l 1,22,-1
 519 26 l 1,23,24
 516 146 516 146 516 205 c 2,25,-1
 516 681 l 1,26,-1
 538 681 l 1,0,-1
EndSplineSet
Substitution2: "'ss01' Style Set 1 lookup 33 subtable" Eng.ss01
Substitution2: "'salt' Stylistic Alternatives lookup 32 subtable" Eng.ss01
Substitution2: "'c2sc' Capitals to Small Capitals lookup 26 subtable" eng.sc
AlternateSubs2: "'aalt' Access All Alternates lookup 1 subtable" eng.sc Eng.ss01
Position2: "'cpsp' Capital Spacing lookup 0 subtable" dx=5 dy=0 dh=10 dv=0
EndChar

StartChar: Eng.ss01
Encoding: 65541 -1 176
Width: 651
GlyphClass: 2
Flags: W
AnchorPoint: "Anchor-18" 0 0 basechar 0
AnchorPoint: "Anchor-17" 0 0 basechar 0
AnchorPoint: "Anchor-16" 325 681 basechar 0
AnchorPoint: "Anchor-15" 0 0 basechar 0
AnchorPoint: "Anchor-14" 325 -192 basechar 0
LayerCount: 2
Fore
SplineSet
491 641.5 m 128,-1,1
 535 592 535 592 535 497 c 2,2,-1
 535 -86 l 2,3,4
 535 -140 535 -140 508 -168.5 c 128,-1,5
 481 -197 481 -197 437 -197 c 0,6,7
 389 -197 389 -197 349 -167 c 1,8,-1
 360 -151 l 1,9,10
 376 -163 376 -163 394 -169.5 c 128,-1,11
 412 -176 412 -176 437 -176 c 0,12,13
 471 -176 471 -176 491.5 -154 c 128,-1,14
 512 -132 512 -132 512 -85 c 2,15,-1
 512 494 l 2,16,17
 512 583 512 583 474 626.5 c 128,-1,18
 436 670 436 670 367 670 c 0,19,20
 297 670 297 670 244 635 c 128,-1,21
 191 600 191 600 146 538 c 1,22,-1
 146 0 l 1,23,-1
 123 0 l 1,24,-1
 123 681 l 1,25,-1
 143 681 l 1,26,-1
 145 567 l 1,27,28
 238 691 238 691 367 691 c 0,29,0
 447 691 447 691 491 641.5 c 128,-1,1
EndSplineSet
Position2: "'cpsp' Capital Spacing lookup 0 subtable" dx=5 dy=0 dh=10 dv=0
EndChar

StartChar: uni019D
Encoding: 413 413 177
Width: 661
GlyphClass: 2
Flags: W
AnchorPoint: "Anchor-18" 0 0 basechar 0
AnchorPoint: "Anchor-17" 0 0 basechar 0
AnchorPoint: "Anchor-16" 337 681 basechar 0
AnchorPoint: "Anchor-15" 0 0 basechar 0
AnchorPoint: "Anchor-14" 329 0 basechar 0
LayerCount: 2
Fore
SplineSet
538 681 m 1,0,-1
 538 0 l 1,1,-1
 510 0 l 1,2,-1
 142 656 l 1,3,4
 145 604 145 604 145 477 c 2,5,-1
 145 -86 l 2,6,7
 145 -140 145 -140 118 -168.5 c 128,-1,8
 91 -197 91 -197 47 -197 c 0,9,10
 -3 -197 -3 -197 -41 -167 c 1,11,-1
 -30 -152 l 1,12,13
 -14 -164 -14 -164 4 -170.5 c 128,-1,14
 22 -177 22 -177 47 -177 c 0,15,16
 81 -177 81 -177 102 -155 c 128,-1,17
 123 -133 123 -133 123 -86 c 2,18,-1
 123 681 l 1,19,-1
 152 681 l 1,20,-1
 519 26 l 1,21,22
 516 146 516 146 516 205 c 2,23,-1
 516 681 l 1,24,-1
 538 681 l 1,0,-1
EndSplineSet
Substitution2: "'ss01' Style Set 1 lookup 33 subtable" uni019D.ss01
Substitution2: "'salt' Stylistic Alternatives lookup 32 subtable" uni019D.ss01
Substitution2: "'c2sc' Capitals to Small Capitals lookup 26 subtable" uni0272.sc
AlternateSubs2: "'aalt' Access All Alternates lookup 1 subtable" uni0272.sc uni019D.ss01
Position2: "'cpsp' Capital Spacing lookup 0 subtable" dx=5 dy=0 dh=10 dv=0
EndChar

StartChar: uni019D.ss01
Encoding: 65542 -1 178
Width: 651
GlyphClass: 2
Flags: W
AnchorPoint: "Anchor-18" 0 0 basechar 0
AnchorPoint: "Anchor-17" 0 0 basechar 0
AnchorPoint: "Anchor-16" 327 681 basechar 0
AnchorPoint: "Anchor-15" 0 0 basechar 0
AnchorPoint: "Anchor-14" 327 -192 basechar 0
LayerCount: 2
Fore
SplineSet
491 641.5 m 128,-1,1
 535 592 535 592 535 497 c 2,2,-1
 535 0 l 1,3,-1
 512 0 l 1,4,-1
 512 494 l 2,5,6
 512 583 512 583 474 626.5 c 128,-1,7
 436 670 436 670 367 670 c 0,8,9
 297 670 297 670 244 635 c 128,-1,10
 191 600 191 600 146 538 c 1,11,-1
 146 -86 l 2,12,13
 146 -140 146 -140 119 -168.5 c 128,-1,14
 92 -197 92 -197 48 -197 c 0,15,16
 0 -197 0 -197 -40 -167 c 1,17,-1
 -29 -151 l 1,18,19
 -13 -163 -13 -163 5 -169.5 c 128,-1,20
 23 -176 23 -176 48 -176 c 0,21,22
 82 -176 82 -176 102.5 -154 c 128,-1,23
 123 -132 123 -132 123 -85 c 2,24,-1
 123 681 l 1,25,-1
 143 681 l 1,26,-1
 145 567 l 1,27,28
 238 691 238 691 367 691 c 0,29,0
 447 691 447 691 491 641.5 c 128,-1,1
EndSplineSet
Position2: "'cpsp' Capital Spacing lookup 0 subtable" dx=5 dy=0 dh=10 dv=0
EndChar

StartChar: uni0220
Encoding: 544 544 180
Width: 651
GlyphClass: 2
Flags: W
AnchorPoint: "Anchor-18" 0 0 basechar 0
AnchorPoint: "Anchor-17" 0 0 basechar 0
AnchorPoint: "Anchor-16" 325 681 basechar 0
AnchorPoint: "Anchor-15" 0 0 basechar 0
AnchorPoint: "Anchor-14" 325 -192 basechar 0
LayerCount: 2
Fore
SplineSet
491 641.5 m 128,-1,1
 535 592 535 592 535 497 c 2,2,-1
 535 -192 l 1,3,-1
 512 -192 l 1,4,-1
 512 494 l 2,5,6
 512 583 512 583 474 626.5 c 128,-1,7
 436 670 436 670 367 670 c 0,8,9
 297 670 297 670 244 635 c 128,-1,10
 191 600 191 600 146 538 c 1,11,-1
 146 0 l 1,12,-1
 123 0 l 1,13,-1
 123 681 l 1,14,-1
 143 681 l 1,15,-1
 145 567 l 1,16,17
 238 691 238 691 367 691 c 0,18,0
 447 691 447 691 491 641.5 c 128,-1,1
EndSplineSet
Substitution2: "'c2sc' Capitals to Small Capitals lookup 26 subtable" uni0220.sc
Substitution2: "'aalt' Access All Alternates lookup 0 subtable" uni0220.sc
Position2: "'cpsp' Capital Spacing lookup 0 subtable" dx=5 dy=0 dh=10 dv=0
EndChar

StartChar: O
Encoding: 79 79 182
Width: 689
GlyphClass: 2
Flags: W
AnchorPoint: "Anchor-18" 0 0 basechar 0
AnchorPoint: "Anchor-17" 531 681 basechar 0
AnchorPoint: "Anchor-16" 345 681 basechar 0
AnchorPoint: "Anchor-15" 428 0 basechar 0
AnchorPoint: "Anchor-14" 345 0 basechar 0
LayerCount: 2
Fore
SplineSet
485 650.5 m 128,-1,1
 545 610 545 610 578 531.5 c 128,-1,2
 611 453 611 453 611 340 c 0,3,4
 611 175 611 175 540.5 82.5 c 128,-1,5
 470 -10 470 -10 344 -10 c 0,6,7
 264 -10 264 -10 204 31 c 128,-1,8
 144 72 144 72 111 150.5 c 128,-1,9
 78 229 78 229 78 339 c 256,10,11
 78 449 78 449 111.5 528.5 c 128,-1,12
 145 608 145 608 205 649.5 c 128,-1,13
 265 691 265 691 344 691 c 0,14,0
 425 691 425 691 485 650.5 c 128,-1,1
216.5 631.5 m 128,-1,16
 162 593 162 593 131.5 518.5 c 128,-1,17
 101 444 101 444 101 339 c 0,18,19
 101 235 101 235 131 161.5 c 128,-1,20
 161 88 161 88 216 50 c 128,-1,21
 271 12 271 12 344 12 c 0,22,23
 460 12 460 12 524 96.5 c 128,-1,24
 588 181 588 181 588 340 c 0,25,26
 588 500 588 500 522.5 585 c 128,-1,27
 457 670 457 670 344 670 c 0,28,15
 271 670 271 670 216.5 631.5 c 128,-1,16
EndSplineSet
Substitution2: "Single Substitution lookup 45 subtable" ordmasculine
Substitution2: "'c2sc' Capitals to Small Capitals lookup 26 subtable" o.sc
AlternateSubs2: "'aalt' Access All Alternates lookup 1 subtable" ordmasculine o.sc
Position2: "'cpsp' Capital Spacing lookup 0 subtable" dx=5 dy=0 dh=10 dv=0
EndChar

StartChar: uni0222
Encoding: 546 546 183
Width: 629
GlyphClass: 2
Flags: W
AnchorPoint: "Anchor-18" 0 0 basechar 0
AnchorPoint: "Anchor-17" 0 0 basechar 0
AnchorPoint: "Anchor-16" 315 681 basechar 0
AnchorPoint: "Anchor-15" 0 0 basechar 0
AnchorPoint: "Anchor-14" 315 0 basechar 0
LayerCount: 2
Fore
SplineSet
510.5 316.5 m 128,-1,1
 551 266 551 266 551 191 c 0,2,3
 551 101 551 101 490.5 45.5 c 128,-1,4
 430 -10 430 -10 314 -10 c 0,5,6
 201 -10 201 -10 139.5 45 c 128,-1,7
 78 100 78 100 78 189 c 0,8,9
 78 262 78 262 119 314 c 128,-1,10
 160 366 160 366 237 384 c 1,11,12
 127 415 127 415 127 548 c 2,13,-1
 127 681 l 1,14,-1
 150 681 l 1,15,-1
 150 548 l 2,16,17
 150 393 150 393 315 393 c 0,18,19
 483 393 483 393 483 548 c 2,20,-1
 483 681 l 1,21,-1
 505 681 l 1,22,-1
 505 548 l 2,23,24
 505 489 505 489 478.5 445.5 c 128,-1,25
 452 402 452 402 393 384 c 1,26,0
 470 367 470 367 510.5 316.5 c 128,-1,1
474.5 60.5 m 128,-1,28
 528 109 528 109 528 191 c 0,29,30
 528 276 528 276 474 324 c 128,-1,31
 420 372 420 372 314 372 c 0,32,33
 211 372 211 372 156 322.5 c 128,-1,34
 101 273 101 273 101 189 c 0,35,36
 101 108 101 108 155.5 60 c 128,-1,37
 210 12 210 12 314 12 c 0,38,27
 421 12 421 12 474.5 60.5 c 128,-1,28
EndSplineSet
Substitution2: "'c2sc' Capitals to Small Capitals lookup 26 subtable" uni0223.sc
Substitution2: "'aalt' Access All Alternates lookup 0 subtable" uni0223.sc
Position2: "'cpsp' Capital Spacing lookup 0 subtable" dx=5 dy=0 dh=10 dv=0
EndChar

StartChar: Ohorn
Encoding: 416 416 203
Width: 689
GlyphClass: 2
Flags: W
AnchorPoint: "Anchor-18" 0 0 basechar 0
AnchorPoint: "Anchor-17" 583 681 basechar 0
AnchorPoint: "Anchor-16" 345 681 basechar 0
AnchorPoint: "Anchor-15" 428 0 basechar 0
AnchorPoint: "Anchor-14" 345 0 basechar 0
LayerCount: 2
Fore
SplineSet
590.5 497 m 128,-1,1
 611 429 611 429 611 340 c 0,2,3
 611 175 611 175 540.5 82.5 c 128,-1,4
 470 -10 470 -10 344 -10 c 0,5,6
 264 -10 264 -10 204 31 c 128,-1,7
 144 72 144 72 111 150.5 c 128,-1,8
 78 229 78 229 78 339 c 256,9,10
 78 449 78 449 111.5 528.5 c 128,-1,11
 145 608 145 608 205 649.5 c 128,-1,12
 265 691 265 691 344 691 c 0,13,14
 448 691 448 691 517 624 c 1,15,16
 550 629 550 629 564.5 643.5 c 128,-1,17
 579 658 579 658 579 686 c 0,18,19
 579 723 579 723 565 758 c 1,20,-1
 582 765 l 1,21,22
 599 729 599 729 599 686 c 0,23,24
 599 619 599 619 531 610 c 1,25,0
 570 565 570 565 590.5 497 c 128,-1,1
524 96.5 m 128,-1,27
 588 181 588 181 588 340 c 0,28,29
 588 500 588 500 522.5 585 c 128,-1,30
 457 670 457 670 344 670 c 0,31,32
 271 670 271 670 216.5 631.5 c 128,-1,33
 162 593 162 593 131.5 518.5 c 128,-1,34
 101 444 101 444 101 339 c 0,35,36
 101 235 101 235 131 161.5 c 128,-1,37
 161 88 161 88 216 50 c 128,-1,38
 271 12 271 12 344 12 c 0,39,26
 460 12 460 12 524 96.5 c 128,-1,27
EndSplineSet
Substitution2: "'c2sc' Capitals to Small Capitals lookup 26 subtable" ohorn.sc
Substitution2: "'aalt' Access All Alternates lookup 0 subtable" ohorn.sc
Position2: "'cpsp' Capital Spacing lookup 0 subtable" dx=5 dy=0 dh=10 dv=0
EndChar

StartChar: uni1EDA
Encoding: 7898 7898 204
Width: 689
GlyphClass: 2
Flags: W
AnchorPoint: "Anchor-18" 0 0 basechar 0
AnchorPoint: "Anchor-17" 583 681 basechar 0
AnchorPoint: "Anchor-16" 346 861 basechar 0
AnchorPoint: "Anchor-15" 428 0 basechar 0
AnchorPoint: "Anchor-14" 345 0 basechar 0
LayerCount: 2
Fore
SplineSet
437 838 m 1,0,-1
 258 764 l 1,1,-1
 251 779 l 1,2,-1
 426 861 l 1,3,-1
 437 838 l 1,0,-1
590.5 497 m 128,-1,5
 611 429 611 429 611 340 c 0,6,7
 611 175 611 175 540.5 82.5 c 128,-1,8
 470 -10 470 -10 344 -10 c 0,9,10
 264 -10 264 -10 204 31 c 128,-1,11
 144 72 144 72 111 150.5 c 128,-1,12
 78 229 78 229 78 339 c 256,13,14
 78 449 78 449 111.5 528.5 c 128,-1,15
 145 608 145 608 205 649.5 c 128,-1,16
 265 691 265 691 344 691 c 0,17,18
 448 691 448 691 517 624 c 1,19,20
 550 629 550 629 564.5 643.5 c 128,-1,21
 579 658 579 658 579 686 c 0,22,23
 579 723 579 723 565 758 c 1,24,-1
 582 765 l 1,25,26
 599 729 599 729 599 686 c 0,27,28
 599 619 599 619 531 610 c 1,29,4
 570 565 570 565 590.5 497 c 128,-1,5
524 96.5 m 128,-1,31
 588 181 588 181 588 340 c 0,32,33
 588 500 588 500 522.5 585 c 128,-1,34
 457 670 457 670 344 670 c 0,35,36
 271 670 271 670 216.5 631.5 c 128,-1,37
 162 593 162 593 131.5 518.5 c 128,-1,38
 101 444 101 444 101 339 c 0,39,40
 101 235 101 235 131 161.5 c 128,-1,41
 161 88 161 88 216 50 c 128,-1,42
 271 12 271 12 344 12 c 0,43,30
 460 12 460 12 524 96.5 c 128,-1,31
EndSplineSet
Substitution2: "'c2sc' Capitals to Small Capitals lookup 26 subtable" uni1EDB.sc
Substitution2: "'aalt' Access All Alternates lookup 0 subtable" uni1EDB.sc
Position2: "'cpsp' Capital Spacing lookup 0 subtable" dx=5 dy=0 dh=10 dv=0
EndChar

StartChar: uni1EE2
Encoding: 7906 7906 205
Width: 689
GlyphClass: 2
Flags: W
AnchorPoint: "Anchor-18" 0 0 basechar 0
AnchorPoint: "Anchor-17" 583 681 basechar 0
AnchorPoint: "Anchor-16" 345 681 basechar 0
AnchorPoint: "Anchor-15" 428 0 basechar 0
AnchorPoint: "Anchor-14" 345 -192 basechar 0
LayerCount: 2
Fore
SplineSet
590.5 497 m 128,-1,1
 611 429 611 429 611 340 c 0,2,3
 611 175 611 175 540.5 82.5 c 128,-1,4
 470 -10 470 -10 344 -10 c 0,5,6
 264 -10 264 -10 204 31 c 128,-1,7
 144 72 144 72 111 150.5 c 128,-1,8
 78 229 78 229 78 339 c 256,9,10
 78 449 78 449 111.5 528.5 c 128,-1,11
 145 608 145 608 205 649.5 c 128,-1,12
 265 691 265 691 344 691 c 0,13,14
 448 691 448 691 517 624 c 1,15,16
 550 629 550 629 564.5 643.5 c 128,-1,17
 579 658 579 658 579 686 c 0,18,19
 579 723 579 723 565 758 c 1,20,-1
 582 765 l 1,21,22
 599 729 599 729 599 686 c 0,23,24
 599 619 599 619 531 610 c 1,25,0
 570 565 570 565 590.5 497 c 128,-1,1
524 96.5 m 128,-1,27
 588 181 588 181 588 340 c 0,28,29
 588 500 588 500 522.5 585 c 128,-1,30
 457 670 457 670 344 670 c 0,31,32
 271 670 271 670 216.5 631.5 c 128,-1,33
 162 593 162 593 131.5 518.5 c 128,-1,34
 101 444 101 444 101 339 c 0,35,36
 101 235 101 235 131 161.5 c 128,-1,37
 161 88 161 88 216 50 c 128,-1,38
 271 12 271 12 344 12 c 0,39,26
 460 12 460 12 524 96.5 c 128,-1,27
360.5 -104.5 m 128,-1,41
 366 -110 366 -110 366 -118 c 256,42,43
 366 -126 366 -126 360.5 -132 c 128,-1,44
 355 -138 355 -138 346 -138 c 0,45,46
 336 -138 336 -138 330.5 -132 c 128,-1,47
 325 -126 325 -126 325 -118 c 256,48,49
 325 -110 325 -110 330.5 -104.5 c 128,-1,50
 336 -99 336 -99 346 -99 c 0,51,40
 355 -99 355 -99 360.5 -104.5 c 128,-1,41
EndSplineSet
Substitution2: "'c2sc' Capitals to Small Capitals lookup 26 subtable" uni1EE3.sc
Substitution2: "'aalt' Access All Alternates lookup 0 subtable" uni1EE3.sc
Position2: "'cpsp' Capital Spacing lookup 0 subtable" dx=5 dy=0 dh=10 dv=0
EndChar

StartChar: uni1EDC
Encoding: 7900 7900 206
Width: 689
GlyphClass: 2
Flags: W
AnchorPoint: "Anchor-18" 0 0 basechar 0
AnchorPoint: "Anchor-17" 583 681 basechar 0
AnchorPoint: "Anchor-16" 347 861 basechar 0
AnchorPoint: "Anchor-15" 428 0 basechar 0
AnchorPoint: "Anchor-14" 345 0 basechar 0
LayerCount: 2
Fore
SplineSet
440 779 m 1,0,-1
 433 764 l 1,1,-1
 254 838 l 1,2,-1
 266 861 l 1,3,-1
 440 779 l 1,0,-1
590.5 497 m 128,-1,5
 611 429 611 429 611 340 c 0,6,7
 611 175 611 175 540.5 82.5 c 128,-1,8
 470 -10 470 -10 344 -10 c 0,9,10
 264 -10 264 -10 204 31 c 128,-1,11
 144 72 144 72 111 150.5 c 128,-1,12
 78 229 78 229 78 339 c 256,13,14
 78 449 78 449 111.5 528.5 c 128,-1,15
 145 608 145 608 205 649.5 c 128,-1,16
 265 691 265 691 344 691 c 0,17,18
 448 691 448 691 517 624 c 1,19,20
 550 629 550 629 564.5 643.5 c 128,-1,21
 579 658 579 658 579 686 c 0,22,23
 579 723 579 723 565 758 c 1,24,-1
 582 765 l 1,25,26
 599 729 599 729 599 686 c 0,27,28
 599 619 599 619 531 610 c 1,29,4
 570 565 570 565 590.5 497 c 128,-1,5
524 96.5 m 128,-1,31
 588 181 588 181 588 340 c 0,32,33
 588 500 588 500 522.5 585 c 128,-1,34
 457 670 457 670 344 670 c 0,35,36
 271 670 271 670 216.5 631.5 c 128,-1,37
 162 593 162 593 131.5 518.5 c 128,-1,38
 101 444 101 444 101 339 c 0,39,40
 101 235 101 235 131 161.5 c 128,-1,41
 161 88 161 88 216 50 c 128,-1,42
 271 12 271 12 344 12 c 0,43,30
 460 12 460 12 524 96.5 c 128,-1,31
EndSplineSet
Substitution2: "'c2sc' Capitals to Small Capitals lookup 26 subtable" uni1EDD.sc
Substitution2: "'aalt' Access All Alternates lookup 0 subtable" uni1EDD.sc
Position2: "'cpsp' Capital Spacing lookup 0 subtable" dx=5 dy=0 dh=10 dv=0
EndChar

StartChar: uni1EDE
Encoding: 7902 7902 207
Width: 689
GlyphClass: 2
Flags: W
AnchorPoint: "Anchor-18" 0 0 basechar 0
AnchorPoint: "Anchor-17" 583 681 basechar 0
AnchorPoint: "Anchor-16" 355 957 basechar 0
AnchorPoint: "Anchor-15" 428 0 basechar 0
AnchorPoint: "Anchor-14" 345 0 basechar 0
LayerCount: 2
Fore
SplineSet
291 922 m 1,1,-1
 283 939 l 1,2,3
 314 957 314 957 350 957 c 0,4,5
 384 957 384 957 404.5 939 c 128,-1,6
 425 921 425 921 425 891 c 0,7,8
 425 832 425 832 356 825 c 1,9,-1
 356 782 l 1,10,-1
 334 782 l 1,11,-1
 334 839 l 1,12,13
 401 841 401 841 401 891 c 0,14,15
 401 913 401 913 387.5 925 c 128,-1,16
 374 937 374 937 349 937 c 0,17,0
 319 937 319 937 291 922 c 1,1,-1
590.5 497 m 128,-1,19
 611 429 611 429 611 340 c 0,20,21
 611 175 611 175 540.5 82.5 c 128,-1,22
 470 -10 470 -10 344 -10 c 0,23,24
 264 -10 264 -10 204 31 c 128,-1,25
 144 72 144 72 111 150.5 c 128,-1,26
 78 229 78 229 78 339 c 256,27,28
 78 449 78 449 111.5 528.5 c 128,-1,29
 145 608 145 608 205 649.5 c 128,-1,30
 265 691 265 691 344 691 c 0,31,32
 448 691 448 691 517 624 c 1,33,34
 550 629 550 629 564.5 643.5 c 128,-1,35
 579 658 579 658 579 686 c 0,36,37
 579 723 579 723 565 758 c 1,38,-1
 582 765 l 1,39,40
 599 729 599 729 599 686 c 0,41,42
 599 619 599 619 531 610 c 1,43,18
 570 565 570 565 590.5 497 c 128,-1,19
524 96.5 m 128,-1,45
 588 181 588 181 588 340 c 0,46,47
 588 500 588 500 522.5 585 c 128,-1,48
 457 670 457 670 344 670 c 0,49,50
 271 670 271 670 216.5 631.5 c 128,-1,51
 162 593 162 593 131.5 518.5 c 128,-1,52
 101 444 101 444 101 339 c 0,53,54
 101 235 101 235 131 161.5 c 128,-1,55
 161 88 161 88 216 50 c 128,-1,56
 271 12 271 12 344 12 c 0,57,44
 460 12 460 12 524 96.5 c 128,-1,45
EndSplineSet
Substitution2: "'c2sc' Capitals to Small Capitals lookup 26 subtable" uni1EDF.sc
Substitution2: "'aalt' Access All Alternates lookup 0 subtable" uni1EDF.sc
Position2: "'cpsp' Capital Spacing lookup 0 subtable" dx=5 dy=0 dh=10 dv=0
EndChar

StartChar: uni1EE0
Encoding: 7904 7904 208
Width: 689
GlyphClass: 2
Flags: W
AnchorPoint: "Anchor-18" 0 0 basechar 0
AnchorPoint: "Anchor-17" 583 681 basechar 0
AnchorPoint: "Anchor-16" 347 867 basechar 0
AnchorPoint: "Anchor-15" 428 0 basechar 0
AnchorPoint: "Anchor-14" 345 0 basechar 0
LayerCount: 2
Fore
SplineSet
255 839 m 128,-1,1
 242 831 242 831 226 812 c 1,2,-1
 212 821 l 1,3,4
 229 844 229 844 246.5 855.5 c 128,-1,5
 264 867 264 867 286 867 c 0,6,7
 307 867 307 867 343 846 c 0,8,9
 364 835 364 835 376.5 829.5 c 128,-1,10
 389 824 389 824 403 824 c 0,11,12
 420 824 420 824 433 833 c 128,-1,13
 446 842 446 842 462 865 c 1,14,-1
 476 857 l 1,15,16
 461 829 461 829 443 816.5 c 128,-1,17
 425 804 425 804 403 804 c 0,18,19
 386 804 386 804 372 809.5 c 128,-1,20
 358 815 358 815 334 828 c 0,21,22
 317 838 317 838 307 842.5 c 128,-1,23
 297 847 297 847 286 847 c 0,24,0
 268 847 268 847 255 839 c 128,-1,1
590.5 497 m 128,-1,26
 611 429 611 429 611 340 c 0,27,28
 611 175 611 175 540.5 82.5 c 128,-1,29
 470 -10 470 -10 344 -10 c 0,30,31
 264 -10 264 -10 204 31 c 128,-1,32
 144 72 144 72 111 150.5 c 128,-1,33
 78 229 78 229 78 339 c 256,34,35
 78 449 78 449 111.5 528.5 c 128,-1,36
 145 608 145 608 205 649.5 c 128,-1,37
 265 691 265 691 344 691 c 0,38,39
 448 691 448 691 517 624 c 1,40,41
 550 629 550 629 564.5 643.5 c 128,-1,42
 579 658 579 658 579 686 c 0,43,44
 579 723 579 723 565 758 c 1,45,-1
 582 765 l 1,46,47
 599 729 599 729 599 686 c 0,48,49
 599 619 599 619 531 610 c 1,50,25
 570 565 570 565 590.5 497 c 128,-1,26
524 96.5 m 128,-1,52
 588 181 588 181 588 340 c 0,53,54
 588 500 588 500 522.5 585 c 128,-1,55
 457 670 457 670 344 670 c 0,56,57
 271 670 271 670 216.5 631.5 c 128,-1,58
 162 593 162 593 131.5 518.5 c 128,-1,59
 101 444 101 444 101 339 c 0,60,61
 101 235 101 235 131 161.5 c 128,-1,62
 161 88 161 88 216 50 c 128,-1,63
 271 12 271 12 344 12 c 0,64,51
 460 12 460 12 524 96.5 c 128,-1,52
EndSplineSet
Substitution2: "'c2sc' Capitals to Small Capitals lookup 26 subtable" uni1EE1.sc
Substitution2: "'aalt' Access All Alternates lookup 0 subtable" uni1EE1.sc
Position2: "'cpsp' Capital Spacing lookup 0 subtable" dx=5 dy=0 dh=10 dv=0
EndChar

StartChar: uni01A2
Encoding: 418 418 210
Width: 881
GlyphClass: 2
Flags: W
AnchorPoint: "Anchor-18" 0 0 basechar 0
AnchorPoint: "Anchor-17" 0 0 basechar 0
AnchorPoint: "Anchor-16" 440 681 basechar 0
AnchorPoint: "Anchor-15" 0 0 basechar 0
AnchorPoint: "Anchor-14" 440 -192 basechar 0
LayerCount: 2
Fore
SplineSet
727.5 660 m 128,-1,1
 758 629 758 629 758 565 c 2,2,-1
 758 -192 l 1,3,-1
 735 -192 l 1,4,-1
 735 564 l 2,5,6
 735 622 735 622 710.5 647 c 128,-1,7
 686 672 686 672 639 672 c 0,8,9
 603 672 603 672 572 662 c 128,-1,10
 541 652 541 652 508 633 c 1,11,12
 558 589 558 589 584.5 515 c 128,-1,13
 611 441 611 441 611 340 c 0,14,15
 611 175 611 175 540.5 82.5 c 128,-1,16
 470 -10 470 -10 344 -10 c 0,17,18
 264 -10 264 -10 204 31 c 128,-1,19
 144 72 144 72 111 150.5 c 128,-1,20
 78 229 78 229 78 339 c 256,21,22
 78 449 78 449 111.5 528.5 c 128,-1,23
 145 608 145 608 205 649.5 c 128,-1,24
 265 691 265 691 344 691 c 0,25,26
 430 691 430 691 493 645 c 1,27,28
 530 667 530 667 564.5 679 c 128,-1,29
 599 691 599 691 639 691 c 0,30,0
 697 691 697 691 727.5 660 c 128,-1,1
522.5 585 m 128,-1,32
 457 670 457 670 344 670 c 0,33,34
 271 670 271 670 216.5 631.5 c 128,-1,35
 162 593 162 593 131.5 518.5 c 128,-1,36
 101 444 101 444 101 339 c 0,37,38
 101 235 101 235 131 161.5 c 128,-1,39
 161 88 161 88 216 50 c 128,-1,40
 271 12 271 12 344 12 c 0,41,42
 460 12 460 12 524 96.5 c 128,-1,43
 588 181 588 181 588 340 c 0,44,31
 588 500 588 500 522.5 585 c 128,-1,32
EndSplineSet
Substitution2: "'c2sc' Capitals to Small Capitals lookup 26 subtable" uni01A3.sc
Substitution2: "'aalt' Access All Alternates lookup 0 subtable" uni01A3.sc
Position2: "'cpsp' Capital Spacing lookup 0 subtable" dx=5 dy=0 dh=10 dv=0
EndChar

StartChar: uni1E50
Encoding: 7760 7760 214
Width: 689
GlyphClass: 2
Flags: W
AnchorPoint: "Anchor-18" 0 0 basechar 0
AnchorPoint: "Anchor-17" 531 681 basechar 0
AnchorPoint: "Anchor-16" 347 941 basechar 0
AnchorPoint: "Anchor-15" 428 0 basechar 0
AnchorPoint: "Anchor-14" 345 0 basechar 0
LayerCount: 2
Fore
SplineSet
266 941 m 1,0,-1
 440 859 l 1,1,-1
 433 844 l 1,2,-1
 254 918 l 1,3,-1
 266 941 l 1,0,-1
448 767 m 1,4,-1
 241 767 l 1,5,-1
 241 788 l 1,6,-1
 448 788 l 1,7,-1
 448 767 l 1,4,-1
485 650.5 m 128,-1,9
 545 610 545 610 578 531.5 c 128,-1,10
 611 453 611 453 611 340 c 0,11,12
 611 175 611 175 540.5 82.5 c 128,-1,13
 470 -10 470 -10 344 -10 c 0,14,15
 264 -10 264 -10 204 31 c 128,-1,16
 144 72 144 72 111 150.5 c 128,-1,17
 78 229 78 229 78 339 c 256,18,19
 78 449 78 449 111.5 528.5 c 128,-1,20
 145 608 145 608 205 649.5 c 128,-1,21
 265 691 265 691 344 691 c 0,22,8
 425 691 425 691 485 650.5 c 128,-1,9
216.5 631.5 m 128,-1,24
 162 593 162 593 131.5 518.5 c 128,-1,25
 101 444 101 444 101 339 c 0,26,27
 101 235 101 235 131 161.5 c 128,-1,28
 161 88 161 88 216 50 c 128,-1,29
 271 12 271 12 344 12 c 0,30,31
 460 12 460 12 524 96.5 c 128,-1,32
 588 181 588 181 588 340 c 0,33,34
 588 500 588 500 522.5 585 c 128,-1,35
 457 670 457 670 344 670 c 0,36,23
 271 670 271 670 216.5 631.5 c 128,-1,24
EndSplineSet
Substitution2: "'c2sc' Capitals to Small Capitals lookup 26 subtable" uni1E51.sc
Substitution2: "'aalt' Access All Alternates lookup 0 subtable" uni1E51.sc
Position2: "'cpsp' Capital Spacing lookup 0 subtable" dx=5 dy=0 dh=10 dv=0
EndChar

StartChar: uniA7B6
Encoding: 42934 42934 215
Width: 839
GlyphClass: 2
Flags: W
AnchorPoint: "Anchor-18" 0 0 basechar 0
AnchorPoint: "Anchor-17" 0 0 basechar 0
AnchorPoint: "Anchor-16" 420 681 basechar 0
AnchorPoint: "Anchor-15" 0 0 basechar 0
AnchorPoint: "Anchor-14" 420 0 basechar 0
LayerCount: 2
Fore
SplineSet
737.5 487.5 m 128,-1,1
 755 399 755 399 755 285 c 0,2,3
 755 124 755 124 705.5 57 c 128,-1,4
 656 -10 656 -10 567 -10 c 0,5,6
 503 -10 503 -10 467 22.5 c 128,-1,7
 431 55 431 55 420 124 c 1,8,9
 407 55 407 55 370 22.5 c 128,-1,10
 333 -10 333 -10 271 -10 c 0,11,12
 178 -10 178 -10 131 59.5 c 128,-1,13
 84 129 84 129 84 286 c 0,14,15
 84 397 84 397 102 483.5 c 128,-1,16
 120 570 120 570 159 681 c 1,17,-1
 183 681 l 1,18,19
 144 574 144 574 126 484.5 c 128,-1,20
 108 395 108 395 108 286 c 0,21,22
 108 135 108 135 149.5 73.5 c 128,-1,23
 191 12 191 12 270 12 c 0,24,25
 335 12 335 12 371 54.5 c 128,-1,26
 407 97 407 97 407 201 c 2,27,-1
 407 396 l 1,28,-1
 431 396 l 1,29,-1
 431 199 l 2,30,31
 431 95 431 95 466.5 53.5 c 128,-1,32
 502 12 502 12 566 12 c 0,33,34
 645 12 645 12 688.5 73 c 128,-1,35
 732 134 732 134 732 285 c 0,36,37
 732 395 732 395 714.5 485 c 128,-1,38
 697 575 697 575 659 681 c 1,39,-1
 683 681 l 1,40,0
 720 576 720 576 737.5 487.5 c 128,-1,1
EndSplineSet
Substitution2: "'c2sc' Capitals to Small Capitals lookup 26 subtable" uniA7B6.sc
Substitution2: "'aalt' Access All Alternates lookup 0 subtable" uniA7B6.sc
Position2: "'cpsp' Capital Spacing lookup 0 subtable" dx=5 dy=0 dh=10 dv=0
EndChar

StartChar: uni01EA
Encoding: 490 490 216
Width: 689
GlyphClass: 2
Flags: W
AnchorPoint: "Anchor-18" 0 0 basechar 0
AnchorPoint: "Anchor-17" 531 681 basechar 0
AnchorPoint: "Anchor-16" 345 681 basechar 0
AnchorPoint: "Anchor-15" 428 0 basechar 0
AnchorPoint: "Anchor-14" 345 0 basechar 0
LayerCount: 2
Fore
SplineSet
324 -55 m 128,-1,1
 293 -82 293 -82 293 -122 c 0,2,3
 293 -150 293 -150 311 -165.5 c 128,-1,4
 329 -181 329 -181 363 -181 c 0,5,6
 389 -181 389 -181 418 -174 c 1,7,-1
 416 -196 l 1,8,9
 388 -203 388 -203 362 -203 c 0,10,11
 316 -203 316 -203 292.5 -181 c 128,-1,12
 269 -159 269 -159 269 -123 c 256,13,14
 269 -87 269 -87 292 -60 c 128,-1,15
 315 -33 315 -33 360 -10 c 1,16,-1
 344 -10 l 2,17,18
 264 -10 264 -10 204 31 c 128,-1,19
 144 72 144 72 111 150.5 c 128,-1,20
 78 229 78 229 78 339 c 256,21,22
 78 449 78 449 111.5 528.5 c 128,-1,23
 145 608 145 608 205 649.5 c 128,-1,24
 265 691 265 691 344 691 c 0,25,26
 425 691 425 691 485 650.5 c 128,-1,27
 545 610 545 610 578 531.5 c 128,-1,28
 611 453 611 453 611 340 c 0,29,30
 611 200 611 200 560 111.5 c 128,-1,31
 509 23 509 23 415 -1 c 1,32,0
 355 -28 355 -28 324 -55 c 128,-1,1
131 161.5 m 128,-1,34
 161 88 161 88 216 50 c 128,-1,35
 271 12 271 12 344 12 c 0,36,37
 460 12 460 12 524 96.5 c 128,-1,38
 588 181 588 181 588 340 c 0,39,40
 588 500 588 500 522.5 585 c 128,-1,41
 457 670 457 670 344 670 c 0,42,43
 271 670 271 670 216.5 631.5 c 128,-1,44
 162 593 162 593 131.5 518.5 c 128,-1,45
 101 444 101 444 101 339 c 0,46,33
 101 235 101 235 131 161.5 c 128,-1,34
EndSplineSet
Substitution2: "'c2sc' Capitals to Small Capitals lookup 26 subtable" uni01EB.sc
Substitution2: "'aalt' Access All Alternates lookup 0 subtable" uni01EB.sc
Position2: "'cpsp' Capital Spacing lookup 0 subtable" dx=5 dy=0 dh=10 dv=0
EndChar

StartChar: uni01EC
Encoding: 492 492 217
Width: 689
GlyphClass: 2
Flags: W
AnchorPoint: "Anchor-18" 0 0 basechar 0
AnchorPoint: "Anchor-17" 531 681 basechar 0
AnchorPoint: "Anchor-16" 347 832 basechar 0
AnchorPoint: "Anchor-15" 428 0 basechar 0
AnchorPoint: "Anchor-14" 345 0 basechar 0
LayerCount: 2
Fore
SplineSet
448 832 m 1,0,-1
 448 811 l 1,1,-1
 241 811 l 1,2,-1
 241 832 l 1,3,-1
 448 832 l 1,0,-1
324 -55 m 128,-1,5
 293 -82 293 -82 293 -122 c 0,6,7
 293 -150 293 -150 311 -165.5 c 128,-1,8
 329 -181 329 -181 363 -181 c 0,9,10
 389 -181 389 -181 418 -174 c 1,11,-1
 416 -196 l 1,12,13
 388 -203 388 -203 362 -203 c 0,14,15
 316 -203 316 -203 292.5 -181 c 128,-1,16
 269 -159 269 -159 269 -123 c 256,17,18
 269 -87 269 -87 292 -60 c 128,-1,19
 315 -33 315 -33 360 -10 c 1,20,-1
 344 -10 l 2,21,22
 264 -10 264 -10 204 31 c 128,-1,23
 144 72 144 72 111 150.5 c 128,-1,24
 78 229 78 229 78 339 c 256,25,26
 78 449 78 449 111.5 528.5 c 128,-1,27
 145 608 145 608 205 649.5 c 128,-1,28
 265 691 265 691 344 691 c 0,29,30
 425 691 425 691 485 650.5 c 128,-1,31
 545 610 545 610 578 531.5 c 128,-1,32
 611 453 611 453 611 340 c 0,33,34
 611 200 611 200 560 111.5 c 128,-1,35
 509 23 509 23 415 -1 c 1,36,4
 355 -28 355 -28 324 -55 c 128,-1,5
131 161.5 m 128,-1,38
 161 88 161 88 216 50 c 128,-1,39
 271 12 271 12 344 12 c 0,40,41
 460 12 460 12 524 96.5 c 128,-1,42
 588 181 588 181 588 340 c 0,43,44
 588 500 588 500 522.5 585 c 128,-1,45
 457 670 457 670 344 670 c 0,46,47
 271 670 271 670 216.5 631.5 c 128,-1,48
 162 593 162 593 131.5 518.5 c 128,-1,49
 101 444 101 444 101 339 c 0,50,37
 101 235 101 235 131 161.5 c 128,-1,38
EndSplineSet
Substitution2: "'c2sc' Capitals to Small Capitals lookup 26 subtable" uni01ED.sc
Substitution2: "'aalt' Access All Alternates lookup 0 subtable" uni01ED.sc
Position2: "'cpsp' Capital Spacing lookup 0 subtable" dx=5 dy=0 dh=10 dv=0
EndChar

StartChar: uni0186
Encoding: 390 390 218
Width: 538
GlyphClass: 2
Flags: W
AnchorPoint: "Anchor-18" 212 343 basechar 0
AnchorPoint: "Anchor-17" 0 0 basechar 0
AnchorPoint: "Anchor-16" 213 681 basechar 0
AnchorPoint: "Anchor-15" 0 0 basechar 0
AnchorPoint: "Anchor-14" 213 0 basechar 0
LayerCount: 2
Fore
SplineSet
341 652 m 128,-1,1
 397 613 397 613 428.5 534.5 c 128,-1,2
 460 456 460 456 460 340 c 0,3,4
 460 229 460 229 426.5 150 c 128,-1,5
 393 71 393 71 334 30.5 c 128,-1,6
 275 -10 275 -10 200 -10 c 0,7,8
 144 -10 144 -10 102.5 7 c 128,-1,9
 61 24 61 24 25 54 c 1,10,-1
 39 70 l 1,11,12
 76 41 76 41 112.5 26.5 c 128,-1,13
 149 12 149 12 200 12 c 0,14,15
 268 12 268 12 321.5 49.5 c 128,-1,16
 375 87 375 87 406 161 c 128,-1,17
 437 235 437 235 437 340 c 0,18,19
 437 506 437 506 375.5 588 c 128,-1,20
 314 670 314 670 210 670 c 0,21,22
 161 670 161 670 122 657 c 128,-1,23
 83 644 83 644 46 617 c 1,24,-1
 34 633 l 1,25,26
 111 691 111 691 211 691 c 0,27,0
 285 691 285 691 341 652 c 128,-1,1
EndSplineSet
Substitution2: "'c2sc' Capitals to Small Capitals lookup 26 subtable" uni0254.sc
Substitution2: "'aalt' Access All Alternates lookup 0 subtable" uni0254.sc
Position2: "'cpsp' Capital Spacing lookup 0 subtable" dx=5 dy=0 dh=10 dv=0
EndChar

StartChar: Oslash
Encoding: 216 216 219
Width: 689
GlyphClass: 2
Flags: W
AnchorPoint: "Anchor-18" 0 0 basechar 0
AnchorPoint: "Anchor-17" 0 0 basechar 0
AnchorPoint: "Anchor-16" 336 691 basechar 0
AnchorPoint: "Anchor-15" 0 0 basechar 0
AnchorPoint: "Anchor-14" 345 0 basechar 0
LayerCount: 2
Fore
SplineSet
569 552 m 128,-1,1
 611 468 611 468 611 340 c 0,2,3
 611 175 611 175 540.5 82.5 c 128,-1,4
 470 -10 470 -10 344 -10 c 0,5,6
 296 -10 296 -10 255 5 c 1,7,-1
 224 -111 l 1,8,-1
 201 -104 l 1,9,-1
 237 12 l 1,10,11
 162 47 162 47 120 131 c 128,-1,12
 78 215 78 215 78 339 c 0,13,14
 78 449 78 449 111.5 528.5 c 128,-1,15
 145 608 145 608 205 649.5 c 128,-1,16
 265 691 265 691 344 691 c 0,17,18
 390 691 390 691 432 677 c 1,19,-1
 432 678 l 1,20,-1
 465 798 l 1,21,-1
 488 792 l 1,22,-1
 450 670 l 1,23,0
 527 636 527 636 569 552 c 128,-1,1
139 144 m 128,-1,25
 177 66 177 66 245 33 c 1,26,-1
 427 656 l 1,27,28
 388 670 388 670 344 670 c 0,29,30
 271 670 271 670 216.5 631.5 c 128,-1,31
 162 593 162 593 131.5 518.5 c 128,-1,32
 101 444 101 444 101 339 c 0,33,24
 101 222 101 222 139 144 c 128,-1,25
524 96.5 m 128,-1,35
 588 181 588 181 588 340 c 0,36,37
 588 461 588 461 550.5 539.5 c 128,-1,38
 513 618 513 618 443 650 c 1,39,-1
 261 26 l 1,40,41
 301 12 301 12 344 12 c 0,42,34
 460 12 460 12 524 96.5 c 128,-1,35
EndSplineSet
Substitution2: "'c2sc' Capitals to Small Capitals lookup 26 subtable" oslash.sc
Substitution2: "'aalt' Access All Alternates lookup 0 subtable" oslash.sc
Position2: "'cpsp' Capital Spacing lookup 0 subtable" dx=5 dy=0 dh=10 dv=0
EndChar

StartChar: OE
Encoding: 338 338 224
Width: 845
GlyphClass: 2
Flags: W
AnchorPoint: "Anchor-18" 0 0 basechar 0
AnchorPoint: "Anchor-17" 0 0 basechar 0
AnchorPoint: "Anchor-16" 423 681 basechar 0
AnchorPoint: "Anchor-15" 0 0 basechar 0
AnchorPoint: "Anchor-14" 423 0 basechar 0
LayerCount: 2
Fore
SplineSet
802 0 m 1,0,-1
 397 0 l 1,1,2
 368 -10 368 -10 332 -10 c 0,3,4
 257 -10 257 -10 199.5 31 c 128,-1,5
 142 72 142 72 110 150.5 c 128,-1,6
 78 229 78 229 78 339 c 256,7,8
 78 449 78 449 110.5 528.5 c 128,-1,9
 143 608 143 608 200.5 649.5 c 128,-1,10
 258 691 258 691 332 691 c 0,11,12
 373 691 373 691 403 681 c 1,13,-1
 795 681 l 1,14,-1
 792 660 l 1,15,-1
 448 660 l 1,16,17
 512 624 512 624 548.5 550 c 128,-1,18
 585 476 585 476 588 370 c 1,19,-1
 751 370 l 1,20,-1
 751 349 l 1,21,-1
 588 349 l 1,22,23
 587 222 587 222 550 139 c 128,-1,24
 513 56 513 56 445 21 c 1,25,-1
 802 21 l 1,26,-1
 802 0 l 1,0,-1
130.5 161.5 m 128,-1,28
 160 88 160 88 212 50 c 128,-1,29
 264 12 264 12 332 12 c 0,30,31
 442 12 442 12 503.5 99 c 128,-1,32
 565 186 565 186 565 352 c 0,33,34
 565 453 565 453 536 524.5 c 128,-1,35
 507 596 507 596 454.5 633 c 128,-1,36
 402 670 402 670 332 670 c 0,37,38
 264 670 264 670 212 631.5 c 128,-1,39
 160 593 160 593 130.5 518.5 c 128,-1,40
 101 444 101 444 101 339 c 0,41,27
 101 235 101 235 130.5 161.5 c 128,-1,28
EndSplineSet
Substitution2: "'c2sc' Capitals to Small Capitals lookup 26 subtable" oe.sc
Substitution2: "'aalt' Access All Alternates lookup 0 subtable" oe.sc
Position2: "'cpsp' Capital Spacing lookup 0 subtable" dx=5 dy=0 dh=10 dv=0
EndChar

StartChar: P
Encoding: 80 80 225
Width: 558
GlyphClass: 2
Flags: W
AnchorPoint: "Anchor-18" 0 0 basechar 0
AnchorPoint: "Anchor-17" 0 0 basechar 0
AnchorPoint: "Anchor-16" 280 681 basechar 0
AnchorPoint: "Anchor-15" 0 0 basechar 0
AnchorPoint: "Anchor-14" 135 0 basechar 0
LayerCount: 2
Fore
SplineSet
440.5 633.5 m 128,-1,1
 501 586 501 586 501 484 c 0,2,3
 501 379 501 379 436 330.5 c 128,-1,4
 371 282 371 282 256 282 c 2,5,-1
 146 282 l 1,6,-1
 146 0 l 1,7,-1
 123 0 l 1,8,-1
 123 681 l 1,9,-1
 261 681 l 2,10,0
 380 681 380 681 440.5 633.5 c 128,-1,1
419.5 345 m 128,-1,12
 477 387 477 387 477 483 c 0,13,14
 477 577 477 577 423.5 618.5 c 128,-1,15
 370 660 370 660 261 660 c 2,16,-1
 146 660 l 1,17,-1
 146 303 l 1,18,-1
 258 303 l 2,19,11
 362 303 362 303 419.5 345 c 128,-1,12
EndSplineSet
Substitution2: "'c2sc' Capitals to Small Capitals lookup 26 subtable" p.sc
Substitution2: "'aalt' Access All Alternates lookup 0 subtable" p.sc
Position2: "'cpsp' Capital Spacing lookup 0 subtable" dx=5 dy=0 dh=10 dv=0
EndChar

StartChar: uni01A4
Encoding: 420 420 228
Width: 601
GlyphClass: 2
Flags: W
AnchorPoint: "Anchor-18" 0 0 basechar 0
AnchorPoint: "Anchor-17" 0 0 basechar 0
AnchorPoint: "Anchor-16" 322 681 basechar 0
AnchorPoint: "Anchor-15" 0 0 basechar 0
AnchorPoint: "Anchor-14" 177 0 basechar 0
LayerCount: 2
Fore
SplineSet
482.5 633.5 m 128,-1,1
 543 586 543 586 543 484 c 0,2,3
 543 379 543 379 478 330.5 c 128,-1,4
 413 282 413 282 298 282 c 2,5,-1
 188 282 l 1,6,-1
 188 0 l 1,7,-1
 165 0 l 1,8,-1
 165 661 l 1,9,-1
 132 661 l 2,10,11
 88 661 88 661 66.5 640 c 128,-1,12
 45 619 45 619 45 584 c 0,13,14
 45 562 45 562 51.5 545 c 128,-1,15
 58 528 58 528 70 508 c 1,16,-1
 53 498 l 1,17,18
 38 521 38 521 30.5 539 c 128,-1,19
 23 557 23 557 23 584 c 0,20,21
 23 629 23 629 52 655 c 128,-1,22
 81 681 81 681 135 681 c 2,23,-1
 303 681 l 2,24,0
 422 681 422 681 482.5 633.5 c 128,-1,1
461.5 345 m 128,-1,26
 519 387 519 387 519 483 c 0,27,28
 519 577 519 577 465.5 618.5 c 128,-1,29
 412 660 412 660 303 660 c 2,30,-1
 188 660 l 1,31,-1
 188 303 l 1,32,-1
 300 303 l 2,33,25
 404 303 404 303 461.5 345 c 128,-1,26
EndSplineSet
Substitution2: "'c2sc' Capitals to Small Capitals lookup 26 subtable" uni01A5.sc
Substitution2: "'aalt' Access All Alternates lookup 0 subtable" uni01A5.sc
Position2: "'cpsp' Capital Spacing lookup 0 subtable" dx=5 dy=0 dh=10 dv=0
EndChar

StartChar: Thorn
Encoding: 222 222 229
Width: 558
GlyphClass: 2
Flags: W
AnchorPoint: "Anchor-18" 0 0 basechar 0
AnchorPoint: "Anchor-17" 0 0 basechar 0
AnchorPoint: "Anchor-16" 279 681 basechar 0
AnchorPoint: "Anchor-15" 0 0 basechar 0
AnchorPoint: "Anchor-14" 279 0 basechar 0
LayerCount: 2
Fore
SplineSet
440.5 506 m 128,-1,1
 501 458 501 458 501 355 c 0,2,3
 501 147 501 147 256 147 c 2,4,-1
 146 147 l 1,5,-1
 146 0 l 1,6,-1
 123 0 l 1,7,-1
 123 681 l 1,8,-1
 146 681 l 1,9,-1
 146 554 l 1,10,-1
 261 554 l 2,11,0
 380 554 380 554 440.5 506 c 128,-1,1
420 211 m 128,-1,13
 477 254 477 254 477 355 c 0,14,15
 477 450 477 450 423.5 491.5 c 128,-1,16
 370 533 370 533 261 533 c 2,17,-1
 146 533 l 1,18,-1
 146 168 l 1,19,-1
 258 168 l 2,20,12
 363 168 363 168 420 211 c 128,-1,13
EndSplineSet
Substitution2: "'c2sc' Capitals to Small Capitals lookup 26 subtable" thorn.sc
Substitution2: "'aalt' Access All Alternates lookup 0 subtable" thorn.sc
Position2: "'cpsp' Capital Spacing lookup 0 subtable" dx=5 dy=0 dh=10 dv=0
EndChar

StartChar: Q
Encoding: 81 81 230
Width: 689
GlyphClass: 2
Flags: W
AnchorPoint: "Anchor-18" 0 0 basechar 0
AnchorPoint: "Anchor-17" 0 0 basechar 0
AnchorPoint: "Anchor-16" 337 681 basechar 0
AnchorPoint: "Anchor-15" 0 0 basechar 0
AnchorPoint: "Anchor-14" 337 0 basechar 0
LayerCount: 2
Fore
SplineSet
535 -11 m 128,-1,1
 589 -26 589 -26 630 -62 c 1,2,-1
 614 -81 l 1,3,4
 564 -39 564 -39 503.5 -23.5 c 128,-1,5
 443 -8 443 -8 344 -8 c 0,6,7
 264 -8 264 -8 204 32.5 c 128,-1,8
 144 73 144 73 111 151 c 128,-1,9
 78 229 78 229 78 339 c 256,10,11
 78 449 78 449 111.5 528.5 c 128,-1,12
 145 608 145 608 205 649.5 c 128,-1,13
 265 691 265 691 344 691 c 0,14,15
 425 691 425 691 485 650.5 c 128,-1,16
 545 610 545 610 578 531.5 c 128,-1,17
 611 453 611 453 611 340 c 0,18,19
 611 191 611 191 557.5 107.5 c 128,-1,20
 504 24 504 24 413 6 c 1,21,0
 481 4 481 4 535 -11 c 128,-1,1
131 161.5 m 128,-1,23
 161 88 161 88 216 50 c 128,-1,24
 271 12 271 12 344 12 c 0,25,26
 460 12 460 12 524 96.5 c 128,-1,27
 588 181 588 181 588 340 c 0,28,29
 588 500 588 500 522.5 585 c 128,-1,30
 457 670 457 670 344 670 c 0,31,32
 271 670 271 670 216.5 631.5 c 128,-1,33
 162 593 162 593 131.5 518.5 c 128,-1,34
 101 444 101 444 101 339 c 0,35,22
 101 235 101 235 131 161.5 c 128,-1,23
EndSplineSet
Substitution2: "'c2sc' Capitals to Small Capitals lookup 26 subtable" q.sc
Substitution2: "'aalt' Access All Alternates lookup 0 subtable" q.sc
Position2: "'cpsp' Capital Spacing lookup 0 subtable" dx=5 dy=0 dh=10 dv=0
EndChar

StartChar: uni024A
Encoding: 586 586 231
Width: 648
GlyphClass: 2
Flags: W
AnchorPoint: "Anchor-18" 0 0 basechar 0
AnchorPoint: "Anchor-17" 0 0 basechar 0
AnchorPoint: "Anchor-16" 324 681 basechar 0
AnchorPoint: "Anchor-15" 0 0 basechar 0
AnchorPoint: "Anchor-14" 324 -192 basechar 0
LayerCount: 2
Fore
SplineSet
689 -167 m 1,0,1
 649 -197 649 -197 601 -197 c 0,2,3
 557 -197 557 -197 530 -168.5 c 128,-1,4
 503 -140 503 -140 503 -86 c 2,5,-1
 503 73 l 1,6,7
 439 -10 439 -10 324 -10 c 0,8,9
 254 -10 254 -10 198 29.5 c 128,-1,10
 142 69 142 69 110 145.5 c 128,-1,11
 78 222 78 222 78 329 c 0,12,13
 78 443 78 443 110.5 524.5 c 128,-1,14
 143 606 143 606 199.5 648.5 c 128,-1,15
 256 691 256 691 327 691 c 0,16,17
 439 691 439 691 504 612 c 1,18,-1
 506 681 l 1,19,-1
 525 681 l 1,20,-1
 525 1 l 1,21,-1
 526 1 l 1,22,-1
 526 -85 l 2,23,24
 526 -132 526 -132 546.5 -154 c 128,-1,25
 567 -176 567 -176 601 -176 c 0,26,27
 626 -176 626 -176 644 -169.5 c 128,-1,28
 662 -163 662 -163 678 -151 c 1,29,-1
 689 -167 l 1,0,1
503 102 m 1,31,-1
 503 584 l 1,32,33
 472 626 472 626 427.5 648 c 128,-1,34
 383 670 383 670 327 670 c 0,35,36
 262 670 262 670 211 631 c 128,-1,37
 160 592 160 592 130.5 515 c 128,-1,38
 101 438 101 438 101 329 c 0,39,40
 101 228 101 228 130 156.5 c 128,-1,41
 159 85 159 85 209.5 48.5 c 128,-1,42
 260 12 260 12 324 12 c 0,43,30
 440 12 440 12 503 102 c 1,31,-1
EndSplineSet
Substitution2: "'c2sc' Capitals to Small Capitals lookup 26 subtable" uni024B.sc
Substitution2: "'aalt' Access All Alternates lookup 0 subtable" uni024B.sc
Position2: "'cpsp' Capital Spacing lookup 0 subtable" dx=5 dy=0 dh=10 dv=0
EndChar

StartChar: R
Encoding: 82 82 232
Width: 572
GlyphClass: 2
Flags: W
AnchorPoint: "Anchor-18" 0 0 basechar 0
AnchorPoint: "Anchor-17" 0 0 basechar 0
AnchorPoint: "Anchor-16" 284 681 basechar 0
AnchorPoint: "Anchor-15" 0 0 basechar 0
AnchorPoint: "Anchor-14" 304 0 basechar 0
LayerCount: 2
Fore
SplineSet
313 324 m 1,0,-1
 146 324 l 1,1,-1
 146 0 l 1,2,-1
 123 0 l 1,3,-1
 123 681 l 1,4,-1
 272 681 l 2,5,6
 388 681 388 681 442 636 c 128,-1,7
 496 591 496 591 496 504 c 0,8,9
 496 425 496 425 453.5 382.5 c 128,-1,10
 411 340 411 340 337 327 c 1,11,-1
 528 0 l 1,12,-1
 501 0 l 1,13,-1
 313 324 l 1,0,-1
287 345 m 2,14,15
 374 345 374 345 423.5 384.5 c 128,-1,16
 473 424 473 424 473 504 c 0,17,18
 473 581 473 581 425.5 620.5 c 128,-1,19
 378 660 378 660 269 660 c 2,20,-1
 146 660 l 1,21,-1
 146 345 l 1,22,-1
 287 345 l 2,14,15
EndSplineSet
Substitution2: "'c2sc' Capitals to Small Capitals lookup 26 subtable" r.sc
Substitution2: "'aalt' Access All Alternates lookup 0 subtable" r.sc
Position2: "'cpsp' Capital Spacing lookup 0 subtable" dx=5 dy=0 dh=10 dv=0
EndChar

StartChar: uni024C
Encoding: 588 588 239
Width: 568
GlyphClass: 2
Flags: W
AnchorPoint: "Anchor-18" 0 0 basechar 0
AnchorPoint: "Anchor-17" 0 0 basechar 0
AnchorPoint: "Anchor-16" 279 681 basechar 0
AnchorPoint: "Anchor-15" 0 0 basechar 0
AnchorPoint: "Anchor-14" 299 0 basechar 0
LayerCount: 2
Fore
SplineSet
496 0 m 1,0,-1
 308 324 l 1,1,-1
 141 324 l 1,2,-1
 141 0 l 1,3,-1
 118 0 l 1,4,-1
 118 324 l 1,5,-1
 26 324 l 1,6,-1
 26 345 l 1,7,-1
 118 345 l 1,8,-1
 118 681 l 1,9,-1
 267 681 l 2,10,11
 383 681 383 681 437 636 c 128,-1,12
 491 591 491 591 491 504 c 0,13,14
 491 425 491 425 448.5 382.5 c 128,-1,15
 406 340 406 340 332 327 c 1,16,-1
 523 0 l 1,17,-1
 496 0 l 1,0,-1
418.5 384.5 m 128,-1,19
 468 424 468 424 468 504 c 0,20,21
 468 581 468 581 420.5 620.5 c 128,-1,22
 373 660 373 660 264 660 c 2,23,-1
 141 660 l 1,24,-1
 141 345 l 1,25,-1
 282 345 l 2,26,18
 369 345 369 345 418.5 384.5 c 128,-1,19
EndSplineSet
Substitution2: "'c2sc' Capitals to Small Capitals lookup 26 subtable" uni024D.sc
Substitution2: "'aalt' Access All Alternates lookup 0 subtable" uni024D.sc
Position2: "'cpsp' Capital Spacing lookup 0 subtable" dx=5 dy=0 dh=10 dv=0
EndChar

StartChar: uni2C64
Encoding: 11364 11364 240
Width: 572
GlyphClass: 2
Flags: W
AnchorPoint: "Anchor-18" 0 0 basechar 0
AnchorPoint: "Anchor-17" 0 0 basechar 0
AnchorPoint: "Anchor-16" 284 681 basechar 0
AnchorPoint: "Anchor-15" 0 0 basechar 0
AnchorPoint: "Anchor-14" 304 0 basechar 0
LayerCount: 2
Fore
SplineSet
166.5 -154 m 128,-1,1
 187 -176 187 -176 221 -176 c 0,2,3
 246 -176 246 -176 264 -169.5 c 128,-1,4
 282 -163 282 -163 298 -151 c 1,5,-1
 309 -167 l 1,6,7
 269 -197 269 -197 221 -197 c 0,8,9
 177 -197 177 -197 150 -168.5 c 128,-1,10
 123 -140 123 -140 123 -86 c 2,11,-1
 123 681 l 1,12,-1
 272 681 l 2,13,14
 388 681 388 681 442 636 c 128,-1,15
 496 591 496 591 496 504 c 0,16,17
 496 425 496 425 453.5 382.5 c 128,-1,18
 411 340 411 340 337 327 c 1,19,-1
 528 0 l 1,20,-1
 501 0 l 1,21,-1
 313 324 l 1,22,-1
 146 324 l 1,23,-1
 146 -85 l 2,24,0
 146 -132 146 -132 166.5 -154 c 128,-1,1
146 660 m 1,25,-1
 146 345 l 1,26,-1
 287 345 l 2,27,28
 374 345 374 345 423.5 384.5 c 128,-1,29
 473 424 473 424 473 504 c 0,30,31
 473 581 473 581 425.5 620.5 c 128,-1,32
 378 660 378 660 269 660 c 2,33,-1
 146 660 l 1,25,-1
EndSplineSet
Substitution2: "'ss01' Style Set 1 lookup 33 subtable" uni2C64.ss01
Substitution2: "'salt' Stylistic Alternatives lookup 32 subtable" uni2C64.ss01
Substitution2: "'c2sc' Capitals to Small Capitals lookup 26 subtable" uni2C64.sc
AlternateSubs2: "'aalt' Access All Alternates lookup 1 subtable" uni2C64.sc uni2C64.ss01
Position2: "'cpsp' Capital Spacing lookup 0 subtable" dx=5 dy=0 dh=10 dv=0
EndChar

StartChar: uni2C64.ss01
Encoding: 65544 -1 241
Width: 396
GlyphClass: 2
Flags: W
AnchorPoint: "Anchor-18" 0 0 basechar 0
AnchorPoint: "Anchor-17" 0 0 basechar 0
AnchorPoint: "Anchor-16" 198 681 basechar 0
AnchorPoint: "Anchor-15" 0 0 basechar 0
AnchorPoint: "Anchor-14" 198 -192 basechar 0
LayerCount: 2
Fore
SplineSet
383 682 m 1,1,-1
 378 662 l 1,2,3
 355 669 355 669 319 669 c 0,4,5
 257 669 257 669 214 630 c 128,-1,6
 171 591 171 591 146 506 c 1,7,-1
 146 -85 l 2,8,9
 146 -132 146 -132 166.5 -154 c 128,-1,10
 187 -176 187 -176 221 -176 c 0,11,12
 246 -176 246 -176 264 -169.5 c 128,-1,13
 282 -163 282 -163 298 -151 c 1,14,-1
 309 -167 l 1,15,16
 269 -197 269 -197 221 -197 c 0,17,18
 177 -197 177 -197 150 -168.5 c 128,-1,19
 123 -140 123 -140 123 -86 c 2,20,-1
 123 681 l 1,21,-1
 143 681 l 1,22,-1
 143 552 l 1,23,24
 166 622 166 622 211 656.5 c 128,-1,25
 256 691 256 691 319 691 c 0,26,0
 356 691 356 691 383 682 c 1,1,-1
EndSplineSet
Position2: "'cpsp' Capital Spacing lookup 0 subtable" dx=5 dy=0 dh=10 dv=0
EndChar

StartChar: S
Encoding: 83 83 242
Width: 536
GlyphClass: 2
Flags: W
AnchorPoint: "Anchor-18" 0 0 basechar 0
AnchorPoint: "Anchor-17" 0 0 basechar 0
AnchorPoint: "Anchor-16" 269 681 basechar 0
AnchorPoint: "Anchor-15" 0 0 basechar 0
AnchorPoint: "Anchor-14" 262 0 basechar 0
LayerCount: 2
Fore
SplineSet
364 674 m 128,-1,1
 405 657 405 657 445 622 c 1,2,-1
 430 605 l 1,3,4
 394 639 394 639 355.5 654.5 c 128,-1,5
 317 670 317 670 265 670 c 0,6,7
 192 670 192 670 147.5 632 c 128,-1,8
 103 594 103 594 103 534 c 0,9,10
 103 492 103 492 119.5 465 c 128,-1,11
 136 438 136 438 172 418 c 128,-1,12
 208 398 208 398 274 378 c 0,13,14
 344 356 344 356 385 332 c 128,-1,15
 426 308 426 308 446 272.5 c 128,-1,16
 466 237 466 237 466 182 c 0,17,18
 466 126 466 126 439.5 82 c 128,-1,19
 413 38 413 38 366 14 c 128,-1,20
 319 -10 319 -10 258 -10 c 0,21,22
 194 -10 194 -10 146 11 c 128,-1,23
 98 32 98 32 54 72 c 1,24,-1
 69 87 l 1,25,26
 109 50 109 50 152.5 31 c 128,-1,27
 196 12 196 12 257 12 c 0,28,29
 341 12 341 12 392.5 58 c 128,-1,30
 444 104 444 104 444 181 c 0,31,32
 444 231 444 231 426 262.5 c 128,-1,33
 408 294 408 294 370.5 315.5 c 128,-1,34
 333 337 333 337 266 358 c 0,35,36
 195 380 195 380 155 403 c 128,-1,37
 115 426 115 426 97.5 457 c 128,-1,38
 80 488 80 488 80 534 c 0,39,40
 80 578 80 578 103 614 c 128,-1,41
 126 650 126 650 168 670.5 c 128,-1,42
 210 691 210 691 265 691 c 0,43,0
 323 691 323 691 364 674 c 128,-1,1
EndSplineSet
Substitution2: "'c2sc' Capitals to Small Capitals lookup 26 subtable" s.sc
Substitution2: "'aalt' Access All Alternates lookup 0 subtable" s.sc
Position2: "'cpsp' Capital Spacing lookup 0 subtable" dx=5 dy=0 dh=10 dv=0
EndChar

StartChar: uniA78B
Encoding: 42891 42891 245
Width: 190
GlyphClass: 2
Flags: W
LayerCount: 2
Fore
SplineSet
86 361 m 1,0,-1
 83 681 l 1,1,-1
 107 681 l 1,2,-1
 104 361 l 1,3,-1
 86 361 l 1,0,-1
EndSplineSet
Position2: "'cpsp' Capital Spacing lookup 0 subtable" dx=5 dy=0 dh=10 dv=0
EndChar

StartChar: Scedilla
Encoding: 350 350 247
Width: 536
GlyphClass: 2
Flags: W
AnchorPoint: "Anchor-18" 0 0 basechar 0
AnchorPoint: "Anchor-17" 0 0 basechar 0
AnchorPoint: "Anchor-16" 269 681 basechar 0
AnchorPoint: "Anchor-15" 0 0 basechar 0
AnchorPoint: "Anchor-14" 280 -212 basechar 0
LayerCount: 2
Fore
SplineSet
440.5 83.5 m 128,-1,1
 415 40 415 40 369 15.5 c 128,-1,2
 323 -9 323 -9 264 -10 c 1,3,-1
 263 -74 l 1,4,5
 354 -79 354 -79 354 -140 c 0,6,7
 354 -174 354 -174 329.5 -193 c 128,-1,8
 305 -212 305 -212 270 -212 c 0,9,10
 233 -212 233 -212 202 -194 c 1,11,-1
 212 -177 l 1,12,13
 235 -192 235 -192 270 -192 c 0,14,15
 296 -192 296 -192 313.5 -179 c 128,-1,16
 331 -166 331 -166 331 -140 c 0,17,18
 331 -115 331 -115 309.5 -103 c 128,-1,19
 288 -91 288 -91 242 -90 c 1,20,-1
 247 -10 l 1,21,22
 188 -8 188 -8 142 13 c 128,-1,23
 96 34 96 34 54 72 c 1,24,-1
 69 87 l 1,25,26
 109 50 109 50 152.5 31 c 128,-1,27
 196 12 196 12 257 12 c 0,28,29
 341 12 341 12 392.5 58 c 128,-1,30
 444 104 444 104 444 181 c 0,31,32
 444 231 444 231 426 262.5 c 128,-1,33
 408 294 408 294 370.5 315.5 c 128,-1,34
 333 337 333 337 266 358 c 0,35,36
 195 380 195 380 155 403 c 128,-1,37
 115 426 115 426 97.5 457 c 128,-1,38
 80 488 80 488 80 534 c 0,39,40
 80 578 80 578 103 614 c 128,-1,41
 126 650 126 650 168 670.5 c 128,-1,42
 210 691 210 691 265 691 c 0,43,44
 323 691 323 691 364 674 c 128,-1,45
 405 657 405 657 445 622 c 1,46,-1
 430 605 l 1,47,48
 394 639 394 639 355.5 654.5 c 128,-1,49
 317 670 317 670 265 670 c 0,50,51
 192 670 192 670 147.5 632 c 128,-1,52
 103 594 103 594 103 534 c 0,53,54
 103 492 103 492 119.5 465 c 128,-1,55
 136 438 136 438 172 418 c 128,-1,56
 208 398 208 398 274 378 c 0,57,58
 344 356 344 356 385 332 c 128,-1,59
 426 308 426 308 446 272.5 c 128,-1,60
 466 237 466 237 466 182 c 256,61,0
 466 127 466 127 440.5 83.5 c 128,-1,1
EndSplineSet
Substitution2: "'c2sc' Capitals to Small Capitals lookup 26 subtable" scedilla.sc
Substitution2: "'locl' Localized Forms in Latin lookup 5 subtable" Scommaaccent
Substitution2: "'locl' Localized Forms in Latin lookup 4 subtable" Scommaaccent
AlternateSubs2: "'aalt' Access All Alternates lookup 1 subtable" Scommaaccent scedilla.sc
Position2: "'cpsp' Capital Spacing lookup 0 subtable" dx=5 dy=0 dh=10 dv=0
EndChar

StartChar: uni1E9E
Encoding: 7838 7838 252
Width: 637
GlyphClass: 2
Flags: W
LayerCount: 2
Fore
SplineSet
432.5 674.5 m 128,-1,1
 484 658 484 658 538 626 c 1,2,-1
 538 608 l 1,3,-1
 330 382 l 1,4,5
 455 368 455 368 515.5 318.5 c 128,-1,6
 576 269 576 269 576 179 c 0,7,8
 576 92 576 92 525.5 41 c 128,-1,9
 475 -10 475 -10 388 -10 c 0,10,11
 323 -10 323 -10 276 12 c 1,12,-1
 285 30 l 1,13,14
 333 11 333 11 388 11 c 0,15,16
 464 11 464 11 508 55 c 128,-1,17
 552 99 552 99 552 179 c 0,18,19
 552 264 552 264 493 308 c 128,-1,20
 434 352 434 352 306 364 c 1,21,-1
 306 385 l 1,22,-1
 514 615 l 1,23,24
 466 641 466 641 420.5 655.5 c 128,-1,25
 375 670 375 670 322 670 c 0,26,27
 237 670 237 670 191.5 626 c 128,-1,28
 146 582 146 582 146 492 c 2,29,-1
 146 0 l 1,30,-1
 123 0 l 1,31,-1
 123 495 l 2,32,33
 123 589 123 589 175.5 640 c 128,-1,34
 228 691 228 691 322 691 c 0,35,0
 381 691 381 691 432.5 674.5 c 128,-1,1
EndSplineSet
Substitution2: "'c2sc' Capitals to Small Capitals lookup 26 subtable" germandbls.sc
Substitution2: "'aalt' Access All Alternates lookup 0 subtable" germandbls.sc
Position2: "'cpsp' Capital Spacing lookup 0 subtable" dx=5 dy=0 dh=10 dv=0
EndChar

StartChar: T
Encoding: 84 84 254
Width: 476
GlyphClass: 2
Flags: W
AnchorPoint: "Anchor-18" 238 346 basechar 0
AnchorPoint: "Anchor-17" 0 0 basechar 0
AnchorPoint: "Anchor-16" 238 681 basechar 0
AnchorPoint: "Anchor-15" 0 0 basechar 0
AnchorPoint: "Anchor-14" 238 0 basechar 0
LayerCount: 2
Fore
SplineSet
463 681 m 1,0,-1
 459 659 l 1,1,-1
 249 659 l 1,2,-1
 249 0 l 1,3,-1
 226 0 l 1,4,-1
 226 659 l 1,5,-1
 16 659 l 1,6,-1
 16 681 l 1,7,-1
 463 681 l 1,0,-1
EndSplineSet
Substitution2: "'c2sc' Capitals to Small Capitals lookup 26 subtable" t.sc
Substitution2: "'aalt' Access All Alternates lookup 0 subtable" t.sc
Position2: "'cpsp' Capital Spacing lookup 0 subtable" dx=5 dy=0 dh=10 dv=0
EndChar

StartChar: Tbar
Encoding: 358 358 255
Width: 476
GlyphClass: 2
Flags: W
AnchorPoint: "Anchor-18" 238 346 basechar 0
AnchorPoint: "Anchor-17" 0 0 basechar 0
AnchorPoint: "Anchor-16" 238 681 basechar 0
AnchorPoint: "Anchor-15" 0 0 basechar 0
AnchorPoint: "Anchor-14" 238 0 basechar 0
LayerCount: 2
Fore
SplineSet
459 659 m 1,0,-1
 249 659 l 1,1,-1
 249 380 l 1,2,-1
 373 380 l 1,3,-1
 373 360 l 1,4,-1
 249 360 l 1,5,-1
 249 0 l 1,6,-1
 226 0 l 1,7,-1
 226 360 l 1,8,-1
 102 360 l 1,9,-1
 102 380 l 1,10,-1
 226 380 l 1,11,-1
 226 659 l 1,12,-1
 16 659 l 1,13,-1
 16 681 l 1,14,-1
 463 681 l 1,15,-1
 459 659 l 1,0,-1
EndSplineSet
Substitution2: "'c2sc' Capitals to Small Capitals lookup 26 subtable" tbar.sc
Substitution2: "'aalt' Access All Alternates lookup 0 subtable" tbar.sc
Position2: "'cpsp' Capital Spacing lookup 0 subtable" dx=5 dy=0 dh=10 dv=0
EndChar

StartChar: uni0162
Encoding: 354 354 257
Width: 476
GlyphClass: 2
Flags: W
AnchorPoint: "Anchor-18" 238 346 basechar 0
AnchorPoint: "Anchor-17" 0 0 basechar 0
AnchorPoint: "Anchor-16" 238 681 basechar 0
AnchorPoint: "Anchor-15" 0 0 basechar 0
AnchorPoint: "Anchor-14" 238 0 basechar 0
LayerCount: 2
Fore
SplineSet
247 -74 m 1,0,1
 338 -79 338 -79 338 -140 c 0,2,3
 338 -174 338 -174 313.5 -193 c 128,-1,4
 289 -212 289 -212 254 -212 c 0,5,6
 217 -212 217 -212 186 -194 c 1,7,-1
 196 -177 l 1,8,9
 219 -192 219 -192 254 -192 c 0,10,11
 280 -192 280 -192 297.5 -179 c 128,-1,12
 315 -166 315 -166 315 -140 c 0,13,14
 315 -115 315 -115 293.5 -103 c 128,-1,15
 272 -91 272 -91 226 -90 c 1,16,-1
 231 0 l 1,17,-1
 226 0 l 1,18,-1
 226 659 l 1,19,-1
 16 659 l 1,20,-1
 16 681 l 1,21,-1
 463 681 l 1,22,-1
 459 659 l 1,23,-1
 249 659 l 1,24,-1
 249 0 l 1,25,-1
 247 -74 l 1,0,1
EndSplineSet
Substitution2: "'c2sc' Capitals to Small Capitals lookup 26 subtable" uni0163.sc
Substitution2: "'locl' Localized Forms in Latin lookup 5 subtable" uni021A
Substitution2: "'locl' Localized Forms in Latin lookup 4 subtable" uni021A
AlternateSubs2: "'aalt' Access All Alternates lookup 1 subtable" uni021A uni0163.sc
Position2: "'cpsp' Capital Spacing lookup 0 subtable" dx=5 dy=0 dh=10 dv=0
EndChar

StartChar: uni023E
Encoding: 574 574 260
Width: 476
GlyphClass: 2
Flags: W
AnchorPoint: "Anchor-18" 0 0 basechar 0
AnchorPoint: "Anchor-17" 0 0 basechar 0
AnchorPoint: "Anchor-16" 238 681 basechar 0
AnchorPoint: "Anchor-15" 0 0 basechar 0
AnchorPoint: "Anchor-14" 238 0 basechar 0
LayerCount: 2
Fore
SplineSet
459 659 m 1,0,-1
 338 659 l 1,1,-1
 249 349 l 1,2,-1
 249 0 l 1,3,-1
 226 0 l 1,4,-1
 226 269 l 1,5,-1
 130 -66 l 1,6,-1
 113 -62 l 1,7,-1
 226 331 l 1,8,-1
 226 659 l 1,9,-1
 16 659 l 1,10,-1
 16 681 l 1,11,-1
 327 681 l 1,12,-1
 343 737 l 1,13,-1
 359 732 l 1,14,-1
 344 681 l 1,15,-1
 463 681 l 1,16,-1
 459 659 l 1,0,-1
249 410 m 1,17,-1
 321 659 l 1,18,-1
 249 659 l 1,19,-1
 249 410 l 1,17,-1
EndSplineSet
Substitution2: "'c2sc' Capitals to Small Capitals lookup 26 subtable" uni2C66.sc
Substitution2: "'aalt' Access All Alternates lookup 0 subtable" uni2C66.sc
Position2: "'cpsp' Capital Spacing lookup 0 subtable" dx=5 dy=0 dh=10 dv=0
EndChar

StartChar: uni01AC
Encoding: 428 428 263
Width: 496
GlyphClass: 2
Flags: W
AnchorPoint: "Anchor-18" 0 0 basechar 0
AnchorPoint: "Anchor-17" 0 0 basechar 0
AnchorPoint: "Anchor-16" 248 681 basechar 0
AnchorPoint: "Anchor-15" 0 0 basechar 0
AnchorPoint: "Anchor-14" 258 0 basechar 0
LayerCount: 2
Fore
SplineSet
479 659 m 1,0,-1
 269 659 l 1,1,-1
 269 0 l 1,2,-1
 246 0 l 1,3,-1
 246 659 l 1,4,-1
 132 659 l 2,5,6
 88 659 88 659 66.5 639 c 128,-1,7
 45 619 45 619 45 584 c 0,8,9
 45 562 45 562 51.5 545 c 128,-1,10
 58 528 58 528 70 508 c 1,11,-1
 53 498 l 1,12,13
 38 521 38 521 30.5 539 c 128,-1,14
 23 557 23 557 23 584 c 0,15,16
 23 629 23 629 52 655 c 128,-1,17
 81 681 81 681 137 681 c 2,18,-1
 483 681 l 1,19,-1
 479 659 l 1,0,-1
EndSplineSet
Substitution2: "'c2sc' Capitals to Small Capitals lookup 26 subtable" uni01AD.sc
Substitution2: "'aalt' Access All Alternates lookup 0 subtable" uni01AD.sc
Position2: "'cpsp' Capital Spacing lookup 0 subtable" dx=5 dy=0 dh=10 dv=0
EndChar

StartChar: uni0184
Encoding: 388 388 266
Width: 550
GlyphClass: 2
Flags: W
AnchorPoint: "Anchor-18" 0 0 basechar 0
AnchorPoint: "Anchor-17" 0 0 basechar 0
AnchorPoint: "Anchor-16" 275 681 basechar 0
AnchorPoint: "Anchor-15" 0 0 basechar 0
AnchorPoint: "Anchor-14" 275 0 basechar 0
LayerCount: 2
Fore
SplineSet
442.5 358.5 m 128,-1,1
 501 309 501 309 501 212 c 0,2,3
 501 106 501 106 441 53 c 128,-1,4
 381 0 381 0 277 0 c 2,5,-1
 123 0 l 1,6,-1
 123 587 l 1,7,-1
 91 609 l 1,8,9
 118 638 118 638 126 681 c 1,10,-1
 146 681 l 1,11,-1
 146 408 l 1,12,-1
 276 408 l 2,13,0
 384 408 384 408 442.5 358.5 c 128,-1,1
426.5 68.5 m 128,-1,15
 478 116 478 116 478 213 c 0,16,17
 478 301 478 301 426.5 344 c 128,-1,18
 375 387 375 387 278 387 c 2,19,-1
 146 387 l 1,20,-1
 146 21 l 1,21,-1
 283 21 l 2,22,14
 375 21 375 21 426.5 68.5 c 128,-1,15
EndSplineSet
Substitution2: "'c2sc' Capitals to Small Capitals lookup 26 subtable" uni0185.sc
Substitution2: "'aalt' Access All Alternates lookup 0 subtable" uni0185.sc
Position2: "'cpsp' Capital Spacing lookup 0 subtable" dx=5 dy=0 dh=10 dv=0
EndChar

StartChar: uni01A7
Encoding: 423 423 267
Width: 529
GlyphClass: 2
Flags: W
AnchorPoint: "Anchor-18" 0 0 basechar 0
AnchorPoint: "Anchor-17" 0 0 basechar 0
AnchorPoint: "Anchor-16" 265 681 basechar 0
AnchorPoint: "Anchor-15" 0 0 basechar 0
AnchorPoint: "Anchor-14" 265 0 basechar 0
LayerCount: 2
Fore
SplineSet
409 649 m 128,-1,1
 456 607 456 607 456 540 c 0,2,3
 456 493 456 493 438.5 461.5 c 128,-1,4
 421 430 421 430 381 406.5 c 128,-1,5
 341 383 341 383 270 359 c 0,6,7
 203 337 203 337 165.5 313.5 c 128,-1,8
 128 290 128 290 110.5 257.5 c 128,-1,9
 93 225 93 225 93 175 c 0,10,11
 93 100 93 100 142.5 56 c 128,-1,12
 192 12 192 12 270 12 c 0,13,14
 332 12 332 12 376 31 c 128,-1,15
 420 50 420 50 460 87 c 1,16,-1
 475 72 l 1,17,18
 432 32 432 32 383 11 c 128,-1,19
 334 -10 334 -10 269 -10 c 0,20,21
 212 -10 212 -10 166.5 13 c 128,-1,22
 121 36 121 36 95 78 c 128,-1,23
 69 120 69 120 69 175 c 0,24,25
 69 255 69 255 113.5 299.5 c 128,-1,26
 158 344 158 344 262 378 c 0,27,28
 328 399 328 399 364 420 c 128,-1,29
 400 441 400 441 416.5 469 c 128,-1,30
 433 497 433 497 433 540 c 0,31,32
 433 599 433 599 393 634.5 c 128,-1,33
 353 670 353 670 282 670 c 0,34,35
 228 670 228 670 187.5 655 c 128,-1,36
 147 640 147 640 105 606 c 1,37,-1
 91 622 l 1,38,39
 136 657 136 657 178.5 674 c 128,-1,40
 221 691 221 691 282 691 c 0,41,0
 362 691 362 691 409 649 c 128,-1,1
EndSplineSet
Substitution2: "'c2sc' Capitals to Small Capitals lookup 26 subtable" uni01A8.sc
Substitution2: "'aalt' Access All Alternates lookup 0 subtable" uni01A8.sc
Position2: "'cpsp' Capital Spacing lookup 0 subtable" dx=5 dy=0 dh=10 dv=0
EndChar

StartChar: uni01AE
Encoding: 430 430 268
Width: 476
GlyphClass: 2
Flags: W
AnchorPoint: "Anchor-18" 238 346 basechar 0
AnchorPoint: "Anchor-17" 0 0 basechar 0
AnchorPoint: "Anchor-16" 238 681 basechar 0
AnchorPoint: "Anchor-15" 0 0 basechar 0
AnchorPoint: "Anchor-14" 238 0 basechar 0
LayerCount: 2
Fore
SplineSet
269.5 -154 m 128,-1,1
 290 -176 290 -176 324 -176 c 0,2,3
 349 -176 349 -176 367 -169.5 c 128,-1,4
 385 -163 385 -163 401 -151 c 1,5,-1
 412 -167 l 1,6,7
 372 -197 372 -197 324 -197 c 0,8,9
 280 -197 280 -197 253 -168.5 c 128,-1,10
 226 -140 226 -140 226 -86 c 2,11,-1
 226 659 l 1,12,-1
 16 659 l 1,13,-1
 16 681 l 1,14,-1
 463 681 l 1,15,-1
 459 659 l 1,16,-1
 249 659 l 1,17,-1
 249 -85 l 2,18,0
 249 -132 249 -132 269.5 -154 c 128,-1,1
EndSplineSet
Substitution2: "'c2sc' Capitals to Small Capitals lookup 26 subtable" uni0288.sc
Substitution2: "'aalt' Access All Alternates lookup 0 subtable" uni0288.sc
Position2: "'cpsp' Capital Spacing lookup 0 subtable" dx=5 dy=0 dh=10 dv=0
EndChar

StartChar: U
Encoding: 85 85 269
Width: 640
GlyphClass: 2
Flags: W
AnchorPoint: "Anchor-18" 0 0 basechar 0
AnchorPoint: "Anchor-17" 538 681 basechar 0
AnchorPoint: "Anchor-16" 321 681 basechar 0
AnchorPoint: "Anchor-15" 404 0 basechar 0
AnchorPoint: "Anchor-14" 321 0 basechar 0
LayerCount: 2
Fore
SplineSet
528 207 m 2,0,1
 528 108 528 108 477 49 c 128,-1,2
 426 -10 426 -10 321 -10 c 0,3,4
 215 -10 215 -10 164 49 c 128,-1,5
 113 108 113 108 113 207 c 2,6,-1
 113 681 l 1,7,-1
 136 681 l 1,8,-1
 136 210 l 2,9,10
 136 117 136 117 180.5 64.5 c 128,-1,11
 225 12 225 12 321 12 c 0,12,13
 416 12 416 12 460.5 65 c 128,-1,14
 505 118 505 118 505 210 c 2,15,-1
 505 681 l 1,16,-1
 528 681 l 1,17,-1
 528 207 l 2,0,1
EndSplineSet
Substitution2: "'c2sc' Capitals to Small Capitals lookup 26 subtable" u.sc
Substitution2: "'aalt' Access All Alternates lookup 0 subtable" u.sc
Position2: "'cpsp' Capital Spacing lookup 0 subtable" dx=5 dy=0 dh=10 dv=0
EndChar

StartChar: uni0244
Encoding: 580 580 271
Width: 664
GlyphClass: 2
Flags: W
AnchorPoint: "Anchor-18" 0 0 basechar 0
AnchorPoint: "Anchor-17" 550 681 basechar 0
AnchorPoint: "Anchor-16" 333 681 basechar 0
AnchorPoint: "Anchor-15" 416 0 basechar 0
AnchorPoint: "Anchor-14" 333 0 basechar 0
LayerCount: 2
Fore
SplineSet
599 520 m 1,0,-1
 540 520 l 1,1,-1
 540 207 l 2,2,3
 540 108 540 108 489 49 c 128,-1,4
 438 -10 438 -10 333 -10 c 0,5,6
 227 -10 227 -10 176 49 c 128,-1,7
 125 108 125 108 125 207 c 2,8,-1
 125 520 l 1,9,-1
 65 520 l 1,10,-1
 65 538 l 1,11,-1
 125 538 l 1,12,-1
 125 681 l 1,13,-1
 148 681 l 1,14,-1
 148 538 l 1,15,-1
 517 538 l 1,16,-1
 517 681 l 1,17,-1
 540 681 l 1,18,-1
 540 538 l 1,19,-1
 599 538 l 1,20,-1
 599 520 l 1,0,-1
517 520 m 1,21,-1
 148 520 l 1,22,-1
 148 210 l 2,23,24
 148 117 148 117 192.5 64.5 c 128,-1,25
 237 12 237 12 333 12 c 0,26,27
 428 12 428 12 472.5 65 c 128,-1,28
 517 118 517 118 517 210 c 2,29,-1
 517 520 l 1,21,-1
EndSplineSet
Substitution2: "'c2sc' Capitals to Small Capitals lookup 26 subtable" uni0289.sc
Substitution2: "'aalt' Access All Alternates lookup 0 subtable" uni0289.sc
Position2: "'cpsp' Capital Spacing lookup 0 subtable" dx=5 dy=0 dh=10 dv=0
EndChar

StartChar: Uhorn
Encoding: 431 431 284
Width: 640
GlyphClass: 2
Flags: W
AnchorPoint: "Anchor-18" 0 0 basechar 0
AnchorPoint: "Anchor-17" 590 681 basechar 0
AnchorPoint: "Anchor-16" 321 681 basechar 0
AnchorPoint: "Anchor-15" 404 0 basechar 0
AnchorPoint: "Anchor-14" 321 0 basechar 0
LayerCount: 2
Fore
SplineSet
528 609 m 1,1,-1
 528 207 l 2,2,3
 528 108 528 108 477 49 c 128,-1,4
 426 -10 426 -10 321 -10 c 0,5,6
 215 -10 215 -10 164 49 c 128,-1,7
 113 108 113 108 113 207 c 2,8,-1
 113 681 l 1,9,-1
 136 681 l 1,10,-1
 136 210 l 2,11,12
 136 117 136 117 180.5 64.5 c 128,-1,13
 225 12 225 12 321 12 c 0,14,15
 416 12 416 12 460.5 65 c 128,-1,16
 505 118 505 118 505 210 c 2,17,-1
 505 681 l 1,18,-1
 528 681 l 1,19,-1
 528 625 l 1,20,21
 559 629 559 629 572.5 643.5 c 128,-1,22
 586 658 586 658 586 686 c 0,23,24
 586 723 586 723 572 758 c 1,25,-1
 589 765 l 1,26,27
 606 729 606 729 606 686 c 0,28,0
 606 614 606 614 528 609 c 1,1,-1
EndSplineSet
Substitution2: "'c2sc' Capitals to Small Capitals lookup 26 subtable" uhorn.sc
Substitution2: "'aalt' Access All Alternates lookup 0 subtable" uhorn.sc
Position2: "'cpsp' Capital Spacing lookup 0 subtable" dx=5 dy=0 dh=10 dv=0
EndChar

StartChar: uni1EE8
Encoding: 7912 7912 285
Width: 640
GlyphClass: 2
Flags: W
AnchorPoint: "Anchor-18" 0 0 basechar 0
AnchorPoint: "Anchor-17" 590 681 basechar 0
AnchorPoint: "Anchor-16" 322 861 basechar 0
AnchorPoint: "Anchor-15" 404 0 basechar 0
AnchorPoint: "Anchor-14" 321 0 basechar 0
LayerCount: 2
Fore
SplineSet
413 838 m 1,0,-1
 234 764 l 1,1,-1
 227 779 l 1,2,-1
 402 861 l 1,3,-1
 413 838 l 1,0,-1
528 609 m 1,5,-1
 528 207 l 2,6,7
 528 108 528 108 477 49 c 128,-1,8
 426 -10 426 -10 321 -10 c 0,9,10
 215 -10 215 -10 164 49 c 128,-1,11
 113 108 113 108 113 207 c 2,12,-1
 113 681 l 1,13,-1
 136 681 l 1,14,-1
 136 210 l 2,15,16
 136 117 136 117 180.5 64.5 c 128,-1,17
 225 12 225 12 321 12 c 0,18,19
 416 12 416 12 460.5 65 c 128,-1,20
 505 118 505 118 505 210 c 2,21,-1
 505 681 l 1,22,-1
 528 681 l 1,23,-1
 528 625 l 1,24,25
 559 629 559 629 572.5 643.5 c 128,-1,26
 586 658 586 658 586 686 c 0,27,28
 586 723 586 723 572 758 c 1,29,-1
 589 765 l 1,30,31
 606 729 606 729 606 686 c 0,32,4
 606 614 606 614 528 609 c 1,5,-1
EndSplineSet
Substitution2: "'c2sc' Capitals to Small Capitals lookup 26 subtable" uni1EE9.sc
Substitution2: "'aalt' Access All Alternates lookup 0 subtable" uni1EE9.sc
Position2: "'cpsp' Capital Spacing lookup 0 subtable" dx=5 dy=0 dh=10 dv=0
EndChar

StartChar: uni1EF0
Encoding: 7920 7920 286
Width: 640
GlyphClass: 2
Flags: W
AnchorPoint: "Anchor-18" 0 0 basechar 0
AnchorPoint: "Anchor-17" 590 681 basechar 0
AnchorPoint: "Anchor-16" 321 681 basechar 0
AnchorPoint: "Anchor-15" 404 0 basechar 0
AnchorPoint: "Anchor-14" 321 -192 basechar 0
LayerCount: 2
Fore
SplineSet
528 609 m 1,1,-1
 528 207 l 2,2,3
 528 108 528 108 477 49 c 128,-1,4
 426 -10 426 -10 321 -10 c 0,5,6
 215 -10 215 -10 164 49 c 128,-1,7
 113 108 113 108 113 207 c 2,8,-1
 113 681 l 1,9,-1
 136 681 l 1,10,-1
 136 210 l 2,11,12
 136 117 136 117 180.5 64.5 c 128,-1,13
 225 12 225 12 321 12 c 0,14,15
 416 12 416 12 460.5 65 c 128,-1,16
 505 118 505 118 505 210 c 2,17,-1
 505 681 l 1,18,-1
 528 681 l 1,19,-1
 528 625 l 1,20,21
 559 629 559 629 572.5 643.5 c 128,-1,22
 586 658 586 658 586 686 c 0,23,24
 586 723 586 723 572 758 c 1,25,-1
 589 765 l 1,26,27
 606 729 606 729 606 686 c 0,28,0
 606 614 606 614 528 609 c 1,1,-1
336.5 -104.5 m 128,-1,30
 342 -110 342 -110 342 -118 c 256,31,32
 342 -126 342 -126 336.5 -132 c 128,-1,33
 331 -138 331 -138 322 -138 c 0,34,35
 312 -138 312 -138 306.5 -132 c 128,-1,36
 301 -126 301 -126 301 -118 c 256,37,38
 301 -110 301 -110 306.5 -104.5 c 128,-1,39
 312 -99 312 -99 322 -99 c 0,40,29
 331 -99 331 -99 336.5 -104.5 c 128,-1,30
EndSplineSet
Substitution2: "'c2sc' Capitals to Small Capitals lookup 26 subtable" uni1EF1.sc
Substitution2: "'aalt' Access All Alternates lookup 0 subtable" uni1EF1.sc
Position2: "'cpsp' Capital Spacing lookup 0 subtable" dx=5 dy=0 dh=10 dv=0
EndChar

StartChar: uni1EEA
Encoding: 7914 7914 287
Width: 640
GlyphClass: 2
Flags: W
AnchorPoint: "Anchor-18" 0 0 basechar 0
AnchorPoint: "Anchor-17" 590 681 basechar 0
AnchorPoint: "Anchor-16" 323 861 basechar 0
AnchorPoint: "Anchor-15" 404 0 basechar 0
AnchorPoint: "Anchor-14" 321 0 basechar 0
LayerCount: 2
Fore
SplineSet
416 779 m 1,0,-1
 409 764 l 1,1,-1
 230 838 l 1,2,-1
 242 861 l 1,3,-1
 416 779 l 1,0,-1
528 609 m 1,5,-1
 528 207 l 2,6,7
 528 108 528 108 477 49 c 128,-1,8
 426 -10 426 -10 321 -10 c 0,9,10
 215 -10 215 -10 164 49 c 128,-1,11
 113 108 113 108 113 207 c 2,12,-1
 113 681 l 1,13,-1
 136 681 l 1,14,-1
 136 210 l 2,15,16
 136 117 136 117 180.5 64.5 c 128,-1,17
 225 12 225 12 321 12 c 0,18,19
 416 12 416 12 460.5 65 c 128,-1,20
 505 118 505 118 505 210 c 2,21,-1
 505 681 l 1,22,-1
 528 681 l 1,23,-1
 528 625 l 1,24,25
 559 629 559 629 572.5 643.5 c 128,-1,26
 586 658 586 658 586 686 c 0,27,28
 586 723 586 723 572 758 c 1,29,-1
 589 765 l 1,30,31
 606 729 606 729 606 686 c 0,32,4
 606 614 606 614 528 609 c 1,5,-1
EndSplineSet
Substitution2: "'c2sc' Capitals to Small Capitals lookup 26 subtable" uni1EEB.sc
Substitution2: "'aalt' Access All Alternates lookup 0 subtable" uni1EEB.sc
Position2: "'cpsp' Capital Spacing lookup 0 subtable" dx=5 dy=0 dh=10 dv=0
EndChar

StartChar: uni1EEC
Encoding: 7916 7916 288
Width: 640
GlyphClass: 2
Flags: W
AnchorPoint: "Anchor-18" 0 0 basechar 0
AnchorPoint: "Anchor-17" 590 681 basechar 0
AnchorPoint: "Anchor-16" 331 957 basechar 0
AnchorPoint: "Anchor-15" 404 0 basechar 0
AnchorPoint: "Anchor-14" 321 0 basechar 0
LayerCount: 2
Fore
SplineSet
267 922 m 1,1,-1
 259 939 l 1,2,3
 290 957 290 957 326 957 c 0,4,5
 360 957 360 957 380.5 939 c 128,-1,6
 401 921 401 921 401 891 c 0,7,8
 401 832 401 832 332 825 c 1,9,-1
 332 782 l 1,10,-1
 310 782 l 1,11,-1
 310 839 l 1,12,13
 377 841 377 841 377 891 c 0,14,15
 377 913 377 913 363.5 925 c 128,-1,16
 350 937 350 937 325 937 c 0,17,0
 295 937 295 937 267 922 c 1,1,-1
528 609 m 1,19,-1
 528 207 l 2,20,21
 528 108 528 108 477 49 c 128,-1,22
 426 -10 426 -10 321 -10 c 0,23,24
 215 -10 215 -10 164 49 c 128,-1,25
 113 108 113 108 113 207 c 2,26,-1
 113 681 l 1,27,-1
 136 681 l 1,28,-1
 136 210 l 2,29,30
 136 117 136 117 180.5 64.5 c 128,-1,31
 225 12 225 12 321 12 c 0,32,33
 416 12 416 12 460.5 65 c 128,-1,34
 505 118 505 118 505 210 c 2,35,-1
 505 681 l 1,36,-1
 528 681 l 1,37,-1
 528 625 l 1,38,39
 559 629 559 629 572.5 643.5 c 128,-1,40
 586 658 586 658 586 686 c 0,41,42
 586 723 586 723 572 758 c 1,43,-1
 589 765 l 1,44,45
 606 729 606 729 606 686 c 0,46,18
 606 614 606 614 528 609 c 1,19,-1
EndSplineSet
Substitution2: "'c2sc' Capitals to Small Capitals lookup 26 subtable" uni1EED.sc
Substitution2: "'aalt' Access All Alternates lookup 0 subtable" uni1EED.sc
Position2: "'cpsp' Capital Spacing lookup 0 subtable" dx=5 dy=0 dh=10 dv=0
EndChar

StartChar: uni1EEE
Encoding: 7918 7918 289
Width: 640
GlyphClass: 2
Flags: W
AnchorPoint: "Anchor-18" 0 0 basechar 0
AnchorPoint: "Anchor-17" 590 681 basechar 0
AnchorPoint: "Anchor-16" 323 867 basechar 0
AnchorPoint: "Anchor-15" 404 0 basechar 0
AnchorPoint: "Anchor-14" 321 0 basechar 0
LayerCount: 2
Fore
SplineSet
231 839 m 128,-1,1
 218 831 218 831 202 812 c 1,2,-1
 188 821 l 1,3,4
 205 844 205 844 222.5 855.5 c 128,-1,5
 240 867 240 867 262 867 c 0,6,7
 283 867 283 867 319 846 c 0,8,9
 340 835 340 835 352.5 829.5 c 128,-1,10
 365 824 365 824 379 824 c 0,11,12
 396 824 396 824 409 833 c 128,-1,13
 422 842 422 842 438 865 c 1,14,-1
 452 857 l 1,15,16
 437 829 437 829 419 816.5 c 128,-1,17
 401 804 401 804 379 804 c 0,18,19
 362 804 362 804 348 809.5 c 128,-1,20
 334 815 334 815 310 828 c 0,21,22
 293 838 293 838 283 842.5 c 128,-1,23
 273 847 273 847 262 847 c 0,24,0
 244 847 244 847 231 839 c 128,-1,1
528 609 m 1,26,-1
 528 207 l 2,27,28
 528 108 528 108 477 49 c 128,-1,29
 426 -10 426 -10 321 -10 c 0,30,31
 215 -10 215 -10 164 49 c 128,-1,32
 113 108 113 108 113 207 c 2,33,-1
 113 681 l 1,34,-1
 136 681 l 1,35,-1
 136 210 l 2,36,37
 136 117 136 117 180.5 64.5 c 128,-1,38
 225 12 225 12 321 12 c 0,39,40
 416 12 416 12 460.5 65 c 128,-1,41
 505 118 505 118 505 210 c 2,42,-1
 505 681 l 1,43,-1
 528 681 l 1,44,-1
 528 625 l 1,45,46
 559 629 559 629 572.5 643.5 c 128,-1,47
 586 658 586 658 586 686 c 0,48,49
 586 723 586 723 572 758 c 1,50,-1
 589 765 l 1,51,52
 606 729 606 729 606 686 c 0,53,25
 606 614 606 614 528 609 c 1,26,-1
EndSplineSet
Substitution2: "'c2sc' Capitals to Small Capitals lookup 26 subtable" uni1EEF.sc
Substitution2: "'aalt' Access All Alternates lookup 0 subtable" uni1EEF.sc
Position2: "'cpsp' Capital Spacing lookup 0 subtable" dx=5 dy=0 dh=10 dv=0
EndChar

StartChar: Uogonek
Encoding: 370 370 293
Width: 640
GlyphClass: 2
Flags: W
AnchorPoint: "Anchor-18" 0 0 basechar 0
AnchorPoint: "Anchor-17" 538 681 basechar 0
AnchorPoint: "Anchor-16" 321 681 basechar 0
AnchorPoint: "Anchor-15" 404 0 basechar 0
AnchorPoint: "Anchor-14" 321 0 basechar 0
LayerCount: 2
Fore
SplineSet
528 681 m 1,0,-1
 528 207 l 2,1,2
 528 126 528 126 493.5 71 c 128,-1,3
 459 16 459 16 389 -2 c 1,4,5
 330 -28 330 -28 299.5 -55 c 128,-1,6
 269 -82 269 -82 269 -121 c 0,7,8
 269 -149 269 -149 288 -165 c 128,-1,9
 307 -181 307 -181 341 -181 c 0,10,11
 365 -181 365 -181 394 -174 c 1,12,-1
 392 -196 l 1,13,14
 363 -203 363 -203 338 -203 c 0,15,16
 292 -203 292 -203 268.5 -180.5 c 128,-1,17
 245 -158 245 -158 245 -121 c 0,18,19
 245 -86 245 -86 269.5 -59 c 128,-1,20
 294 -32 294 -32 341 -9 c 1,21,22
 335 -10 335 -10 321 -10 c 0,23,24
 215 -10 215 -10 164 49 c 128,-1,25
 113 108 113 108 113 207 c 2,26,-1
 113 681 l 1,27,-1
 136 681 l 1,28,-1
 136 210 l 2,29,30
 136 117 136 117 180.5 64.5 c 128,-1,31
 225 12 225 12 321 12 c 0,32,33
 416 12 416 12 460.5 65 c 128,-1,34
 505 118 505 118 505 210 c 2,35,-1
 505 681 l 1,36,-1
 528 681 l 1,0,-1
EndSplineSet
Substitution2: "'c2sc' Capitals to Small Capitals lookup 26 subtable" uogonek.sc
Substitution2: "'aalt' Access All Alternates lookup 0 subtable" uogonek.sc
Position2: "'cpsp' Capital Spacing lookup 0 subtable" dx=5 dy=0 dh=10 dv=0
EndChar

StartChar: uni01B1
Encoding: 433 433 294
Width: 689
GlyphClass: 2
Flags: W
AnchorPoint: "Anchor-18" 0 0 basechar 0
AnchorPoint: "Anchor-17" 0 0 basechar 0
AnchorPoint: "Anchor-16" 345 681 basechar 0
AnchorPoint: "Anchor-15" 0 0 basechar 0
AnchorPoint: "Anchor-14" 345 0 basechar 0
LayerCount: 2
Fore
SplineSet
204.5 30 m 128,-1,1
 144 70 144 70 111 145 c 128,-1,2
 78 220 78 220 78 320 c 0,3,4
 78 550 78 550 227 660 c 1,5,-1
 102 660 l 1,6,-1
 102 681 l 1,7,-1
 263 681 l 1,8,-1
 263 661 l 1,9,10
 191 616 191 616 146 533 c 128,-1,11
 101 450 101 450 101 320 c 0,12,13
 101 224 101 224 131 154.5 c 128,-1,14
 161 85 161 85 216.5 48 c 128,-1,15
 272 11 272 11 345 11 c 256,16,17
 418 11 418 11 473 48 c 128,-1,18
 528 85 528 85 558 155 c 128,-1,19
 588 225 588 225 588 321 c 0,20,21
 588 450 588 450 543.5 533 c 128,-1,22
 499 616 499 616 427 661 c 1,23,-1
 427 681 l 1,24,-1
 588 681 l 1,25,-1
 588 660 l 1,26,-1
 462 660 l 1,27,28
 529 612 529 612 570 531.5 c 128,-1,29
 611 451 611 451 611 321 c 0,30,31
 611 220 611 220 578 145.5 c 128,-1,32
 545 71 545 71 485 30.5 c 128,-1,33
 425 -10 425 -10 345 -10 c 256,34,0
 265 -10 265 -10 204.5 30 c 128,-1,1
EndSplineSet
Substitution2: "'c2sc' Capitals to Small Capitals lookup 26 subtable" uni01B1.sc
Substitution2: "'aalt' Access All Alternates lookup 0 subtable" uni01B1.sc
Position2: "'cpsp' Capital Spacing lookup 0 subtable" dx=5 dy=0 dh=10 dv=0
EndChar

StartChar: V
Encoding: 86 86 298
Width: 534
GlyphClass: 2
Flags: W
AnchorPoint: "Anchor-18" 0 0 basechar 0
AnchorPoint: "Anchor-17" 0 0 basechar 0
AnchorPoint: "Anchor-16" 267 681 basechar 0
AnchorPoint: "Anchor-15" 0 0 basechar 0
AnchorPoint: "Anchor-14" 267 0 basechar 0
LayerCount: 2
Fore
SplineSet
506 681 m 1,0,-1
 281 0 l 1,1,-1
 253 0 l 1,2,-1
 28 681 l 1,3,-1
 52 681 l 1,4,-1
 267 21 l 1,5,-1
 482 681 l 1,6,-1
 506 681 l 1,0,-1
EndSplineSet
Substitution2: "'c2sc' Capitals to Small Capitals lookup 26 subtable" v.sc
Substitution2: "'aalt' Access All Alternates lookup 0 subtable" v.sc
Position2: "'cpsp' Capital Spacing lookup 0 subtable" dx=5 dy=0 dh=10 dv=0
EndChar

StartChar: uni01B2
Encoding: 434 434 299
Width: 640
GlyphClass: 2
Flags: W
AnchorPoint: "Anchor-18" 0 0 basechar 0
AnchorPoint: "Anchor-17" 0 0 basechar 0
AnchorPoint: "Anchor-16" 306 681 basechar 0
AnchorPoint: "Anchor-15" 0 0 basechar 0
AnchorPoint: "Anchor-14" 306 0 basechar 0
LayerCount: 2
Fore
SplineSet
508 668.5 m 128,-1,1
 528 646 528 646 528 601 c 2,2,-1
 528 287 l 2,3,4
 528 190 528 190 498 123 c 128,-1,5
 468 56 468 56 415.5 23 c 128,-1,6
 363 -10 363 -10 295 -10 c 0,7,8
 210 -10 210 -10 161.5 40.5 c 128,-1,9
 113 91 113 91 113 179 c 2,10,-1
 113 681 l 1,11,-1
 136 681 l 1,12,-1
 136 181 l 2,13,14
 136 101 136 101 178.5 56.5 c 128,-1,15
 221 12 221 12 295 12 c 0,16,17
 391 12 391 12 448 82.5 c 128,-1,18
 505 153 505 153 505 290 c 2,19,-1
 505 601 l 2,20,21
 505 672 505 672 451 672 c 0,22,23
 428 672 428 672 406 661 c 1,24,-1
 397 677 l 1,25,26
 422 691 422 691 451 691 c 0,27,0
 488 691 488 691 508 668.5 c 128,-1,1
EndSplineSet
Substitution2: "'c2sc' Capitals to Small Capitals lookup 26 subtable" uni028B.sc
Substitution2: "'aalt' Access All Alternates lookup 0 subtable" uni028B.sc
Position2: "'cpsp' Capital Spacing lookup 0 subtable" dx=5 dy=0 dh=10 dv=0
EndChar

StartChar: W
Encoding: 87 87 301
Width: 790
GlyphClass: 2
Flags: W
AnchorPoint: "Anchor-18" 0 0 basechar 0
AnchorPoint: "Anchor-17" 0 0 basechar 0
AnchorPoint: "Anchor-16" 395 681 basechar 0
AnchorPoint: "Anchor-15" 0 0 basechar 0
AnchorPoint: "Anchor-14" 395 0 basechar 0
LayerCount: 2
Fore
SplineSet
752 681 m 1,0,-1
 593 0 l 1,1,-1
 567 0 l 1,2,-1
 395 659 l 1,3,-1
 223 0 l 1,4,-1
 197 0 l 1,5,-1
 38 681 l 1,6,-1
 62 681 l 1,7,-1
 212 24 l 1,8,-1
 381 681 l 1,9,-1
 409 681 l 1,10,-1
 580 24 l 1,11,-1
 729 681 l 1,12,-1
 752 681 l 1,0,-1
EndSplineSet
Substitution2: "'c2sc' Capitals to Small Capitals lookup 26 subtable" w.sc
Substitution2: "'aalt' Access All Alternates lookup 0 subtable" w.sc
Position2: "'cpsp' Capital Spacing lookup 0 subtable" dx=5 dy=0 dh=10 dv=0
EndChar

StartChar: uni2C72
Encoding: 11378 11378 306
Width: 822
GlyphClass: 2
Flags: W
AnchorPoint: "Anchor-18" 0 0 basechar 0
AnchorPoint: "Anchor-17" 0 0 basechar 0
AnchorPoint: "Anchor-16" 395 681 basechar 0
AnchorPoint: "Anchor-15" 0 0 basechar 0
AnchorPoint: "Anchor-14" 395 0 basechar 0
LayerCount: 2
Fore
SplineSet
197 0 m 1,0,-1
 223 0 l 1,1,-1
 395 659 l 1,2,-1
 567 0 l 1,3,-1
 593 0 l 1,4,-1
 731 603 l 2,5,6
 740 641 740 641 757.5 656.5 c 128,-1,7
 775 672 775 672 804 672 c 0,8,9
 826 672 826 672 841 664.5 c 128,-1,10
 856 657 856 657 873 641 c 1,11,-1
 885 654 l 1,12,13
 850 691 850 691 804 691 c 0,14,15
 730 691 730 691 712 609 c 2,16,-1
 580 24 l 1,17,-1
 409 681 l 1,18,-1
 381 681 l 1,19,-1
 212 23 l 1,20,-1
 62 681 l 1,21,-1
 38 681 l 1,22,-1
 197 0 l 1,0,-1
EndSplineSet
Substitution2: "'c2sc' Capitals to Small Capitals lookup 26 subtable" uni2C73.sc
Substitution2: "'aalt' Access All Alternates lookup 0 subtable" uni2C73.sc
Position2: "'cpsp' Capital Spacing lookup 0 subtable" dx=5 dy=0 dh=10 dv=0
EndChar

StartChar: uni01F7
Encoding: 503 503 307
Width: 558
GlyphClass: 2
Flags: W
AnchorPoint: "Anchor-18" 0 0 basechar 0
AnchorPoint: "Anchor-17" 0 0 basechar 0
AnchorPoint: "Anchor-16" 279 681 basechar 0
AnchorPoint: "Anchor-15" 0 0 basechar 0
AnchorPoint: "Anchor-14" 279 0 basechar 0
LayerCount: 2
Fore
SplineSet
453 644 m 128,-1,1
 501 597 501 597 501 516 c 0,2,3
 501 416 501 416 438 359 c 128,-1,4
 375 302 375 302 256 262 c 2,5,-1
 146 224 l 1,6,-1
 146 0 l 1,7,-1
 123 0 l 1,8,-1
 123 681 l 1,9,-1
 146 681 l 1,10,-1
 146 618 l 1,11,12
 182 651 182 651 225 671 c 128,-1,13
 268 691 268 691 326 691 c 0,14,0
 405 691 405 691 453 644 c 128,-1,1
420.5 371.5 m 128,-1,16
 477 423 477 423 477 516 c 0,17,18
 477 589 477 589 436 629.5 c 128,-1,19
 395 670 395 670 326 670 c 0,20,21
 269 670 269 670 226.5 650 c 128,-1,22
 184 630 184 630 146 596 c 1,23,-1
 146 245 l 1,24,-1
 258 284 l 2,25,15
 364 320 364 320 420.5 371.5 c 128,-1,16
EndSplineSet
Substitution2: "'c2sc' Capitals to Small Capitals lookup 26 subtable" uni01BF.sc
Substitution2: "'aalt' Access All Alternates lookup 0 subtable" uni01BF.sc
Position2: "'cpsp' Capital Spacing lookup 0 subtable" dx=5 dy=0 dh=10 dv=0
EndChar

StartChar: X
Encoding: 88 88 308
Width: 486
GlyphClass: 2
Flags: W
AnchorPoint: "Anchor-18" 0 0 basechar 0
AnchorPoint: "Anchor-17" 0 0 basechar 0
AnchorPoint: "Anchor-16" 241 681 basechar 0
AnchorPoint: "Anchor-15" 0 0 basechar 0
AnchorPoint: "Anchor-14" 241 0 basechar 0
LayerCount: 2
Fore
SplineSet
254 370 m 1,0,-1
 469 0 l 1,1,-1
 444 0 l 1,2,-1
 240 355 l 1,3,-1
 41 0 l 1,4,-1
 16 0 l 1,5,-1
 227 369 l 1,6,-1
 41 681 l 1,7,-1
 67 681 l 1,8,-1
 240 384 l 1,9,-1
 413 681 l 1,10,-1
 437 681 l 1,11,-1
 254 370 l 1,0,-1
EndSplineSet
Substitution2: "'c2sc' Capitals to Small Capitals lookup 26 subtable" x.sc
Substitution2: "'aalt' Access All Alternates lookup 0 subtable" x.sc
Position2: "'cpsp' Capital Spacing lookup 0 subtable" dx=5 dy=0 dh=10 dv=0
EndChar

StartChar: Y
Encoding: 89 89 309
Width: 494
GlyphClass: 2
Flags: W
AnchorPoint: "Anchor-18" 0 0 basechar 0
AnchorPoint: "Anchor-17" 0 0 basechar 0
AnchorPoint: "Anchor-16" 247 681 basechar 0
AnchorPoint: "Anchor-15" 0 0 basechar 0
AnchorPoint: "Anchor-14" 249 0 basechar 0
LayerCount: 2
Fore
SplineSet
473 681 m 1,0,-1
 260 271 l 1,1,-1
 260 0 l 1,2,-1
 237 0 l 1,3,-1
 237 270 l 1,4,-1
 21 681 l 1,5,-1
 47 681 l 1,6,-1
 249 292 l 1,7,-1
 447 681 l 1,8,-1
 473 681 l 1,0,-1
EndSplineSet
Substitution2: "'c2sc' Capitals to Small Capitals lookup 26 subtable" y.sc
Substitution2: "'aalt' Access All Alternates lookup 0 subtable" y.sc
Position2: "'cpsp' Capital Spacing lookup 0 subtable" dx=5 dy=0 dh=10 dv=0
EndChar

StartChar: uni01B3
Encoding: 435 435 315
Width: 514
GlyphClass: 2
Flags: W
AnchorPoint: "Anchor-18" 0 0 basechar 0
AnchorPoint: "Anchor-17" 0 0 basechar 0
AnchorPoint: "Anchor-16" 257 681 basechar 0
AnchorPoint: "Anchor-15" 0 0 basechar 0
AnchorPoint: "Anchor-14" 249 0 basechar 0
LayerCount: 2
Fore
SplineSet
237 270 m 1,0,-1
 21 681 l 1,1,-1
 47 681 l 1,2,-1
 249 290 l 1,3,-1
 399 614 l 2,4,5
 418 655 418 655 440 673 c 128,-1,6
 462 691 462 691 495 691 c 0,7,8
 521 691 521 691 539.5 681.5 c 128,-1,9
 558 672 558 672 576 654 c 1,10,-1
 565 641 l 1,11,12
 546 657 546 657 531 664.5 c 128,-1,13
 516 672 516 672 495 672 c 0,14,15
 469 672 469 672 452.5 657.5 c 128,-1,16
 436 643 436 643 417 604 c 2,17,-1
 260 270 l 1,18,-1
 260 0 l 1,19,-1
 237 0 l 1,20,-1
 237 270 l 1,0,-1
EndSplineSet
Substitution2: "'c2sc' Capitals to Small Capitals lookup 26 subtable" uni01B4.sc
Substitution2: "'aalt' Access All Alternates lookup 0 subtable" uni01B4.sc
Position2: "'cpsp' Capital Spacing lookup 0 subtable" dx=5 dy=0 dh=10 dv=0
EndChar

StartChar: uni01A6
Encoding: 422 422 318
Width: 572
GlyphClass: 2
Flags: W
AnchorPoint: "Anchor-18" 0 0 basechar 0
AnchorPoint: "Anchor-17" 0 0 basechar 0
AnchorPoint: "Anchor-16" 286 681 basechar 0
AnchorPoint: "Anchor-15" 0 0 basechar 0
AnchorPoint: "Anchor-14" 286 -192 basechar 0
LayerCount: 2
Fore
SplineSet
313 191 m 1,0,-1
 146 191 l 1,1,-1
 146 0 l 1,2,-1
 123 0 l 1,3,-1
 123 681 l 1,4,-1
 146 681 l 1,5,-1
 146 549 l 1,6,-1
 272 549 l 2,7,8
 496 549 496 549 496 371 c 0,9,10
 496 224 496 224 337 194 c 1,11,-1
 528 -133 l 1,12,-1
 501 -133 l 1,13,-1
 313 191 l 1,0,-1
287 212 m 2,14,15
 374 212 374 212 423.5 251.5 c 128,-1,16
 473 291 473 291 473 371 c 0,17,18
 473 449 473 449 425.5 488 c 128,-1,19
 378 527 378 527 269 527 c 2,20,-1
 146 527 l 1,21,-1
 146 212 l 1,22,-1
 287 212 l 2,14,15
EndSplineSet
Substitution2: "'c2sc' Capitals to Small Capitals lookup 26 subtable" uni0280.sc
Substitution2: "'aalt' Access All Alternates lookup 0 subtable" uni0280.sc
Position2: "'cpsp' Capital Spacing lookup 0 subtable" dx=5 dy=0 dh=10 dv=0
EndChar

StartChar: uni024E
Encoding: 590 590 319
Width: 494
GlyphClass: 2
Flags: W
AnchorPoint: "Anchor-18" 0 0 basechar 0
AnchorPoint: "Anchor-17" 0 0 basechar 0
AnchorPoint: "Anchor-16" 247 681 basechar 0
AnchorPoint: "Anchor-15" 0 0 basechar 0
AnchorPoint: "Anchor-14" 247 0 basechar 0
LayerCount: 2
Fore
SplineSet
473 681 m 1,0,-1
 423 584 l 1,1,-1
 473 584 l 1,2,-1
 473 567 l 1,3,-1
 414 567 l 1,4,-1
 260 271 l 1,5,-1
 260 0 l 1,6,-1
 237 0 l 1,7,-1
 237 270 l 1,8,-1
 81 567 l 1,9,-1
 21 567 l 1,10,-1
 21 584 l 1,11,-1
 72 584 l 1,12,-1
 21 681 l 1,13,-1
 47 681 l 1,14,-1
 97 584 l 1,15,-1
 398 584 l 1,16,-1
 447 681 l 1,17,-1
 473 681 l 1,0,-1
249 290 m 1,18,-1
 389 567 l 1,19,-1
 106 567 l 1,20,-1
 249 290 l 1,18,-1
EndSplineSet
Substitution2: "'c2sc' Capitals to Small Capitals lookup 26 subtable" uni024F.sc
Substitution2: "'aalt' Access All Alternates lookup 0 subtable" uni024F.sc
Position2: "'cpsp' Capital Spacing lookup 0 subtable" dx=5 dy=0 dh=10 dv=0
EndChar

StartChar: Z
Encoding: 90 90 321
Width: 509
GlyphClass: 2
Flags: W
AnchorPoint: "Anchor-18" 0 0 basechar 0
AnchorPoint: "Anchor-17" 0 0 basechar 0
AnchorPoint: "Anchor-16" 255 681 basechar 0
AnchorPoint: "Anchor-15" 0 0 basechar 0
AnchorPoint: "Anchor-14" 258 0 basechar 0
LayerCount: 2
Fore
SplineSet
459 681 m 1,0,-1
 459 662 l 1,1,-1
 69 22 l 1,2,-1
 446 22 l 1,3,-1
 443 0 l 1,4,-1
 41 0 l 1,5,-1
 41 21 l 1,6,-1
 432 660 l 1,7,-1
 79 660 l 1,8,-1
 79 681 l 1,9,-1
 459 681 l 1,0,-1
EndSplineSet
Substitution2: "'c2sc' Capitals to Small Capitals lookup 26 subtable" z.sc
Substitution2: "'aalt' Access All Alternates lookup 0 subtable" z.sc
Position2: "'cpsp' Capital Spacing lookup 0 subtable" dx=5 dy=0 dh=10 dv=0
EndChar

StartChar: uni0224
Encoding: 548 548 327
Width: 509
GlyphClass: 2
Flags: W
AnchorPoint: "Anchor-18" 0 0 basechar 0
AnchorPoint: "Anchor-17" 0 0 basechar 0
AnchorPoint: "Anchor-16" 255 681 basechar 0
AnchorPoint: "Anchor-15" 0 0 basechar 0
AnchorPoint: "Anchor-14" 255 -192 basechar 0
LayerCount: 2
Fore
SplineSet
459 662 m 1,0,-1
 69 22 l 1,1,-1
 444 22 l 1,2,-1
 444 -86 l 2,3,4
 444 -140 444 -140 417 -168.5 c 128,-1,5
 390 -197 390 -197 346 -197 c 0,6,7
 298 -197 298 -197 258 -167 c 1,8,-1
 269 -151 l 1,9,10
 285 -163 285 -163 303 -169.5 c 128,-1,11
 321 -176 321 -176 346 -176 c 0,12,13
 380 -176 380 -176 400.5 -154 c 128,-1,14
 421 -132 421 -132 421 -85 c 2,15,-1
 421 0 l 1,16,-1
 41 0 l 1,17,-1
 41 21 l 1,18,-1
 432 660 l 1,19,-1
 79 660 l 1,20,-1
 79 681 l 1,21,-1
 459 681 l 1,22,-1
 459 662 l 1,0,-1
EndSplineSet
Substitution2: "'c2sc' Capitals to Small Capitals lookup 26 subtable" uni0225.sc
Substitution2: "'aalt' Access All Alternates lookup 0 subtable" uni0225.sc
Position2: "'cpsp' Capital Spacing lookup 0 subtable" dx=5 dy=0 dh=10 dv=0
EndChar

StartChar: uni01B5
Encoding: 437 437 328
Width: 509
GlyphClass: 2
Flags: W
AnchorPoint: "Anchor-18" 0 0 basechar 0
AnchorPoint: "Anchor-17" 0 0 basechar 0
AnchorPoint: "Anchor-16" 255 681 basechar 0
AnchorPoint: "Anchor-15" 0 0 basechar 0
AnchorPoint: "Anchor-14" 255 0 basechar 0
LayerCount: 2
Fore
SplineSet
459 681 m 1,0,-1
 459 662 l 1,1,-1
 271 353 l 1,2,-1
 387 353 l 1,3,-1
 387 332 l 1,4,-1
 258 332 l 1,5,-1
 69 22 l 1,6,-1
 446 22 l 1,7,-1
 443 0 l 1,8,-1
 41 0 l 1,9,-1
 41 21 l 1,10,-1
 231 332 l 1,11,-1
 120 332 l 1,12,-1
 120 353 l 1,13,-1
 244 353 l 1,14,-1
 432 660 l 1,15,-1
 79 660 l 1,16,-1
 79 681 l 1,17,-1
 459 681 l 1,0,-1
EndSplineSet
Substitution2: "'c2sc' Capitals to Small Capitals lookup 26 subtable" uni01B6.sc
Substitution2: "'aalt' Access All Alternates lookup 0 subtable" uni01B6.sc
Position2: "'cpsp' Capital Spacing lookup 0 subtable" dx=5 dy=0 dh=10 dv=0
EndChar

StartChar: uni0262
Encoding: 610 610 330
Width: 549
GlyphClass: 2
Flags: W
AnchorPoint: "Anchor-18" 0 0 basechar 0
AnchorPoint: "Anchor-17" 0 0 basechar 0
AnchorPoint: "Anchor-16" 294 519 basechar 0
AnchorPoint: "Anchor-15" 0 0 basechar 0
AnchorPoint: "Anchor-14" 288 0 basechar 0
LayerCount: 2
Fore
SplineSet
371.5 519 m 128,-1,1
 407 507 407 507 440 482 c 1,2,-1
 426 466 l 1,3,4
 395 489 395 489 363 500 c 128,-1,5
 331 511 331 511 293 511 c 0,6,7
 241 511 241 511 196.5 484 c 128,-1,8
 152 457 152 457 124 401.5 c 128,-1,9
 96 346 96 346 96 264 c 0,10,11
 96 138 96 138 150 75.5 c 128,-1,12
 204 13 204 13 298 13 c 0,13,14
 371 13 371 13 432 45 c 1,15,-1
 432 252 l 1,16,-1
 307 252 l 1,17,-1
 304 272 l 1,18,-1
 454 272 l 1,19,-1
 454 33 l 1,20,21
 381 -8 381 -8 298 -8 c 0,22,23
 195 -8 195 -8 134 60.5 c 128,-1,24
 73 129 73 129 73 264 c 0,25,26
 73 349 73 349 104 409.5 c 128,-1,27
 135 470 135 470 185 500.5 c 128,-1,28
 235 531 235 531 292 531 c 0,29,0
 336 531 336 531 371.5 519 c 128,-1,1
EndSplineSet
EndChar

StartChar: uni029B
Encoding: 667 667 331
Width: 549
GlyphClass: 2
Flags: W
AnchorPoint: "Anchor-18" 0 0 basechar 0
AnchorPoint: "Anchor-17" 0 0 basechar 0
AnchorPoint: "Anchor-16" 274 732 basechar 0
AnchorPoint: "Anchor-15" 0 0 basechar 0
AnchorPoint: "Anchor-14" 296 0 basechar 0
LayerCount: 2
Fore
SplineSet
604 706 m 1,1,-1
 593 692 l 1,2,3
 575 704 575 704 557 710.5 c 128,-1,4
 539 717 539 717 515 717 c 0,5,6
 481 717 481 717 460.5 695 c 128,-1,7
 440 673 440 673 440 625 c 2,8,-1
 440 482 l 1,9,-1
 428 468 l 1,10,11
 396 490 396 490 363.5 500.5 c 128,-1,12
 331 511 331 511 293 511 c 0,13,14
 241 511 241 511 196.5 484 c 128,-1,15
 152 457 152 457 124 401.5 c 128,-1,16
 96 346 96 346 96 264 c 0,17,18
 96 138 96 138 150 75.5 c 128,-1,19
 204 13 204 13 298 13 c 0,20,21
 373 13 373 13 432 45 c 1,22,-1
 432 252 l 1,23,-1
 307 252 l 1,24,-1
 304 272 l 1,25,-1
 454 272 l 1,26,-1
 454 33 l 1,27,28
 381 -8 381 -8 298 -8 c 0,29,30
 195 -8 195 -8 134 60.5 c 128,-1,31
 73 129 73 129 73 264 c 0,32,33
 73 349 73 349 104 409.5 c 128,-1,34
 135 470 135 470 185 500.5 c 128,-1,35
 235 531 235 531 292 531 c 0,36,37
 330 531 330 531 359.5 522.5 c 128,-1,38
 389 514 389 514 418 496 c 1,39,-1
 418 626 l 2,40,41
 418 680 418 680 444 708.5 c 128,-1,42
 470 737 470 737 515 737 c 0,43,0
 563 737 563 737 604 706 c 1,1,-1
EndSplineSet
EndChar

StartChar: uni026A
Encoding: 618 618 333
Width: 309
GlyphClass: 2
Flags: W
AnchorPoint: "Anchor-18" 0 0 basechar 0
AnchorPoint: "Anchor-17" 0 0 basechar 0
AnchorPoint: "Anchor-16" 155 519 basechar 0
AnchorPoint: "Anchor-15" 0 0 basechar 0
AnchorPoint: "Anchor-14" 155 0 basechar 0
LayerCount: 2
Fore
SplineSet
276 499 m 1,0,-1
 165 499 l 1,1,-1
 165 21 l 1,2,-1
 276 21 l 1,3,-1
 276 0 l 1,4,-1
 33 0 l 1,5,-1
 33 21 l 1,6,-1
 143 21 l 1,7,-1
 143 499 l 1,8,-1
 33 499 l 1,9,-1
 33 519 l 1,10,-1
 276 519 l 1,11,-1
 276 499 l 1,0,-1
EndSplineSet
EndChar

StartChar: uni029F
Encoding: 671 671 334
Width: 399
GlyphClass: 2
Flags: W
AnchorPoint: "Anchor-18" 0 0 basechar 0
AnchorPoint: "Anchor-17" 0 0 basechar 0
AnchorPoint: "Anchor-16" 129 519 basechar 0
AnchorPoint: "Anchor-15" 0 0 basechar 0
AnchorPoint: "Anchor-14" 250 0 basechar 0
LayerCount: 2
Fore
SplineSet
140 519 m 1,0,-1
 140 21 l 1,1,-1
 386 21 l 1,2,-1
 382 0 l 1,3,-1
 118 0 l 1,4,-1
 118 519 l 1,5,-1
 140 519 l 1,0,-1
EndSplineSet
EndChar

StartChar: uni0274
Encoding: 628 628 335
Width: 583
GlyphClass: 2
Flags: W
AnchorPoint: "Anchor-18" 0 0 basechar 0
AnchorPoint: "Anchor-17" 0 0 basechar 0
AnchorPoint: "Anchor-16" 292 519 basechar 0
AnchorPoint: "Anchor-15" 0 0 basechar 0
AnchorPoint: "Anchor-14" 292 0 basechar 0
LayerCount: 2
Fore
SplineSet
465 0 m 1,0,-1
 436 0 l 1,1,-1
 137 498 l 1,2,3
 139 430 139 430 139 336 c 2,4,-1
 139 0 l 1,5,-1
 118 0 l 1,6,-1
 118 519 l 1,7,-1
 147 519 l 1,8,-1
 446 22 l 1,9,10
 444 92 444 92 444 179 c 2,11,-1
 444 519 l 1,12,-1
 465 519 l 1,13,-1
 465 0 l 1,0,-1
EndSplineSet
EndChar

StartChar: uni0276
Encoding: 630 630 336
Width: 714
GlyphClass: 2
Flags: W
AnchorPoint: "Anchor-18" 0 0 basechar 0
AnchorPoint: "Anchor-17" 0 0 basechar 0
AnchorPoint: "Anchor-16" 390 519 basechar 0
AnchorPoint: "Anchor-15" 0 0 basechar 0
AnchorPoint: "Anchor-14" 390 0 basechar 0
LayerCount: 2
Fore
SplineSet
665 0 m 1,0,-1
 341 0 l 1,1,2
 309 -10 309 -10 280 -10 c 0,3,4
 183 -10 183 -10 128 61.5 c 128,-1,5
 73 133 73 133 73 259 c 0,6,7
 73 386 73 386 129.5 457.5 c 128,-1,8
 186 529 186 529 281 529 c 0,9,10
 315 529 315 529 343 519 c 1,11,-1
 659 519 l 1,12,-1
 656 499 l 1,13,-1
 383 499 l 1,14,15
 428 474 428 474 457 418 c 128,-1,16
 486 362 486 362 489 285 c 1,17,-1
 621 285 l 1,18,-1
 621 265 l 1,19,-1
 489 265 l 1,20,21
 488 171 488 171 458.5 109.5 c 128,-1,22
 429 48 429 48 380 21 c 1,23,-1
 665 21 l 1,24,-1
 665 0 l 1,0,-1
144.5 76.5 m 128,-1,26
 193 11 193 11 280 11 c 0,27,28
 366 11 366 11 416 79 c 128,-1,29
 466 147 466 147 466 269 c 0,30,31
 466 343 466 343 443 397 c 128,-1,32
 420 451 420 451 378 480 c 128,-1,33
 336 509 336 509 281 509 c 0,34,35
 195 509 195 509 145.5 444 c 128,-1,36
 96 379 96 379 96 259 c 0,37,25
 96 142 96 142 144.5 76.5 c 128,-1,26
EndSplineSet
EndChar

StartChar: uni0280
Encoding: 640 640 337
Width: 521
GlyphClass: 2
Flags: W
AnchorPoint: "Anchor-18" 0 0 basechar 0
AnchorPoint: "Anchor-17" 0 0 basechar 0
AnchorPoint: "Anchor-16" 254 519 basechar 0
AnchorPoint: "Anchor-15" 0 0 basechar 0
AnchorPoint: "Anchor-14" 254 0 basechar 0
LayerCount: 2
Fore
SplineSet
426 0 m 1,0,-1
 274 235 l 1,1,2
 267 234 267 234 254 234 c 2,3,-1
 140 234 l 1,4,-1
 140 0 l 1,5,-1
 118 0 l 1,6,-1
 118 519 l 1,7,-1
 236 519 l 2,8,9
 431 519 431 519 431 376 c 0,10,11
 431 318 431 318 396 282.5 c 128,-1,12
 361 247 361 247 298 237 c 1,13,-1
 452 0 l 1,14,-1
 426 0 l 1,0,-1
367 285 m 128,-1,16
 409 316 409 316 409 376 c 0,17,18
 409 437 409 437 368 468 c 128,-1,19
 327 499 327 499 234 499 c 2,20,-1
 140 499 l 1,21,-1
 140 254 l 1,22,-1
 252 254 l 2,23,15
 325 254 325 254 367 285 c 128,-1,16
EndSplineSet
Substitution2: "'smcp' Lowercase to Small Capitals lookup 27 subtable" uni0280.sc
Substitution2: "'aalt' Access All Alternates lookup 0 subtable" uni0280.sc
EndChar

StartChar: uni0281
Encoding: 641 641 338
Width: 521
GlyphClass: 2
Flags: W
AnchorPoint: "Anchor-18" 0 0 basechar 0
AnchorPoint: "Anchor-17" 0 0 basechar 0
AnchorPoint: "Anchor-16" 254 519 basechar 0
AnchorPoint: "Anchor-15" 0 0 basechar 0
AnchorPoint: "Anchor-14" 254 0 basechar 0
LayerCount: 2
Fore
SplineSet
396.5 237 m 128,-1,1
 431 202 431 202 431 145 c 0,2,3
 431 0 431 0 236 0 c 2,4,-1
 118 0 l 1,5,-1
 118 519 l 1,6,-1
 140 519 l 1,7,-1
 140 285 l 1,8,-1
 254 285 l 2,9,10
 267 285 267 285 274 284 c 1,11,-1
 426 519 l 1,12,-1
 452 519 l 1,13,-1
 298 282 l 1,14,0
 362 272 362 272 396.5 237 c 128,-1,1
368 52 m 128,-1,16
 409 83 409 83 409 145 c 0,17,18
 409 204 409 204 367.5 234.5 c 128,-1,19
 326 265 326 265 252 265 c 2,20,-1
 140 265 l 1,21,-1
 140 21 l 1,22,-1
 234 21 l 2,23,15
 327 21 327 21 368 52 c 128,-1,16
EndSplineSet
EndChar

StartChar: uni028F
Encoding: 655 655 339
Width: 398
GlyphClass: 2
Flags: W
AnchorPoint: "Anchor-18" 0 0 basechar 0
AnchorPoint: "Anchor-17" 0 0 basechar 0
AnchorPoint: "Anchor-16" 200 519 basechar 0
AnchorPoint: "Anchor-15" 0 0 basechar 0
AnchorPoint: "Anchor-14" 200 0 basechar 0
LayerCount: 2
Fore
SplineSet
386 519 m 1,0,-1
 212 212 l 1,1,-1
 212 0 l 1,2,-1
 190 0 l 1,3,-1
 190 211 l 1,4,-1
 13 519 l 1,5,-1
 36 519 l 1,6,-1
 201 231 l 1,7,-1
 361 519 l 1,8,-1
 386 519 l 1,0,-1
EndSplineSet
EndChar

StartChar: a
Encoding: 97 97 340
Width: 528
GlyphClass: 2
Flags: W
AnchorPoint: "Anchor-18" 0 0 basechar 0
AnchorPoint: "Anchor-17" 0 0 basechar 0
AnchorPoint: "Anchor-16" 254 519 basechar 0
AnchorPoint: "Anchor-15" 461 -10 basechar 0
AnchorPoint: "Anchor-14" 254 0 basechar 0
LayerCount: 2
Fore
SplineSet
420.5 37 m 128,-1,1
 431 15 431 15 457 6 c 1,2,-1
 451 -10 l 1,3,4
 420 0 420 0 406 22.5 c 128,-1,5
 392 45 392 45 391 91 c 1,6,7
 334 -10 334 -10 222 -10 c 0,8,9
 149 -10 149 -10 107.5 32 c 128,-1,10
 66 74 66 74 66 144 c 0,11,12
 66 222 66 222 121 265 c 128,-1,13
 176 308 176 308 270 308 c 2,14,-1
 388 308 l 1,15,-1
 388 370 l 2,16,17
 388 440 388 440 357.5 474.5 c 128,-1,18
 327 509 327 509 255 509 c 0,19,20
 192 509 192 509 112 476 c 1,21,-1
 105 495 l 1,22,23
 187 529 187 529 255 529 c 0,24,25
 336 529 336 529 373 489.5 c 128,-1,26
 410 450 410 450 410 372 c 2,27,-1
 410 110 l 2,28,0
 410 59 410 59 420.5 37 c 128,-1,1
321 38.5 m 128,-1,30
 361 66 361 66 388 119 c 1,31,-1
 388 288 l 1,32,-1
 274 288 l 2,33,34
 187 288 187 288 138.5 251 c 128,-1,35
 90 214 90 214 90 144 c 0,36,37
 90 82 90 82 125.5 46.5 c 128,-1,38
 161 11 161 11 222 11 c 0,39,29
 281 11 281 11 321 38.5 c 128,-1,30
EndSplineSet
Substitution2: "Single Substitution lookup 45 subtable" ordfeminine
Substitution2: "'ss04' Style Set 4 lookup 36 subtable" a.ss04
Substitution2: "'salt' Stylistic Alternatives lookup 32 subtable" a.ss04
Substitution2: "'smcp' Lowercase to Small Capitals lookup 27 subtable" a.sc
AlternateSubs2: "'aalt' Access All Alternates lookup 1 subtable" ordfeminine a.sc a.ss04
EndChar

StartChar: a.ss04
Encoding: 65547 -1 341
Width: 573
GlyphClass: 2
Flags: W
AnchorPoint: "Anchor-18" 0 0 basechar 0
AnchorPoint: "Anchor-17" 0 0 basechar 0
AnchorPoint: "Anchor-16" 287 519 basechar 0
AnchorPoint: "Anchor-15" 0 0 basechar 0
AnchorPoint: "Anchor-14" 287 0 basechar 0
LayerCount: 2
Fore
SplineSet
462 44.5 m 128,-1,1
 473 25 473 25 501 14 c 1,2,-1
 495 -5 l 1,3,4
 461 8 461 8 446 29 c 128,-1,5
 431 50 431 50 429 89 c 1,6,7
 373 -10 373 -10 269 -10 c 0,8,9
 178 -10 178 -10 125.5 61 c 128,-1,10
 73 132 73 132 73 258 c 0,11,12
 73 338 73 338 98 399.5 c 128,-1,13
 123 461 123 461 169 495 c 128,-1,14
 215 529 215 529 277 529 c 0,15,16
 375 529 375 529 430 445 c 1,17,-1
 432 519 l 1,18,-1
 451 519 l 1,19,-1
 451 105 l 2,20,0
 451 64 451 64 462 44.5 c 128,-1,1
363 39.5 m 128,-1,22
 401 68 401 68 429 123 c 1,23,-1
 429 418 l 1,24,25
 371 509 371 509 277 509 c 0,26,27
 224 509 224 509 182.5 478.5 c 128,-1,28
 141 448 141 448 118.5 391 c 128,-1,29
 96 334 96 334 96 258 c 0,30,31
 96 141 96 141 142 76 c 128,-1,32
 188 11 188 11 269 11 c 0,33,21
 325 11 325 11 363 39.5 c 128,-1,22
EndSplineSet
EndChar

StartChar: uni0251
Encoding: 593 593 365
Width: 573
GlyphClass: 2
Flags: W
AnchorPoint: "Anchor-18" 0 0 basechar 0
AnchorPoint: "Anchor-17" 0 0 basechar 0
AnchorPoint: "Anchor-16" 287 519 basechar 0
AnchorPoint: "Anchor-15" 0 0 basechar 0
AnchorPoint: "Anchor-14" 287 0 basechar 0
LayerCount: 2
Fore
SplineSet
462 44.5 m 128,-1,1
 473 25 473 25 501 14 c 1,2,-1
 495 -5 l 1,3,4
 461 8 461 8 446 29 c 128,-1,5
 431 50 431 50 429 89 c 1,6,7
 373 -10 373 -10 269 -10 c 0,8,9
 178 -10 178 -10 125.5 61 c 128,-1,10
 73 132 73 132 73 258 c 0,11,12
 73 338 73 338 98 399.5 c 128,-1,13
 123 461 123 461 169 495 c 128,-1,14
 215 529 215 529 277 529 c 0,15,16
 375 529 375 529 430 445 c 1,17,-1
 432 519 l 1,18,-1
 451 519 l 1,19,-1
 451 105 l 2,20,0
 451 64 451 64 462 44.5 c 128,-1,1
363 39.5 m 128,-1,22
 401 68 401 68 429 123 c 1,23,-1
 429 418 l 1,24,25
 371 509 371 509 277 509 c 0,26,27
 224 509 224 509 182.5 478.5 c 128,-1,28
 141 448 141 448 118.5 391 c 128,-1,29
 96 334 96 334 96 258 c 0,30,31
 96 141 96 141 142 76 c 128,-1,32
 188 11 188 11 269 11 c 0,33,21
 325 11 325 11 363 39.5 c 128,-1,22
EndSplineSet
Substitution2: "'smcp' Lowercase to Small Capitals lookup 27 subtable" uni0251.sc
Substitution2: "'aalt' Access All Alternates lookup 0 subtable" uni0251.sc
EndChar

StartChar: uni0252
Encoding: 594 594 366
Width: 573
GlyphClass: 2
Flags: W
AnchorPoint: "Anchor-18" 0 0 basechar 0
AnchorPoint: "Anchor-17" 0 0 basechar 0
AnchorPoint: "Anchor-16" 287 519 basechar 0
AnchorPoint: "Anchor-15" 0 0 basechar 0
AnchorPoint: "Anchor-14" 287 0 basechar 0
LayerCount: 2
Fore
SplineSet
447.5 458 m 128,-1,1
 500 387 500 387 500 261 c 0,2,3
 500 181 500 181 475 119.5 c 128,-1,4
 450 58 450 58 404 24 c 128,-1,5
 358 -10 358 -10 296 -10 c 0,6,7
 198 -10 198 -10 143 74 c 1,8,-1
 141 0 l 1,9,-1
 122 0 l 1,10,-1
 122 414 l 2,11,12
 122 455 122 455 111 474.5 c 128,-1,13
 100 494 100 494 72 505 c 1,14,-1
 78 524 l 1,15,16
 112 511 112 511 127 490 c 128,-1,17
 142 469 142 469 144 430 c 1,18,19
 200 529 200 529 304 529 c 0,20,0
 395 529 395 529 447.5 458 c 128,-1,1
390 40 m 128,-1,22
 431 70 431 70 454 126.5 c 128,-1,23
 477 183 477 183 477 258 c 0,24,25
 477 377 477 377 431 442.5 c 128,-1,26
 385 508 385 508 304 508 c 0,27,28
 248 508 248 508 210 479.5 c 128,-1,29
 172 451 172 451 144 396 c 1,30,-1
 144 101 l 1,31,32
 202 10 202 10 296 10 c 0,33,21
 349 10 349 10 390 40 c 128,-1,22
EndSplineSet
EndChar

StartChar: aogonek
Encoding: 261 261 368
Width: 528
GlyphClass: 2
Flags: W
AnchorPoint: "Anchor-18" 0 0 basechar 0
AnchorPoint: "Anchor-17" 0 0 basechar 0
AnchorPoint: "Anchor-16" 254 519 basechar 0
AnchorPoint: "Anchor-15" 461 -10 basechar 0
AnchorPoint: "Anchor-14" 254 0 basechar 0
LayerCount: 2
Fore
SplineSet
357.5 -64 m 128,-1,1
 326 -91 326 -91 326 -132 c 0,2,3
 326 -160 326 -160 344 -175.5 c 128,-1,4
 362 -191 362 -191 396 -191 c 0,5,6
 422 -191 422 -191 451 -184 c 1,7,-1
 449 -206 l 1,8,9
 421 -213 421 -213 395 -213 c 0,10,11
 349 -213 349 -213 325.5 -191 c 128,-1,12
 302 -169 302 -169 302 -133 c 0,13,14
 302 -91 302 -91 335 -60 c 128,-1,15
 368 -29 368 -29 432 -2 c 1,16,17
 411 10 411 10 401.5 31.5 c 128,-1,18
 392 53 392 53 391 91 c 1,19,20
 334 -10 334 -10 222 -10 c 0,21,22
 149 -10 149 -10 107.5 32 c 128,-1,23
 66 74 66 74 66 144 c 0,24,25
 66 222 66 222 121 265 c 128,-1,26
 176 308 176 308 270 308 c 2,27,-1
 388 308 l 1,28,-1
 388 370 l 2,29,30
 388 440 388 440 357.5 474.5 c 128,-1,31
 327 509 327 509 255 509 c 0,32,33
 192 509 192 509 112 476 c 1,34,-1
 105 495 l 1,35,36
 187 529 187 529 255 529 c 0,37,38
 336 529 336 529 373 489.5 c 128,-1,39
 410 450 410 450 410 372 c 2,40,-1
 410 110 l 2,41,42
 410 59 410 59 420.5 37 c 128,-1,43
 431 15 431 15 457 6 c 1,44,-1
 451 -10 l 1,45,0
 389 -37 389 -37 357.5 -64 c 128,-1,1
321 38.5 m 128,-1,47
 361 66 361 66 388 119 c 1,48,-1
 388 288 l 1,49,-1
 274 288 l 2,50,51
 187 288 187 288 138.5 251 c 128,-1,52
 90 214 90 214 90 144 c 0,53,54
 90 82 90 82 125.5 46.5 c 128,-1,55
 161 11 161 11 222 11 c 0,56,46
 281 11 281 11 321 38.5 c 128,-1,47
EndSplineSet
Substitution2: "'smcp' Lowercase to Small Capitals lookup 27 subtable" aogonek.sc
Substitution2: "'aalt' Access All Alternates lookup 0 subtable" aogonek.sc
EndChar

StartChar: aringacute
Encoding: 507 507 370
Width: 528
GlyphClass: 2
Flags: W
AnchorPoint: "Anchor-18" 0 0 basechar 0
AnchorPoint: "Anchor-17" 0 0 basechar 0
AnchorPoint: "Anchor-16" 256 857 basechar 0
AnchorPoint: "Anchor-15" 461 -10 basechar 0
AnchorPoint: "Anchor-14" 254 0 basechar 0
LayerCount: 2
Fore
SplineSet
347 834 m 1,0,-1
 168 760 l 1,1,-1
 161 775 l 1,2,-1
 336 857 l 1,3,-1
 347 834 l 1,0,-1
197 723.5 m 128,-1,5
 219 745 219 745 254 745 c 0,6,7
 291 745 291 745 312.5 723.5 c 128,-1,8
 334 702 334 702 334 667 c 0,9,10
 334 631 334 631 312 609.5 c 128,-1,11
 290 588 290 588 254 588 c 256,12,13
 218 588 218 588 196.5 609.5 c 128,-1,14
 175 631 175 631 175 666 c 0,15,4
 175 702 175 702 197 723.5 c 128,-1,5
297.5 711 m 128,-1,17
 282 727 282 727 254 727 c 256,18,19
 226 727 226 727 211 711 c 128,-1,20
 196 695 196 695 196 666 c 0,21,22
 196 638 196 638 211 622 c 128,-1,23
 226 606 226 606 254 606 c 256,24,25
 282 606 282 606 297.5 622 c 128,-1,26
 313 638 313 638 313 667 c 0,27,16
 313 695 313 695 297.5 711 c 128,-1,17
420.5 37 m 128,-1,29
 431 15 431 15 457 6 c 1,30,-1
 451 -10 l 1,31,32
 420 0 420 0 406 22.5 c 128,-1,33
 392 45 392 45 391 91 c 1,34,35
 334 -10 334 -10 222 -10 c 0,36,37
 149 -10 149 -10 107.5 32 c 128,-1,38
 66 74 66 74 66 144 c 0,39,40
 66 222 66 222 121 265 c 128,-1,41
 176 308 176 308 270 308 c 2,42,-1
 388 308 l 1,43,-1
 388 370 l 2,44,45
 388 440 388 440 357.5 474.5 c 128,-1,46
 327 509 327 509 255 509 c 0,47,48
 192 509 192 509 112 476 c 1,49,-1
 105 495 l 1,50,51
 187 529 187 529 255 529 c 0,52,53
 336 529 336 529 373 489.5 c 128,-1,54
 410 450 410 450 410 372 c 2,55,-1
 410 110 l 2,56,28
 410 59 410 59 420.5 37 c 128,-1,29
321 38.5 m 128,-1,58
 361 66 361 66 388 119 c 1,59,-1
 388 288 l 1,60,-1
 274 288 l 2,61,62
 187 288 187 288 138.5 251 c 128,-1,63
 90 214 90 214 90 144 c 0,64,65
 90 82 90 82 125.5 46.5 c 128,-1,66
 161 11 161 11 222 11 c 0,67,57
 281 11 281 11 321 38.5 c 128,-1,58
EndSplineSet
Substitution2: "'smcp' Lowercase to Small Capitals lookup 27 subtable" aringacute.sc
Substitution2: "'aalt' Access All Alternates lookup 0 subtable" aringacute.sc
EndChar

StartChar: uni2C65
Encoding: 11365 11365 371
Width: 528
GlyphClass: 2
Flags: W
AnchorPoint: "Anchor-18" 0 0 basechar 0
AnchorPoint: "Anchor-17" 0 0 basechar 0
AnchorPoint: "Anchor-16" 264 519 basechar 0
AnchorPoint: "Anchor-15" 0 0 basechar 0
AnchorPoint: "Anchor-14" 264 0 basechar 0
LayerCount: 2
Fore
SplineSet
420.5 37 m 128,-1,1
 431 15 431 15 457 6 c 1,2,-1
 451 -10 l 1,3,4
 420 0 420 0 406 22.5 c 128,-1,5
 392 45 392 45 391 91 c 1,6,7
 334 -10 334 -10 222 -10 c 0,8,9
 208 -10 208 -10 201 -9 c 1,10,-1
 185 -66 l 1,11,-1
 169 -62 l 1,12,-1
 184 -7 l 1,13,14
 128 3 128 3 97 43.5 c 128,-1,15
 66 84 66 84 66 144 c 0,16,17
 66 222 66 222 121 265 c 128,-1,18
 176 308 176 308 270 308 c 2,19,-1
 271 308 l 1,20,-1
 323 498 l 1,21,22
 295 509 295 509 255 509 c 0,23,24
 192 509 192 509 112 476 c 1,25,-1
 105 495 l 1,26,27
 187 529 187 529 255 529 c 0,28,29
 297 529 297 529 328 518 c 1,30,-1
 347 586 l 1,31,-1
 363 582 l 1,32,-1
 344 511 l 1,33,34
 410 477 410 477 410 372 c 2,35,-1
 410 110 l 2,36,0
 410 59 410 59 420.5 37 c 128,-1,1
288 308 m 1,37,-1
 388 308 l 1,38,-1
 388 370 l 2,39,40
 388 415 388 415 376 445 c 128,-1,41
 364 475 364 475 338 491 c 1,42,-1
 288 308 l 1,37,-1
321 38.5 m 128,-1,44
 361 66 361 66 388 119 c 1,45,-1
 388 288 l 1,46,-1
 282 288 l 1,47,-1
 206 12 l 1,48,49
 211 11 211 11 222 11 c 0,50,43
 281 11 281 11 321 38.5 c 128,-1,44
116.5 57 m 128,-1,52
 143 23 143 23 190 14 c 1,53,-1
 265 288 l 1,54,55
 182 286 182 286 136 249.5 c 128,-1,56
 90 213 90 213 90 144 c 0,57,51
 90 91 90 91 116.5 57 c 128,-1,52
EndSplineSet
Substitution2: "'smcp' Lowercase to Small Capitals lookup 27 subtable" uni2C65.sc
Substitution2: "'aalt' Access All Alternates lookup 0 subtable" uni2C65.sc
EndChar

StartChar: uni0250
Encoding: 592 592 373
Width: 528
GlyphClass: 2
Flags: W
AnchorPoint: "Anchor-18" 0 0 basechar 0
AnchorPoint: "Anchor-17" 0 0 basechar 0
AnchorPoint: "Anchor-16" 264 519 basechar 0
AnchorPoint: "Anchor-15" 67 529 basechar 0
AnchorPoint: "Anchor-14" 264 0 basechar 0
LayerCount: 2
Fore
SplineSet
416 43 m 1,1,-1
 423 24 l 1,2,3
 341 -10 341 -10 273 -10 c 0,4,5
 192 -10 192 -10 155 29.5 c 128,-1,6
 118 69 118 69 118 147 c 2,7,-1
 118 409 l 2,8,9
 118 460 118 460 107.5 482 c 128,-1,10
 97 504 97 504 71 513 c 1,11,-1
 77 529 l 1,12,13
 108 519 108 519 122 496.5 c 128,-1,14
 136 474 136 474 137 428 c 1,15,16
 194 529 194 529 306 529 c 0,17,18
 379 529 379 529 420.5 487 c 128,-1,19
 462 445 462 445 462 375 c 0,20,21
 462 297 462 297 407 254 c 128,-1,22
 352 211 352 211 258 211 c 2,23,-1
 140 211 l 1,24,-1
 140 149 l 2,25,26
 140 79 140 79 170.5 44.5 c 128,-1,27
 201 10 201 10 273 10 c 0,28,0
 336 10 336 10 416 43 c 1,1,-1
207 480.5 m 128,-1,30
 167 453 167 453 140 400 c 1,31,-1
 140 231 l 1,32,-1
 254 231 l 2,33,34
 341 231 341 231 389.5 268 c 128,-1,35
 438 305 438 305 438 375 c 0,36,37
 438 437 438 437 402.5 472.5 c 128,-1,38
 367 508 367 508 306 508 c 0,39,29
 247 508 247 508 207 480.5 c 128,-1,30
EndSplineSet
EndChar

StartChar: ae
Encoding: 230 230 374
Width: 844
GlyphClass: 2
Flags: W
AnchorPoint: "Anchor-18" 0 0 basechar 0
AnchorPoint: "Anchor-17" 0 0 basechar 0
AnchorPoint: "Anchor-16" 422 519 basechar 0
AnchorPoint: "Anchor-15" 0 0 basechar 0
AnchorPoint: "Anchor-14" 417 0 basechar 0
LayerCount: 2
Fore
SplineSet
774 246 m 1,1,-1
 411 246 l 1,2,3
 415 130 415 130 464.5 70.5 c 128,-1,4
 514 11 514 11 595 11 c 0,5,6
 640 11 640 11 673 24.5 c 128,-1,7
 706 38 706 38 742 68 c 1,8,-1
 754 51 l 1,9,10
 718 21 718 21 680.5 5.5 c 128,-1,11
 643 -10 643 -10 595 -10 c 0,12,13
 532 -10 532 -10 485.5 21 c 128,-1,14
 439 52 439 52 414 111 c 1,15,16
 372 46 372 46 327 18 c 128,-1,17
 282 -10 282 -10 222 -10 c 0,18,19
 149 -10 149 -10 107.5 32 c 128,-1,20
 66 74 66 74 66 144 c 0,21,22
 66 222 66 222 121 265 c 128,-1,23
 176 308 176 308 270 308 c 2,24,-1
 388 308 l 1,25,-1
 388 370 l 2,26,27
 388 440 388 440 357.5 474.5 c 128,-1,28
 327 509 327 509 255 509 c 0,29,30
 192 509 192 509 112 476 c 1,31,-1
 105 495 l 1,32,33
 187 529 187 529 255 529 c 0,34,35
 331 529 331 529 368.5 494 c 128,-1,36
 406 459 406 459 410 389 c 1,37,38
 433 458 433 458 479 493.5 c 128,-1,39
 525 529 525 529 590 529 c 0,40,41
 682 529 682 529 729 463 c 128,-1,42
 776 397 776 397 776 284 c 0,43,0
 776 268 776 268 774 246 c 1,1,-1
754 292 m 2,44,45
 754 391 754 391 713 450 c 128,-1,46
 672 509 672 509 591 509 c 0,47,48
 512 509 512 509 462.5 446.5 c 128,-1,49
 413 384 413 384 411 265 c 1,50,-1
 754 265 l 1,51,-1
 754 292 l 2,44,45
321.5 39.5 m 128,-1,53
 364 68 364 68 406 132 c 1,54,55
 388 185 388 185 388 255 c 2,56,-1
 388 288 l 1,57,-1
 274 288 l 2,58,59
 187 288 187 288 138.5 251 c 128,-1,60
 90 214 90 214 90 144 c 0,61,62
 90 82 90 82 125.5 46.5 c 128,-1,63
 161 11 161 11 222 11 c 0,64,52
 279 11 279 11 321.5 39.5 c 128,-1,53
EndSplineSet
Substitution2: "'smcp' Lowercase to Small Capitals lookup 27 subtable" ae.sc
Substitution2: "'aalt' Access All Alternates lookup 0 subtable" ae.sc
EndChar

StartChar: b
Encoding: 98 98 377
Width: 569
GlyphClass: 2
Flags: W
AnchorPoint: "Anchor-18" 0 0 basechar 0
AnchorPoint: "Anchor-17" 0 0 basechar 0
AnchorPoint: "Anchor-16" 293 732 basechar 0
AnchorPoint: "Anchor-15" 0 0 basechar 0
AnchorPoint: "Anchor-14" 294 0 basechar 0
LayerCount: 2
Fore
SplineSet
444 460.5 m 128,-1,1
 491 392 491 392 491 264 c 0,2,3
 491 135 491 135 442.5 62.5 c 128,-1,4
 394 -10 394 -10 302 -10 c 0,5,6
 249 -10 249 -10 208 15 c 128,-1,7
 167 40 167 40 139 81 c 1,8,-1
 137 0 l 1,9,-1
 118 0 l 1,10,-1
 118 733 l 1,11,-1
 140 736 l 1,12,-1
 140 436 l 1,13,14
 207 529 207 529 308 529 c 0,15,0
 397 529 397 529 444 460.5 c 128,-1,1
425.5 77 m 128,-1,17
 469 143 469 143 469 264 c 0,18,19
 469 384 469 384 428 446.5 c 128,-1,20
 387 509 387 509 308 509 c 0,21,22
 254 509 254 509 215 484 c 128,-1,23
 176 459 176 459 140 410 c 1,24,-1
 140 106 l 1,25,26
 204 11 204 11 301 11 c 0,27,16
 382 11 382 11 425.5 77 c 128,-1,17
EndSplineSet
Substitution2: "'smcp' Lowercase to Small Capitals lookup 27 subtable" b.sc
Substitution2: "'aalt' Access All Alternates lookup 0 subtable" b.sc
EndChar

StartChar: uni0253
Encoding: 595 595 381
Width: 569
GlyphClass: 2
Flags: W
AnchorPoint: "Anchor-18" 0 0 basechar 0
AnchorPoint: "Anchor-17" 0 0 basechar 0
AnchorPoint: "Anchor-16" 285 732 basechar 0
AnchorPoint: "Anchor-15" 0 0 basechar 0
AnchorPoint: "Anchor-14" 285 0 basechar 0
LayerCount: 2
Fore
SplineSet
444 460.5 m 128,-1,1
 491 392 491 392 491 264 c 0,2,3
 491 135 491 135 442.5 62.5 c 128,-1,4
 394 -10 394 -10 303 -10 c 0,5,6
 249 -10 249 -10 208 15 c 128,-1,7
 167 40 167 40 139 81 c 1,8,-1
 137 0 l 1,9,-1
 118 0 l 1,10,-1
 118 617 l 2,11,12
 118 674 118 674 152 705.5 c 128,-1,13
 186 737 186 737 242 737 c 0,14,15
 303 737 303 737 358 706 c 1,16,-1
 349 689 l 1,17,18
 297 716 297 716 243 716 c 0,19,20
 195 716 195 716 167.5 691 c 128,-1,21
 140 666 140 666 140 614 c 2,22,-1
 140 436 l 1,23,24
 207 529 207 529 308 529 c 0,25,0
 397 529 397 529 444 460.5 c 128,-1,1
426 77 m 128,-1,27
 469 143 469 143 469 264 c 0,28,29
 469 384 469 384 428 446.5 c 128,-1,30
 387 509 387 509 308 509 c 0,31,32
 254 509 254 509 215 484 c 128,-1,33
 176 459 176 459 140 410 c 1,34,-1
 140 106 l 1,35,36
 206 11 206 11 302 11 c 0,37,26
 383 11 383 11 426 77 c 128,-1,27
EndSplineSet
Substitution2: "'smcp' Lowercase to Small Capitals lookup 27 subtable" uni0253.sc
Substitution2: "'aalt' Access All Alternates lookup 0 subtable" uni0253.sc
EndChar

StartChar: uni02AD
Encoding: 685 685 382
Width: 305
GlyphClass: 2
Flags: W
AnchorPoint: "Anchor-18" 0 0 basechar 0
AnchorPoint: "Anchor-17" 0 0 basechar 0
AnchorPoint: "Anchor-16" 0 0 basechar 0
AnchorPoint: "Anchor-15" 0 0 basechar 0
AnchorPoint: "Anchor-14" 157 184 basechar 0
LayerCount: 2
Fore
SplineSet
30 401 m 1,0,-1
 30 511 l 1,1,-1
 275 511 l 1,2,-1
 275 400 l 1,3,-1
 253 400 l 1,4,-1
 253 491 l 1,5,-1
 52 491 l 1,6,-1
 52 401 l 1,7,-1
 30 401 l 1,0,-1
30 1 m 1,8,-1
 30 111 l 1,9,-1
 275 111 l 1,10,-1
 275 0 l 1,11,-1
 253 0 l 1,12,-1
 253 91 l 1,13,-1
 52 91 l 1,14,-1
 52 1 l 1,15,-1
 30 1 l 1,8,-1
EndSplineSet
EndChar

StartChar: uni0298
Encoding: 664 664 383
Width: 789
GlyphClass: 2
Flags: W
AnchorPoint: "Anchor-18" 0 0 basechar 0
AnchorPoint: "Anchor-17" 0 0 basechar 0
AnchorPoint: "Anchor-16" 395 681 basechar 0
AnchorPoint: "Anchor-15" 0 0 basechar 0
AnchorPoint: "Anchor-14" 395 0 basechar 0
LayerCount: 2
Fore
SplineSet
561.5 650 m 128,-1,1
 633 609 633 609 672 530 c 128,-1,2
 711 451 711 451 711 340 c 0,3,4
 711 232 711 232 673 153 c 128,-1,5
 635 74 635 74 563.5 32 c 128,-1,6
 492 -10 492 -10 394 -10 c 0,7,8
 300 -10 300 -10 228.5 31.5 c 128,-1,9
 157 73 157 73 117.5 151.5 c 128,-1,10
 78 230 78 230 78 338 c 0,11,12
 78 447 78 447 117.5 526.5 c 128,-1,13
 157 606 157 606 229 648.5 c 128,-1,14
 301 691 301 691 394 691 c 0,15,0
 490 691 490 691 561.5 650 c 128,-1,1
240 632 m 128,-1,17
 174 593 174 593 137.5 518 c 128,-1,18
 101 443 101 443 101 338 c 0,19,20
 101 235 101 235 137.5 161.5 c 128,-1,21
 174 88 174 88 240 49.5 c 128,-1,22
 306 11 306 11 394 11 c 0,23,24
 533 11 533 11 611 97 c 128,-1,25
 689 183 689 183 689 340 c 0,26,27
 689 445 689 445 653 519.5 c 128,-1,28
 617 594 617 594 550.5 632.5 c 128,-1,29
 484 671 484 671 394 671 c 0,30,16
 306 671 306 671 240 632 c 128,-1,17
409.5 353 m 128,-1,32
 415 347 415 347 415 339 c 256,33,34
 415 331 415 331 409.5 325.5 c 128,-1,35
 404 320 404 320 394 320 c 0,36,37
 385 320 385 320 379.5 325.5 c 128,-1,38
 374 331 374 331 374 339 c 256,39,40
 374 347 374 347 379.5 353 c 128,-1,41
 385 359 385 359 394 359 c 0,42,31
 404 359 404 359 409.5 353 c 128,-1,32
EndSplineSet
EndChar

StartChar: uni0180
Encoding: 384 384 385
Width: 574
GlyphClass: 2
Flags: W
AnchorPoint: "Anchor-18" 0 0 basechar 0
AnchorPoint: "Anchor-17" 0 0 basechar 0
AnchorPoint: "Anchor-16" 298 732 basechar 0
AnchorPoint: "Anchor-15" 0 0 basechar 0
AnchorPoint: "Anchor-14" 299 0 basechar 0
LayerCount: 2
Fore
SplineSet
449 460.5 m 128,-1,1
 496 392 496 392 496 264 c 0,2,3
 496 135 496 135 447.5 62.5 c 128,-1,4
 399 -10 399 -10 307 -10 c 0,5,6
 254 -10 254 -10 213 15 c 128,-1,7
 172 40 172 40 144 81 c 1,8,-1
 142 0 l 1,9,-1
 123 0 l 1,10,-1
 123 629 l 1,11,-1
 48 629 l 1,12,-1
 48 649 l 1,13,-1
 123 649 l 1,14,-1
 123 733 l 1,15,-1
 145 736 l 1,16,-1
 145 649 l 1,17,-1
 327 649 l 1,18,-1
 327 629 l 1,19,-1
 145 629 l 1,20,-1
 145 436 l 1,21,22
 212 529 212 529 313 529 c 0,23,0
 402 529 402 529 449 460.5 c 128,-1,1
430.5 77 m 128,-1,25
 474 143 474 143 474 264 c 0,26,27
 474 384 474 384 433 446.5 c 128,-1,28
 392 509 392 509 313 509 c 0,29,30
 259 509 259 509 220 484 c 128,-1,31
 181 459 181 459 145 410 c 1,32,-1
 145 106 l 1,33,34
 209 11 209 11 306 11 c 0,35,24
 387 11 387 11 430.5 77 c 128,-1,25
EndSplineSet
Substitution2: "'smcp' Lowercase to Small Capitals lookup 27 subtable" uni0180.sc
Substitution2: "'aalt' Access All Alternates lookup 0 subtable" uni0180.sc
EndChar

StartChar: uni0183
Encoding: 387 387 386
Width: 569
GlyphClass: 2
Flags: W
AnchorPoint: "Anchor-18" 0 0 basechar 0
AnchorPoint: "Anchor-17" 0 0 basechar 0
AnchorPoint: "Anchor-16" 285 732 basechar 0
AnchorPoint: "Anchor-15" 0 0 basechar 0
AnchorPoint: "Anchor-14" 285 0 basechar 0
LayerCount: 2
Fore
SplineSet
444 460.5 m 128,-1,1
 491 392 491 392 491 264 c 0,2,3
 491 135 491 135 442.5 62.5 c 128,-1,4
 394 -10 394 -10 302 -10 c 0,5,6
 249 -10 249 -10 208 15 c 128,-1,7
 167 40 167 40 139 81 c 1,8,-1
 137 0 l 1,9,-1
 118 0 l 1,10,-1
 118 732 l 1,11,-1
 384 732 l 1,12,-1
 380 711 l 1,13,-1
 140 711 l 1,14,-1
 140 436 l 1,15,16
 207 529 207 529 308 529 c 0,17,0
 397 529 397 529 444 460.5 c 128,-1,1
425.5 77 m 128,-1,19
 469 143 469 143 469 264 c 0,20,21
 469 384 469 384 428 446.5 c 128,-1,22
 387 509 387 509 308 509 c 0,23,24
 254 509 254 509 215 484 c 128,-1,25
 176 459 176 459 140 410 c 1,26,-1
 140 106 l 1,27,28
 204 11 204 11 301 11 c 0,29,18
 382 11 382 11 425.5 77 c 128,-1,19
EndSplineSet
Substitution2: "'smcp' Lowercase to Small Capitals lookup 27 subtable" uni0183.sc
Substitution2: "'aalt' Access All Alternates lookup 0 subtable" uni0183.sc
EndChar

StartChar: c
Encoding: 99 99 387
Width: 464
GlyphClass: 2
Flags: W
AnchorPoint: "Anchor-18" 0 0 basechar 0
AnchorPoint: "Anchor-17" 0 0 basechar 0
AnchorPoint: "Anchor-16" 281 519 basechar 0
AnchorPoint: "Anchor-15" 0 0 basechar 0
AnchorPoint: "Anchor-14" 284 0 basechar 0
LayerCount: 2
Fore
SplineSet
357 517 m 128,-1,1
 389 505 389 505 418 479 c 1,2,-1
 405 464 l 1,3,4
 379 487 379 487 350 498 c 128,-1,5
 321 509 321 509 284 509 c 0,6,7
 199 509 199 509 147.5 443 c 128,-1,8
 96 377 96 377 96 257 c 0,9,10
 96 139 96 139 147.5 75 c 128,-1,11
 199 11 199 11 283 11 c 0,12,13
 355 11 355 11 410 59 c 1,14,-1
 423 44 l 1,15,16
 362 -10 362 -10 284 -10 c 0,17,18
 221 -10 221 -10 173.5 21.5 c 128,-1,19
 126 53 126 53 99.5 113.5 c 128,-1,20
 73 174 73 174 73 257 c 256,21,22
 73 340 73 340 99 401.5 c 128,-1,23
 125 463 125 463 172.5 496 c 128,-1,24
 220 529 220 529 283 529 c 0,25,0
 325 529 325 529 357 517 c 128,-1,1
EndSplineSet
Substitution2: "'smcp' Lowercase to Small Capitals lookup 27 subtable" c.sc
Substitution2: "'aalt' Access All Alternates lookup 0 subtable" c.sc
EndChar

StartChar: ccedilla
Encoding: 231 231 391
Width: 464
GlyphClass: 2
Flags: W
AnchorPoint: "Anchor-18" 0 0 basechar 0
AnchorPoint: "Anchor-17" 0 0 basechar 0
AnchorPoint: "Anchor-16" 281 519 basechar 0
AnchorPoint: "Anchor-15" 0 0 basechar 0
AnchorPoint: "Anchor-14" 303 -212 basechar 0
LayerCount: 2
Fore
SplineSet
377 -140 m 0,1,2
 377 -174 377 -174 352.5 -193 c 128,-1,3
 328 -212 328 -212 293 -212 c 0,4,5
 256 -212 256 -212 225 -194 c 1,6,-1
 235 -177 l 1,7,8
 258 -192 258 -192 293 -192 c 0,9,10
 319 -192 319 -192 336.5 -179 c 128,-1,11
 354 -166 354 -166 354 -140 c 0,12,13
 354 -115 354 -115 332.5 -103 c 128,-1,14
 311 -91 311 -91 265 -90 c 1,15,-1
 270 -10 l 1,16,17
 180 -4 180 -4 126.5 66 c 128,-1,18
 73 136 73 136 73 257 c 0,19,20
 73 340 73 340 99 401.5 c 128,-1,21
 125 463 125 463 172.5 496 c 128,-1,22
 220 529 220 529 283 529 c 0,23,24
 325 529 325 529 357 517 c 128,-1,25
 389 505 389 505 418 479 c 1,26,-1
 405 464 l 1,27,28
 379 487 379 487 350 498 c 128,-1,29
 321 509 321 509 284 509 c 0,30,31
 199 509 199 509 147.5 443 c 128,-1,32
 96 377 96 377 96 257 c 0,33,34
 96 139 96 139 147.5 75 c 128,-1,35
 199 11 199 11 283 11 c 0,36,37
 355 11 355 11 410 59 c 1,38,-1
 423 44 l 1,39,40
 364 -9 364 -9 287 -10 c 1,41,-1
 286 -74 l 1,42,0
 377 -79 377 -79 377 -140 c 0,1,2
EndSplineSet
Substitution2: "'smcp' Lowercase to Small Capitals lookup 27 subtable" ccedilla.sc
Substitution2: "'aalt' Access All Alternates lookup 0 subtable" ccedilla.sc
EndChar

StartChar: uni0255
Encoding: 597 597 393
Width: 474
GlyphClass: 2
Flags: W
AnchorPoint: "Anchor-18" 0 0 basechar 0
AnchorPoint: "Anchor-17" 0 0 basechar 0
AnchorPoint: "Anchor-16" 285 519 basechar 0
AnchorPoint: "Anchor-15" 0 0 basechar 0
AnchorPoint: "Anchor-14" 285 0 basechar 0
LayerCount: 2
Fore
SplineSet
414 175.5 m 128,-1,1
 440 149 440 149 440 107 c 0,2,3
 440 54 440 54 399.5 22 c 128,-1,4
 359 -10 359 -10 289 -10 c 0,5,6
 257 -10 257 -10 232 -3 c 128,-1,7
 207 4 207 4 181 18 c 1,8,-1
 147 -55 l 1,9,-1
 127 -47 l 1,10,-1
 164 28 l 1,11,12
 120 62 120 62 96.5 120 c 128,-1,13
 73 178 73 178 73 257 c 0,14,15
 73 340 73 340 99 401.5 c 128,-1,16
 125 463 125 463 172.5 496 c 128,-1,17
 220 529 220 529 283 529 c 0,18,19
 325 529 325 529 357 517 c 128,-1,20
 389 505 389 505 418 479 c 1,21,-1
 405 464 l 1,22,23
 379 487 379 487 350 498 c 128,-1,24
 321 509 321 509 284 509 c 0,25,26
 199 509 199 509 147.5 443 c 128,-1,27
 96 377 96 377 96 257 c 0,28,29
 96 184 96 184 116.5 131 c 128,-1,30
 137 78 137 78 173 48 c 1,31,32
 212 132 212 132 250.5 167 c 128,-1,33
 289 202 289 202 341 202 c 0,34,0
 388 202 388 202 414 175.5 c 128,-1,1
381 35.5 m 128,-1,36
 418 60 418 60 418 107 c 0,37,38
 418 142 418 142 398 162 c 128,-1,39
 378 182 378 182 341 182 c 0,40,41
 295 182 295 182 261.5 150 c 128,-1,42
 228 118 228 118 190 37 c 1,43,44
 234 11 234 11 289 11 c 256,45,35
 344 11 344 11 381 35.5 c 128,-1,36
EndSplineSet
EndChar

StartChar: uni0188
Encoding: 392 392 395
Width: 464
GlyphClass: 2
Flags: W
AnchorPoint: "Anchor-18" 0 0 basechar 0
AnchorPoint: "Anchor-17" 0 0 basechar 0
AnchorPoint: "Anchor-16" 232 732 basechar 0
AnchorPoint: "Anchor-15" 0 0 basechar 0
AnchorPoint: "Anchor-14" 232 0 basechar 0
LayerCount: 2
Fore
SplineSet
582 706 m 1,1,-1
 571 692 l 1,2,3
 553 704 553 704 535 710.5 c 128,-1,4
 517 717 517 717 493 717 c 0,5,6
 459 717 459 717 438.5 695 c 128,-1,7
 418 673 418 673 418 625 c 2,8,-1
 418 479 l 1,9,-1
 407 466 l 1,10,11
 379 487 379 487 349.5 498 c 128,-1,12
 320 509 320 509 284 509 c 0,13,14
 199 509 199 509 147.5 443 c 128,-1,15
 96 377 96 377 96 257 c 0,16,17
 96 139 96 139 147.5 75 c 128,-1,18
 199 11 199 11 283 11 c 0,19,20
 355 11 355 11 411 60 c 1,21,-1
 423 44 l 1,22,23
 362 -10 362 -10 284 -10 c 0,24,25
 221 -10 221 -10 173.5 21.5 c 128,-1,26
 126 53 126 53 99.5 113.5 c 128,-1,27
 73 174 73 174 73 257 c 256,28,29
 73 340 73 340 99 401.5 c 128,-1,30
 125 463 125 463 172.5 496 c 128,-1,31
 220 529 220 529 283 529 c 0,32,33
 347 529 347 529 396 495 c 1,34,-1
 396 626 l 2,35,36
 396 680 396 680 422.5 708.5 c 128,-1,37
 449 737 449 737 493 737 c 0,38,0
 541 737 541 737 582 706 c 1,1,-1
EndSplineSet
Substitution2: "'smcp' Lowercase to Small Capitals lookup 27 subtable" uni0188.sc
Substitution2: "'aalt' Access All Alternates lookup 0 subtable" uni0188.sc
EndChar

StartChar: uni0297
Encoding: 663 663 396
Width: 486
GlyphClass: 2
Flags: W
AnchorPoint: "Anchor-18" 0 0 basechar 0
AnchorPoint: "Anchor-17" 0 0 basechar 0
AnchorPoint: "Anchor-16" 307 519 basechar 0
AnchorPoint: "Anchor-15" 0 0 basechar 0
AnchorPoint: "Anchor-14" 306 -192 basechar 0
LayerCount: 2
Fore
SplineSet
379 517 m 128,-1,1
 410 505 410 505 440 479 c 1,2,-1
 427 464 l 1,3,4
 376 509 376 509 310 509 c 0,5,6
 253 509 253 509 209.5 468.5 c 128,-1,7
 166 428 166 428 142 349.5 c 128,-1,8
 118 271 118 271 118 161 c 256,9,10
 118 51 118 51 141.5 -26 c 128,-1,11
 165 -103 165 -103 207.5 -142 c 128,-1,12
 250 -181 250 -181 307 -181 c 0,13,14
 378 -181 378 -181 432 -132 c 1,15,-1
 445 -148 l 1,16,17
 385 -201 385 -201 308 -201 c 0,18,19
 243 -201 243 -201 195 -158.5 c 128,-1,20
 147 -116 147 -116 121 -34.5 c 128,-1,21
 95 47 95 47 95 161 c 256,22,23
 95 275 95 275 121 358 c 128,-1,24
 147 441 147 441 195.5 485 c 128,-1,25
 244 529 244 529 310 529 c 0,26,0
 348 529 348 529 379 517 c 128,-1,1
EndSplineSet
EndChar

StartChar: uni023C
Encoding: 572 572 397
Width: 464
GlyphClass: 2
Flags: W
AnchorPoint: "Anchor-18" 0 0 basechar 0
AnchorPoint: "Anchor-17" 0 0 basechar 0
AnchorPoint: "Anchor-16" 281 519 basechar 0
AnchorPoint: "Anchor-15" 0 0 basechar 0
AnchorPoint: "Anchor-14" 284 0 basechar 0
LayerCount: 2
Fore
SplineSet
284 -10 m 0,1,2
 241 -10 241 -10 205 5 c 1,3,-1
 185 -66 l 1,4,-1
 168 -62 l 1,5,-1
 189 13 l 1,6,7
 134 42 134 42 103.5 104.5 c 128,-1,8
 73 167 73 167 73 257 c 0,9,10
 73 340 73 340 99 401.5 c 128,-1,11
 125 463 125 463 172.5 496 c 128,-1,12
 220 529 220 529 283 529 c 0,13,14
 310 529 310 529 329 525 c 1,15,-1
 346 586 l 1,16,-1
 363 582 l 1,17,-1
 346 521 l 1,18,19
 383 510 383 510 418 479 c 1,20,-1
 405 464 l 1,21,22
 375 491 375 491 341 501 c 1,23,-1
 210 26 l 1,24,25
 243 11 243 11 283 11 c 0,26,27
 355 11 355 11 410 59 c 1,28,-1
 423 44 l 1,29,0
 362 -10 362 -10 284 -10 c 0,1,2
122 117.5 m 128,-1,31
 148 61 148 61 194 34 c 1,32,-1
 324 505 l 1,33,34
 308 509 308 509 284 509 c 0,35,36
 199 509 199 509 147.5 443 c 128,-1,37
 96 377 96 377 96 257 c 0,38,30
 96 174 96 174 122 117.5 c 128,-1,31
EndSplineSet
Substitution2: "'smcp' Lowercase to Small Capitals lookup 27 subtable" uni023C.sc
Substitution2: "'aalt' Access All Alternates lookup 0 subtable" uni023C.sc
EndChar

StartChar: d
Encoding: 100 100 398
Width: 574
GlyphClass: 2
Flags: W
AnchorPoint: "Anchor-18" 292 260 basechar 0
AnchorPoint: "Anchor-17" 492 732 basechar 0
AnchorPoint: "Anchor-16" 279 732 basechar 0
AnchorPoint: "Anchor-15" 0 0 basechar 0
AnchorPoint: "Anchor-14" 295 0 basechar 0
LayerCount: 2
Fore
SplineSet
456 733 m 1,0,-1
 456 0 l 1,1,-1
 437 0 l 1,2,-1
 434 89 l 1,3,4
 380 -10 380 -10 270 -10 c 0,5,6
 182 -10 182 -10 130 61.5 c 128,-1,7
 78 133 78 133 78 258 c 0,8,9
 78 338 78 338 102 399.5 c 128,-1,10
 126 461 126 461 172 495 c 128,-1,11
 218 529 218 529 280 529 c 0,12,13
 379 529 379 529 434 446 c 1,14,-1
 434 736 l 1,15,-1
 456 733 l 1,0,-1
367.5 39.5 m 128,-1,17
 406 68 406 68 434 123 c 1,18,-1
 434 418 l 1,19,20
 376 509 376 509 281 509 c 0,21,22
 227 509 227 509 186 478.5 c 128,-1,23
 145 448 145 448 123 391 c 128,-1,24
 101 334 101 334 101 258 c 0,25,26
 101 141 101 141 146.5 76 c 128,-1,27
 192 11 192 11 271 11 c 0,28,16
 329 11 329 11 367.5 39.5 c 128,-1,17
EndSplineSet
Substitution2: "'smcp' Lowercase to Small Capitals lookup 27 subtable" d.sc
Substitution2: "'aalt' Access All Alternates lookup 0 subtable" d.sc
EndChar

StartChar: eth
Encoding: 240 240 399
Width: 543
GlyphClass: 2
Flags: W
AnchorPoint: "Anchor-18" 0 0 basechar 0
AnchorPoint: "Anchor-17" 0 0 basechar 0
AnchorPoint: "Anchor-16" 289 732 basechar 0
AnchorPoint: "Anchor-15" 0 0 basechar 0
AnchorPoint: "Anchor-14" 269 0 basechar 0
LayerCount: 2
Fore
SplineSet
425 519.5 m 128,-1,1
 465 432 465 432 465 301 c 0,2,3
 465 145 465 145 413 67.5 c 128,-1,4
 361 -10 361 -10 268 -10 c 0,5,6
 176 -10 176 -10 124.5 55 c 128,-1,7
 73 120 73 120 73 230 c 0,8,9
 73 292 73 292 95 345 c 128,-1,10
 117 398 117 398 159.5 429.5 c 128,-1,11
 202 461 202 461 260 461 c 0,12,13
 364 461 364 461 441 361 c 1,14,15
 434 455 434 455 397.5 526.5 c 128,-1,16
 361 598 361 598 292 651 c 1,17,-1
 210 566 l 1,18,-1
 191 573 l 1,19,-1
 278 662 l 1,20,21
 249 681 249 681 213.5 696 c 128,-1,22
 178 711 178 711 144 718 c 1,23,-1
 149 738 l 1,24,25
 228 720 228 720 292 676 c 1,26,-1
 358 746 l 1,27,-1
 373 734 l 1,28,-1
 307 666 l 1,29,0
 385 607 385 607 425 519.5 c 128,-1,1
397 84.5 m 128,-1,31
 442 158 442 158 442 303 c 2,32,-1
 442 334 l 1,33,34
 361 441 361 441 261 441 c 0,35,36
 210 441 210 441 173 413 c 128,-1,37
 136 385 136 385 116 336.5 c 128,-1,38
 96 288 96 288 96 229 c 0,39,40
 96 127 96 127 141.5 69 c 128,-1,41
 187 11 187 11 268 11 c 0,42,30
 352 11 352 11 397 84.5 c 128,-1,31
EndSplineSet
Substitution2: "'smcp' Lowercase to Small Capitals lookup 27 subtable" eth.sc
Substitution2: "'aalt' Access All Alternates lookup 0 subtable" eth.sc
EndChar

StartChar: uni0238
Encoding: 568 568 400
Width: 846
GlyphClass: 2
Flags: W
AnchorPoint: "Anchor-18" 0 0 basechar 0
AnchorPoint: "Anchor-17" 0 0 basechar 0
AnchorPoint: "Anchor-16" 425 732 basechar 0
AnchorPoint: "Anchor-15" 0 0 basechar 0
AnchorPoint: "Anchor-14" 423 0 basechar 0
LayerCount: 2
Fore
SplineSet
722 460 m 128,-1,1
 768 391 768 391 768 264 c 0,2,3
 768 136 768 136 720.5 63 c 128,-1,4
 673 -10 673 -10 589 -10 c 0,5,6
 540 -10 540 -10 500 18.5 c 128,-1,7
 460 47 460 47 436 92 c 1,8,-1
 433 0 l 1,9,-1
 417 0 l 1,10,-1
 414 90 l 1,11,12
 358 -10 358 -10 259 -10 c 0,13,14
 206 -10 206 -10 165 22 c 128,-1,15
 124 54 124 54 101 114.5 c 128,-1,16
 78 175 78 175 78 258 c 0,17,18
 78 338 78 338 101.5 399.5 c 128,-1,19
 125 461 125 461 168.5 495 c 128,-1,20
 212 529 212 529 270 529 c 0,21,22
 317 529 317 529 353.5 504.5 c 128,-1,23
 390 480 390 480 414 439 c 1,24,-1
 414 733 l 1,25,-1
 436 736 l 1,26,-1
 436 437 l 1,27,28
 464 478 464 478 505 503.5 c 128,-1,29
 546 529 546 529 593 529 c 0,30,0
 676 529 676 529 722 460 c 128,-1,1
349 39.5 m 128,-1,32
 386 68 386 68 414 123 c 1,33,-1
 414 412 l 1,34,35
 383 459 383 459 349 484 c 128,-1,36
 315 509 315 509 270 509 c 0,37,38
 221 509 221 509 182.5 478.5 c 128,-1,39
 144 448 144 448 122.5 391 c 128,-1,40
 101 334 101 334 101 258 c 0,41,42
 101 181 101 181 121 125.5 c 128,-1,43
 141 70 141 70 177 40.5 c 128,-1,44
 213 11 213 11 260 11 c 0,45,31
 312 11 312 11 349 39.5 c 128,-1,32
703.5 77.5 m 128,-1,47
 745 144 745 144 745 264 c 0,48,49
 745 383 745 383 705.5 446 c 128,-1,50
 666 509 666 509 593 509 c 0,51,52
 545 509 545 509 507 483 c 128,-1,53
 469 457 469 457 436 409 c 1,54,-1
 436 123 l 1,55,56
 497 11 497 11 588 11 c 0,57,46
 662 11 662 11 703.5 77.5 c 128,-1,47
EndSplineSet
EndChar

StartChar: dcroat
Encoding: 273 273 403
Width: 579
GlyphClass: 2
Flags: W
AnchorPoint: "Anchor-18" 292 260 basechar 0
AnchorPoint: "Anchor-17" 492 732 basechar 0
AnchorPoint: "Anchor-16" 279 732 basechar 0
AnchorPoint: "Anchor-15" 0 0 basechar 0
AnchorPoint: "Anchor-14" 295 0 basechar 0
LayerCount: 2
Fore
SplineSet
531 649 m 1,0,-1
 531 629 l 1,1,-1
 456 629 l 1,2,-1
 456 0 l 1,3,-1
 437 0 l 1,4,-1
 434 89 l 1,5,6
 380 -10 380 -10 270 -10 c 0,7,8
 182 -10 182 -10 130 61.5 c 128,-1,9
 78 133 78 133 78 258 c 0,10,11
 78 338 78 338 102 399.5 c 128,-1,12
 126 461 126 461 172 495 c 128,-1,13
 218 529 218 529 280 529 c 0,14,15
 379 529 379 529 434 446 c 1,16,-1
 434 629 l 1,17,-1
 261 629 l 1,18,-1
 261 649 l 1,19,-1
 434 649 l 1,20,-1
 434 736 l 1,21,-1
 456 733 l 1,22,-1
 456 649 l 1,23,-1
 531 649 l 1,0,-1
367.5 39.5 m 128,-1,25
 406 68 406 68 434 123 c 1,26,-1
 434 418 l 1,27,28
 376 509 376 509 281 509 c 0,29,30
 227 509 227 509 186 478.5 c 128,-1,31
 145 448 145 448 123 391 c 128,-1,32
 101 334 101 334 101 258 c 0,33,34
 101 141 101 141 146.5 76 c 128,-1,35
 192 11 192 11 271 11 c 0,36,24
 329 11 329 11 367.5 39.5 c 128,-1,25
EndSplineSet
Substitution2: "'smcp' Lowercase to Small Capitals lookup 27 subtable" dcroat.sc
Substitution2: "'aalt' Access All Alternates lookup 0 subtable" dcroat.sc
EndChar

StartChar: uni0221
Encoding: 545 545 404
Width: 655
GlyphClass: 2
Flags: W
AnchorPoint: "Anchor-18" 0 0 basechar 0
AnchorPoint: "Anchor-17" 0 0 basechar 0
AnchorPoint: "Anchor-16" 328 732 basechar 0
AnchorPoint: "Anchor-15" 0 0 basechar 0
AnchorPoint: "Anchor-14" 328 -192 basechar 0
LayerCount: 2
Fore
SplineSet
663.5 158 m 128,-1,1
 688 134 688 134 688 98 c 0,2,3
 688 50 688 50 651 20 c 128,-1,4
 614 -10 614 -10 557 -10 c 0,5,6
 526 -10 526 -10 500.5 1 c 128,-1,7
 475 12 475 12 459 32 c 1,8,-1
 415 -55 l 1,9,-1
 395 -47 l 1,10,-1
 446 51 l 1,11,12
 438 71 438 71 435 91 c 1,13,14
 381 -10 381 -10 269 -10 c 0,15,16
 212 -10 212 -10 168.5 22 c 128,-1,17
 125 54 125 54 101.5 114.5 c 128,-1,18
 78 175 78 175 78 258 c 0,19,20
 78 338 78 338 102 399.5 c 128,-1,21
 126 461 126 461 171.5 495 c 128,-1,22
 217 529 217 529 280 529 c 0,23,24
 379 529 379 529 434 446 c 1,25,-1
 434 736 l 1,26,-1
 456 733 l 1,27,-1
 456 110 l 2,28,29
 456 90 456 90 460 77 c 1,30,31
 487 128 487 128 519.5 155 c 128,-1,32
 552 182 552 182 598 182 c 0,33,0
 639 182 639 182 663.5 158 c 128,-1,1
367.5 39.5 m 128,-1,35
 406 68 406 68 434 123 c 1,36,-1
 434 418 l 1,37,38
 376 509 376 509 280 509 c 0,39,40
 226 509 226 509 185.5 478.5 c 128,-1,41
 145 448 145 448 123 391 c 128,-1,42
 101 334 101 334 101 258 c 0,43,44
 101 141 101 141 146.5 76 c 128,-1,45
 192 11 192 11 270 11 c 0,46,34
 329 11 329 11 367.5 39.5 c 128,-1,35
635.5 34.5 m 128,-1,48
 666 58 666 58 666 98 c 0,49,50
 666 127 666 127 647.5 144.5 c 128,-1,51
 629 162 629 162 598 162 c 0,52,53
 556 162 556 162 527 135.5 c 128,-1,54
 498 109 498 109 469 54 c 1,55,56
 494 11 494 11 557 11 c 0,57,47
 605 11 605 11 635.5 34.5 c 128,-1,48
EndSplineSet
EndChar

StartChar: uni018D
Encoding: 397 397 407
Width: 557
GlyphClass: 2
Flags: W
AnchorPoint: "Anchor-18" 0 0 basechar 0
AnchorPoint: "Anchor-17" 0 0 basechar 0
AnchorPoint: "Anchor-16" 278 519 basechar 0
AnchorPoint: "Anchor-15" 0 0 basechar 0
AnchorPoint: "Anchor-14" 278 -192 basechar 0
LayerCount: 2
Fore
SplineSet
402.5 -6.5 m 128,-1,1
 430 -36 430 -36 431 -83 c 0,2,3
 431 -135 431 -135 388 -169.5 c 128,-1,4
 345 -204 345 -204 276 -204 c 0,5,6
 233 -204 233 -204 197.5 -193 c 128,-1,7
 162 -182 162 -182 127 -159 c 1,8,-1
 141 -143 l 1,9,10
 174 -164 174 -164 204 -173.5 c 128,-1,11
 234 -183 234 -183 274 -183 c 0,12,13
 335 -183 335 -183 371.5 -154.5 c 128,-1,14
 408 -126 408 -126 408 -82 c 0,15,16
 408 -52 408 -52 396 -31.5 c 128,-1,17
 384 -11 384 -11 354 7 c 128,-1,18
 324 25 324 25 267 46 c 0,19,20
 196 73 196 73 154.5 105 c 128,-1,21
 113 137 113 137 93 182.5 c 128,-1,22
 73 228 73 228 73 295 c 0,23,24
 73 403 73 403 128.5 466 c 128,-1,25
 184 529 184 529 281 529 c 0,26,27
 376 529 376 529 430 467.5 c 128,-1,28
 484 406 484 406 484 296 c 0,29,30
 484 204 484 204 438 142 c 128,-1,31
 392 80 392 80 311 49 c 1,32,0
 375 23 375 23 402.5 -6.5 c 128,-1,1
114 189 m 128,-1,34
 132 147 132 147 173 116.5 c 128,-1,35
 214 86 214 86 289 57 c 1,36,37
 366 86 366 86 413.5 145.5 c 128,-1,38
 461 205 461 205 461 296 c 0,39,40
 461 397 461 397 413.5 452.5 c 128,-1,41
 366 508 366 508 281 508 c 0,42,43
 193 508 193 508 144.5 451.5 c 128,-1,44
 96 395 96 395 96 295 c 0,45,33
 96 231 96 231 114 189 c 128,-1,34
EndSplineSet
EndChar

StartChar: uni02A4
Encoding: 676 676 408
Width: 859
GlyphClass: 2
Flags: W
AnchorPoint: "Anchor-18" 292 260 basechar 0
AnchorPoint: "Anchor-17" 492 732 basechar 0
AnchorPoint: "Anchor-16" 496 732 basechar 0
AnchorPoint: "Anchor-15" 0 0 basechar 0
AnchorPoint: "Anchor-14" 622 -192 basechar 0
LayerCount: 2
Fore
SplineSet
823 2 m 0,1,2
 823 -87 823 -87 769 -142 c 128,-1,3
 715 -197 715 -197 622 -197 c 0,4,5
 564 -197 564 -197 520 -176.5 c 128,-1,6
 476 -156 476 -156 439 -115 c 1,7,-1
 454 -103 l 1,8,9
 490 -141 490 -141 530 -158.5 c 128,-1,10
 570 -176 570 -176 622 -176 c 0,11,12
 707 -176 707 -176 753.5 -127.5 c 128,-1,13
 800 -79 800 -79 800 2 c 0,14,15
 800 90 800 90 750 131.5 c 128,-1,16
 700 173 700 173 597 173 c 2,17,-1
 546 173 l 1,18,-1
 546 194 l 1,19,-1
 769 499 l 1,20,-1
 456 499 l 1,21,-1
 456 0 l 1,22,-1
 437 0 l 1,23,-1
 434 89 l 1,24,25
 380 -10 380 -10 270 -10 c 0,26,27
 182 -10 182 -10 130 61.5 c 128,-1,28
 78 133 78 133 78 258 c 0,29,30
 78 338 78 338 102 399.5 c 128,-1,31
 126 461 126 461 172 495 c 128,-1,32
 218 529 218 529 280 529 c 0,33,34
 379 529 379 529 434 446 c 1,35,-1
 434 736 l 1,36,-1
 456 733 l 1,37,-1
 456 519 l 1,38,-1
 796 519 l 1,39,-1
 796 501 l 1,40,-1
 571 194 l 1,41,-1
 597 194 l 2,42,0
 823 194 823 194 823 2 c 0,1,2
367.5 39.5 m 128,-1,44
 406 68 406 68 434 123 c 1,45,-1
 434 418 l 1,46,47
 376 509 376 509 281 509 c 0,48,49
 227 509 227 509 186 478.5 c 128,-1,50
 145 448 145 448 123 391 c 128,-1,51
 101 334 101 334 101 258 c 0,52,53
 101 141 101 141 146.5 76 c 128,-1,54
 192 11 192 11 271 11 c 0,55,43
 329 11 329 11 367.5 39.5 c 128,-1,44
EndSplineSet
EndChar

StartChar: uni0257
Encoding: 599 599 409
Width: 574
GlyphClass: 2
Flags: W
AnchorPoint: "Anchor-18" 0 0 basechar 0
AnchorPoint: "Anchor-17" 0 0 basechar 0
AnchorPoint: "Anchor-16" 295 732 basechar 0
AnchorPoint: "Anchor-15" 0 0 basechar 0
AnchorPoint: "Anchor-14" 287 0 basechar 0
LayerCount: 2
Fore
SplineSet
620 706 m 1,1,-1
 609 692 l 1,2,3
 591 704 591 704 573.5 710.5 c 128,-1,4
 556 717 556 717 532 717 c 0,5,6
 497 717 497 717 476.5 695 c 128,-1,7
 456 673 456 673 456 625 c 2,8,-1
 456 0 l 1,9,-1
 437 0 l 1,10,-1
 434 89 l 1,11,12
 378 -10 378 -10 269 -10 c 0,13,14
 212 -10 212 -10 168.5 22 c 128,-1,15
 125 54 125 54 101.5 114.5 c 128,-1,16
 78 175 78 175 78 258 c 0,17,18
 78 338 78 338 102 399.5 c 128,-1,19
 126 461 126 461 171.5 495 c 128,-1,20
 217 529 217 529 280 529 c 0,21,22
 379 529 379 529 434 446 c 1,23,-1
 434 626 l 2,24,25
 434 680 434 680 460.5 708.5 c 128,-1,26
 487 737 487 737 532 737 c 0,27,0
 581 737 581 737 620 706 c 1,1,-1
367.5 39.5 m 128,-1,29
 406 68 406 68 434 123 c 1,30,-1
 434 418 l 1,31,32
 376 509 376 509 280 509 c 0,33,34
 226 509 226 509 185.5 478.5 c 128,-1,35
 145 448 145 448 123 391 c 128,-1,36
 101 334 101 334 101 258 c 0,37,38
 101 141 101 141 146.5 76 c 128,-1,39
 192 11 192 11 270 11 c 0,40,28
 329 11 329 11 367.5 39.5 c 128,-1,29
EndSplineSet
Substitution2: "'smcp' Lowercase to Small Capitals lookup 27 subtable" uni0257.sc
Substitution2: "'aalt' Access All Alternates lookup 0 subtable" uni0257.sc
EndChar

StartChar: uni0256
Encoding: 598 598 411
Width: 574
GlyphClass: 2
Flags: W
AnchorPoint: "Anchor-18" 0 0 basechar 0
AnchorPoint: "Anchor-17" 0 0 basechar 0
AnchorPoint: "Anchor-16" 446 732 basechar 0
AnchorPoint: "Anchor-15" 0 0 basechar 0
AnchorPoint: "Anchor-14" 287 -192 basechar 0
LayerCount: 2
Fore
SplineSet
620 -167 m 1,0,1
 580 -197 580 -197 532 -197 c 0,2,3
 488 -197 488 -197 461 -168.5 c 128,-1,4
 434 -140 434 -140 434 -86 c 2,5,-1
 434 89 l 1,6,7
 378 -10 378 -10 269 -10 c 0,8,9
 212 -10 212 -10 168.5 22 c 128,-1,10
 125 54 125 54 101.5 114.5 c 128,-1,11
 78 175 78 175 78 258 c 0,12,13
 78 338 78 338 102 399.5 c 128,-1,14
 126 461 126 461 171.5 495 c 128,-1,15
 217 529 217 529 280 529 c 0,16,17
 379 529 379 529 434 446 c 1,18,-1
 434 736 l 1,19,-1
 456 733 l 1,20,-1
 456 -86 l 2,21,22
 456 -133 456 -133 477 -155 c 128,-1,23
 498 -177 498 -177 532 -177 c 0,24,25
 557 -177 557 -177 575 -170.5 c 128,-1,26
 593 -164 593 -164 609 -152 c 1,27,-1
 620 -167 l 1,0,1
367.5 39.5 m 128,-1,29
 406 68 406 68 434 123 c 1,30,-1
 434 418 l 1,31,32
 376 509 376 509 280 509 c 0,33,34
 226 509 226 509 185.5 478.5 c 128,-1,35
 145 448 145 448 123 391 c 128,-1,36
 101 334 101 334 101 258 c 0,37,38
 101 141 101 141 146.5 76 c 128,-1,39
 192 11 192 11 270 11 c 0,40,28
 329 11 329 11 367.5 39.5 c 128,-1,29
EndSplineSet
Substitution2: "'smcp' Lowercase to Small Capitals lookup 27 subtable" uni0256.sc
Substitution2: "'aalt' Access All Alternates lookup 0 subtable" uni0256.sc
EndChar

StartChar: uni018C
Encoding: 396 396 412
Width: 574
GlyphClass: 2
Flags: W
AnchorPoint: "Anchor-18" 0 0 basechar 0
AnchorPoint: "Anchor-17" 0 0 basechar 0
AnchorPoint: "Anchor-16" 287 732 basechar 0
AnchorPoint: "Anchor-15" 0 0 basechar 0
AnchorPoint: "Anchor-14" 287 0 basechar 0
LayerCount: 2
Fore
SplineSet
456 0 m 1,0,-1
 437 0 l 1,1,-1
 434 89 l 1,2,3
 378 -10 378 -10 269 -10 c 0,4,5
 212 -10 212 -10 168.5 22 c 128,-1,6
 125 54 125 54 101.5 114.5 c 128,-1,7
 78 175 78 175 78 258 c 0,8,9
 78 338 78 338 102 399.5 c 128,-1,10
 126 461 126 461 171.5 495 c 128,-1,11
 217 529 217 529 280 529 c 0,12,13
 379 529 379 529 434 446 c 1,14,-1
 434 711 l 1,15,-1
 192 711 l 1,16,-1
 192 732 l 1,17,-1
 456 732 l 1,18,-1
 456 0 l 1,0,-1
367.5 39.5 m 128,-1,20
 406 68 406 68 434 123 c 1,21,-1
 434 418 l 1,22,23
 376 509 376 509 280 509 c 0,24,25
 226 509 226 509 185.5 478.5 c 128,-1,26
 145 448 145 448 123 391 c 128,-1,27
 101 334 101 334 101 258 c 0,28,29
 101 141 101 141 146.5 76 c 128,-1,30
 192 11 192 11 270 11 c 0,31,19
 329 11 329 11 367.5 39.5 c 128,-1,20
EndSplineSet
Substitution2: "'smcp' Lowercase to Small Capitals lookup 27 subtable" uni018C.sc
Substitution2: "'aalt' Access All Alternates lookup 0 subtable" uni018C.sc
EndChar

